<?xml version="1.0" encoding="UTF-8"?>
<svg version="1.1" xmlns="http://www.w3.org/2000/svg" width="3200" height="1350">
<path d="M0 0 C3.47510199 2.85324164 6.9214022 5.71707049 10 9 C10 9.66 10 10.32 10 11 C10.85271484 11.33644531 10.85271484 11.33644531 11.72265625 11.6796875 C18.65630121 15.69953655 26.41353134 26.35812082 28.625 34.22265625 C28.74875 34.80917969 28.8725 35.39570313 29 36 C29.66 36 30.32 36 31 36 C34.24043814 42.6169252 36.69039355 48.73763698 38 56 C38.66 56 39.32 56 40 56 C42.66126039 65.94742959 44.87316959 75.73991263 46 86 C46.11214844 87.00160156 46.22429687 88.00320313 46.33984375 89.03515625 C48.8494445 116.77827682 46.95529694 145.01824464 40 172 C39.34 172 38.68 172 38 172 C37.7525 173.2375 37.505 174.475 37.25 175.75 C33.98293539 190.37069341 33.98293539 190.37069341 30.5859375 194.875 C28.33928637 197.88529117 27.01382578 201.24853229 25.5625 204.6875 C24.94292651 206.13160404 24.32313648 207.5756152 23.703125 209.01953125 C23.40857422 209.70998535 23.11402344 210.40043945 22.81054688 211.11181641 C21.83758606 213.3783462 20.82919204 215.62778782 19.8125 217.875 C18.12537463 221.65673442 16.58468397 225.48758617 15.06640625 229.33984375 C13.91850572 232.20328794 12.70984957 235.03721828 11.5 237.875 C9.39434175 242.89767105 7.63224739 247.97128308 5.9609375 253.15234375 C5.09367539 255.72240096 4.11866507 258.19072577 3.0625 260.6875 C0.89225795 265.95076419 -0.64211344 271.36923464 -2.16186523 276.84838867 C-3.0893831 280.13964278 -4.07583684 283.17129014 -5.46484375 286.30859375 C-7.50532463 291.21509356 -8.72257335 296.2253738 -10 301.375 C-11.54789005 307.56656021 -13.17207857 313.65113445 -15.25 319.68603516 C-16.72219397 324.22817528 -17.83238877 328.87212425 -19 333.5 C-21.75976385 344.43843901 -21.75976385 344.43843901 -23.5 349.46484375 C-25.71851442 355.91673433 -27.167718 362.57515171 -28.75 369.20507812 C-29.98075923 374.25952423 -31.33385904 379.08189248 -33.25 383.9152832 C-35.19731231 389.32807611 -36.37235536 395.02086609 -37.75 400.59960938 C-39.11430553 405.99643254 -40.76930802 410.88799754 -43 416 C-44.09175192 419.45401593 -45.04632535 422.94317647 -46 426.4375 C-47.55157451 432.09832262 -49.15788521 437.6526703 -51.28564453 443.12573242 C-52.4537724 446.19057098 -53.43028775 449.3167932 -54.4375 452.4375 C-56.02727295 457.29215575 -57.78297552 461.96884127 -59.953125 466.59375 C-62.27676273 471.93464865 -64.09112613 477.50025274 -66 483 C-66.66 483 -67.32 483 -68 483 C-68.15275391 483.99580078 -68.15275391 483.99580078 -68.30859375 485.01171875 C-69.18318535 488.79173327 -70.58605015 492.23270859 -72.0625 495.8125 C-72.34416016 496.50537109 -72.62582031 497.19824219 -72.91601562 497.91210938 C-73.60674973 499.60967624 -74.30283728 501.30506312 -75 503 C-75.66 503 -76.32 503 -77 503 C-77.17015625 503.556875 -77.3403125 504.11375 -77.515625 504.6875 C-79.23315937 510.09590609 -81.35342255 514.98062896 -84 520 C-84.66 520 -85.32 520 -86 520 C-86.226875 520.804375 -86.45375 521.60875 -86.6875 522.4375 C-88.33631588 526.91285739 -90.60544412 530.88721318 -93 535 C-93.66 535 -94.32 535 -95 535 C-95.20625 535.66 -95.4125 536.32 -95.625 537 C-97.52250169 541.14000368 -100.18654435 544.43835065 -103 548 C-103.65871094 548.845625 -104.31742188 549.69125 -104.99609375 550.5625 C-108.45865025 554.96105949 -111.92211899 559.14866793 -116 563 C-116.721875 563.763125 -117.44375 564.52625 -118.1875 565.3125 C-120 567 -120 567 -122 567 C-122 567.66 -122 568.32 -122 569 C-132.2140304 579.0332511 -144.66557442 584.92970297 -158.875 585.3125 C-170.29156637 585.08149386 -178.60752696 581.93915698 -187 574 C-194.85810498 564.74083754 -197.96440751 554.82807696 -200.51513672 543.10595703 C-200.95945064 541.17612226 -201.50806886 539.27107703 -202.06640625 537.37109375 C-203.62024047 531.76038691 -204.12205602 526.22857908 -204.24951172 520.42333984 C-204.27979462 519.15606049 -204.31007751 517.88878113 -204.34127808 516.58309937 C-204.35551693 515.91315319 -204.36975578 515.24320702 -204.38442612 514.55295944 C-204.43078151 512.41037146 -204.48366813 510.26803146 -204.5383606 508.12564087 C-204.69323582 502.03595943 -204.84159587 495.94616866 -204.97412109 489.85595703 C-205.65784652 452.44797211 -205.65784652 452.44797211 -212 415.6875 C-212.2475 414.64529297 -212.495 413.60308594 -212.75 412.52929688 C-213.83691093 408.06560277 -215.02662618 403.74274849 -216.6875 399.45703125 C-218 396 -218 396 -218 393 C-218.66 393 -219.32 393 -220 393 C-220.98219627 391.23084525 -221.96065359 389.45961431 -222.9375 387.6875 C-223.48277344 386.70136719 -224.02804687 385.71523438 -224.58984375 384.69921875 C-226 382 -226 382 -227 379 C-227.99 378.67 -228.98 378.34 -230 378 C-231.53515625 376.1875 -231.53515625 376.1875 -233.0625 374 C-235.07953853 370.98371816 -235.07953853 370.98371816 -238 369 C-238 368.34 -238 367.68 -238 367 C-231.30013408 366.2717537 -226.60311498 368.37341692 -221 372 C-212.91119737 378.66919559 -205.68742659 387.62514682 -201 397 C-201 397.66 -201 398.32 -201 399 C-200.34 399 -199.68 399 -199 399 C-197.91600537 401.62472857 -196.8327943 404.24977627 -195.75 406.875 C-195.44964844 407.60203125 -195.14929688 408.3290625 -194.83984375 409.078125 C-194.21524515 410.59310885 -193.59411818 412.10952762 -192.97607422 413.62719727 C-192.32089857 415.21990666 -191.65038705 416.80638665 -190.96533203 418.38647461 C-188.27389586 424.74199468 -186.71191993 431.05313836 -185.375 437.8125 C-184.97020283 439.81983282 -184.56148264 441.82637936 -184.1484375 443.83203125 C-183.97489746 444.70577393 -183.80135742 445.5795166 -183.62255859 446.47973633 C-183.0724627 448.99970352 -183.0724627 448.99970352 -182.03173828 451.2565918 C-180.58277498 455.10940783 -180.00750094 459.01027016 -179.34375 463.0625 C-179.19595093 463.93140869 -179.04815186 464.80031738 -178.89587402 465.69555664 C-178.2662409 469.39820508 -177.64960561 473.10299035 -177.03173828 476.80761719 C-176.57772522 479.51835625 -176.11714181 482.22792345 -175.65625 484.9375 C-175.51973022 485.77095947 -175.38321045 486.60441895 -175.24255371 487.46313477 C-174.54441427 491.56351934 -173.68183691 495.16962718 -172 499 C-171.17990235 502.3941016 -170.39225013 505.78783309 -169.67578125 509.20507812 C-168.31287918 515.10544684 -166.25302056 517.56625964 -161.25 520.75 C-156.44919 522.59646538 -152.30161122 523.01046346 -147.4375 520.875 C-146.2309375 519.946875 -146.2309375 519.946875 -145 519 C-144.46761719 518.60941406 -143.93523437 518.21882812 -143.38671875 517.81640625 C-138.73302773 514.17393856 -135.67042739 509.92574318 -132.48046875 504.9765625 C-131.99191406 504.32429687 -131.50335937 503.67203125 -131 503 C-130.34 503 -129.68 503 -129 503 C-128.773125 502.360625 -128.54625 501.72125 -128.3125 501.0625 C-127.22815225 498.53235524 -126.0630415 496.23182611 -124.72265625 493.8359375 C-124.27656006 493.03841064 -123.83046387 492.24088379 -123.37084961 491.41918945 C-122.1186259 489.20934355 -120.84893476 487.01104862 -119.5703125 484.81640625 C-113.95307252 475.09896629 -109.54410693 465.36076098 -105.69335938 454.828125 C-104.86369734 452.64062173 -103.89500112 450.54226421 -102.875 448.4375 C-100.34440671 442.95273772 -98.88219337 437.07920337 -97.24609375 431.28125 C-96.43452316 428.40550291 -95.51164901 425.6028905 -94.5078125 422.7890625 C-92.53317043 416.94770192 -91.52959912 410.93149924 -90.4375 404.875 C-88.22923693 392.77399185 -88.22923693 392.77399185 -86.94140625 388.42578125 C-85.57431741 383.45093929 -85.074616 378.4316284 -84.5 373.3125 C-84.37326904 372.22138916 -84.24653809 371.13027832 -84.1159668 370.00610352 C-82.96887001 360.01495584 -81.95081823 350.01155668 -81 340 C-81.86713623 340.3086499 -82.73427246 340.6172998 -83.62768555 340.93530273 C-86.76791285 341.92672612 -89.70640101 342.54542848 -92.95703125 343.03515625 C-94.07013672 343.20466797 -95.18324219 343.37417969 -96.33007812 343.54882812 C-97.47927734 343.71833984 -98.62847656 343.88785156 -99.8125 344.0625 C-100.95009766 344.23587891 -102.08769531 344.40925781 -103.25976562 344.58789062 C-137.93863053 349.81073179 -172.03897313 346.23808637 -201 325 C-200.34 323.35 -199.68 321.7 -199 320 C-198.34 320 -197.68 320 -197 320 C-197 319.34 -197 318.68 -197 318 C-195.97519531 317.60167969 -194.95039062 317.20335937 -193.89453125 316.79296875 C-192.53376242 316.25804583 -191.17309043 315.72287651 -189.8125 315.1875 C-188.80219727 314.79594727 -188.80219727 314.79594727 -187.77148438 314.39648438 C-183.93720393 312.88147601 -180.5051239 311.19417423 -177 309 C-174.58886888 307.69624358 -172.1738486 306.40452533 -169.75 305.125 C-168.40600501 304.41061697 -167.06225375 303.6957752 -165.71875 302.98046875 C-165.07550781 302.63806152 -164.43226563 302.2956543 -163.76953125 301.94287109 C-157.39567256 298.54664562 -151.24651697 294.94674574 -145.17578125 291.03125 C-142.76708693 289.49063371 -140.34989648 287.97189848 -137.91796875 286.46875 C-136.85364624 285.80975708 -136.85364624 285.80975708 -135.76782227 285.13745117 C-134.37007604 284.27319587 -132.97088802 283.41126676 -131.57006836 282.55200195 C-127.83712338 280.23852979 -124.39310438 277.80154342 -121 275 C-119.13438695 273.59164505 -117.25924078 272.19583379 -115.375 270.8125 C-114.43398438 270.11769531 -113.49296875 269.42289063 -112.5234375 268.70703125 C-110 267 -110 267 -107 266 C-106.67 265.01 -106.34 264.02 -106 263 C-105.01 263 -104.02 263 -103 263 C-103 262.34 -103 261.68 -103 261 C-101.34191655 259.52483679 -99.62153953 258.119287 -97.875 256.75 C-94.55743219 254.10704701 -91.37117264 251.5028587 -88.4375 248.4375 C-87.633125 247.633125 -86.82875 246.82875 -86 246 C-85.34 246 -84.68 246 -84 246 C-83.62875 245.13375 -83.62875 245.13375 -83.25 244.25 C-81.81700012 241.67060021 -80.21575324 239.93878408 -78 238 C-77.34 238 -76.68 238 -76 238 C-76 237.34 -76 236.68 -76 236 C-75.34 236 -74.68 236 -74 236 C-73.5978125 235.13375 -73.5978125 235.13375 -73.1875 234.25 C-71.97070811 231.94449957 -70.69666121 229.97943808 -69 228 C-68.34 228 -67.68 228 -67 228 C-67 227.34 -67 226.68 -67 226 C-66.34 226 -65.68 226 -65 226 C-64.814375 225.34 -64.62875 224.68 -64.4375 224 C-62.7251306 220.42635951 -60.4685119 217.98085888 -57.8125 215.0703125 C-56.10737277 213.12264562 -54.641846 211.1382349 -53.1875 209 C-52.465625 208.01 -51.74375 207.02 -51 206 C-50.34 206 -49.68 206 -49 206 C-48.7525 205.319375 -48.505 204.63875 -48.25 203.9375 C-46.75802092 200.43134917 -44.93164489 197.28379632 -43 194 C-42.34 194 -41.68 194 -41 194 C-40.72414063 193.28457031 -40.44828125 192.56914063 -40.1640625 191.83203125 C-39.01751478 189.04261145 -37.73772885 186.37709642 -36.375 183.6875 C-35.92898438 182.80449219 -35.48296875 181.92148437 -35.0234375 181.01171875 C-34.68570313 180.34785156 -34.34796875 179.68398438 -34 179 C-33.34 179 -32.68 179 -32 179 C-31.67 177.845 -31.34 176.69 -31 175.5 C-29.47490202 170.86660708 -27.36835463 166.68722613 -25.125 162.375 C-21.20201883 154.80306943 -18.44100439 147.16797623 -16 139 C-15.34 139 -14.68 139 -14 139 C-13.87625 138.07832031 -13.7525 137.15664063 -13.625 136.20703125 C-12.74108574 130.01496286 -11.57612797 123.86664095 -10.4609375 117.71289062 C-5.78115243 91.32798301 -6.62683537 67.28105002 -20.90234375 43.98046875 C-23.03509681 40.95013246 -25.30194437 38.53208691 -28 36 C-28.93392578 35.12214844 -28.93392578 35.12214844 -29.88671875 34.2265625 C-51.30404081 15.1786188 -78.20843396 7.8872668 -106.53515625 9.109375 C-112.38593581 9.51224558 -118.18745002 10.23441129 -124 11 C-125.22154785 11.14695312 -125.22154785 11.14695312 -126.46777344 11.296875 C-147.39262287 13.82014125 -167.15307179 20.10589095 -187 27 C-187.71784668 27.24669434 -188.43569336 27.49338867 -189.17529297 27.74755859 C-196.79850943 30.3114193 -196.79850943 30.3114193 -204.10546875 33.62890625 C-208.07082981 35.50723517 -210.67564145 35.22367372 -215 35 C-214.8125 32.21875 -214.8125 32.21875 -214 29 C-211.8125 27.09375 -211.8125 27.09375 -209 25.5 C-207.50726562 24.62408203 -207.50726562 24.62408203 -205.984375 23.73046875 C-204.50710938 22.87388672 -204.50710938 22.87388672 -203 22 C-201.40770035 20.95098498 -199.82348854 19.88952577 -198.25 18.8125 C-194.58724851 16.35767719 -190.85900491 14.1288137 -187 12 C-186.38253906 11.64550781 -185.76507812 11.29101562 -185.12890625 10.92578125 C-177.58347942 6.63244765 -169.79477977 2.81475628 -162 -1 C-160.92621094 -1.52851563 -159.85242188 -2.05703125 -158.74609375 -2.6015625 C-137.11084931 -12.93563839 -114.59225241 -19.18641034 -91 -23 C-89.84371094 -23.1959375 -88.68742188 -23.391875 -87.49609375 -23.59375 C-56.31122009 -27.21746716 -25.13853023 -18.78483578 0 0 Z " fill="#050505" transform="translate(906,420)"/>
<path d="M0 0 C0.94556763 -0.00175232 1.89113525 -0.00350464 2.86535645 -0.00531006 C5.99342688 -0.00971173 9.1214407 -0.00679317 12.24951172 -0.00341797 C14.4388734 -0.00409227 16.62823501 -0.00506336 18.81759644 -0.00631714 C23.41583974 -0.00779248 28.01406364 -0.00564767 32.61230469 -0.00097656 C38.45409283 0.00467353 44.29583455 0.00147095 50.13762093 -0.00454903 C54.66775854 -0.00819952 59.19788556 -0.00699487 63.72802353 -0.00442123 C65.87820313 -0.00376184 68.02838375 -0.00454515 70.17856216 -0.00690079 C80.51314021 -0.01572594 90.82659884 0.04774978 101.1496582 0.57421875 C101.91494654 0.61280943 102.68023487 0.65140011 103.46871376 0.6911602 C109.30932853 1.02772233 114.84448513 1.88151589 120.49169922 3.37939453 C121.37229004 3.60264404 122.25288086 3.82589355 123.16015625 4.0559082 C129.91820663 5.82860351 136.28779602 8.01317506 142.55419922 11.12939453 C143.13331055 11.41153809 143.71242188 11.69368164 144.30908203 11.984375 C156.85150205 18.14470558 168.87359402 25.9354239 178.55419922 36.12939453 C178.55419922 36.78939453 178.55419922 37.44939453 178.55419922 38.12939453 C179.11236328 38.34466797 179.67052734 38.55994141 180.24560547 38.78173828 C187.58979887 43.06895778 194.25384046 53.38223659 197.55419922 61.12939453 C197.55419922 61.78939453 197.55419922 62.44939453 197.55419922 63.12939453 C198.21419922 63.12939453 198.87419922 63.12939453 199.55419922 63.12939453 C218.29423495 100.52548376 222.002105 143.74752247 209.39404297 183.96923828 C206.65447678 191.94128779 203.2202663 199.54529699 199.55419922 207.12939453 C198.89419922 207.12939453 198.23419922 207.12939453 197.55419922 207.12939453 C197.36857422 207.91314453 197.18294922 208.69689453 196.99169922 209.50439453 C193.8252903 217.48925181 187.79789127 225.23165904 181.55419922 231.12939453 C180.89419922 231.12939453 180.23419922 231.12939453 179.55419922 231.12939453 C179.55419922 231.78939453 179.55419922 232.44939453 179.55419922 233.12939453 C178.89419922 233.12939453 178.23419922 233.12939453 177.55419922 233.12939453 C177.32990234 233.70431641 177.10560547 234.27923828 176.87451172 234.87158203 C167.86662798 250.27559624 140.06731571 260.65946845 123.77947235 265.15618992 C109.47039631 268.81322984 95.46847903 268.84048766 80.77294922 268.75830078 C78.05724425 268.75676046 75.34155604 268.76154379 72.62585449 268.76560974 C66.98155256 268.77008714 61.33758687 268.75451104 55.69335938 268.72631836 C49.18028934 268.69403572 42.66781647 268.69439192 36.15470266 268.71153313 C29.84614708 268.72739804 23.53780932 268.72068107 17.22926331 268.70359612 C14.55939949 268.69674871 11.88999558 268.69889157 9.22007751 268.70514107 C5.50620118 268.71058043 1.79334939 268.69026659 -1.92041016 268.6628418 C-3.56916893 268.67263062 -3.56916893 268.67263062 -5.25123596 268.68261719 C-9.60576897 268.62783623 -12.63388143 268.54798992 -16.5411377 266.53355408 C-21.06223706 260.8267998 -20.73317963 253.98420388 -20.69976807 247.03356934 C-20.70288805 246.03205699 -20.70600803 245.03054465 -20.70922256 243.99868345 C-20.71718439 240.65091747 -20.7108859 237.30333366 -20.70458984 233.95556641 C-20.70730051 231.55212803 -20.71086186 229.14869049 -20.71520996 226.74525452 C-20.72338077 220.8997683 -20.72218778 215.0543292 -20.71638468 209.2088443 C-20.71186305 204.45696919 -20.71125745 199.70510846 -20.71343231 194.95323181 C-20.71373878 194.2762378 -20.71404524 193.59924378 -20.714361 192.9017348 C-20.71500046 191.52632065 -20.71564889 190.15090651 -20.71630618 188.77549237 C-20.72200565 175.88625107 -20.7154576 162.99703825 -20.70470545 150.10780162 C-20.69577028 139.05460088 -20.69732243 128.00144216 -20.70654297 116.94824219 C-20.71725237 104.10428631 -20.72145636 91.26035538 -20.71531844 78.41639566 C-20.71468136 77.0461162 -20.71405262 75.67583673 -20.71343231 74.30555725 C-20.71312376 73.63140013 -20.71281521 72.95724302 -20.71249731 72.2626569 C-20.71077238 67.51794823 -20.71368111 62.77325541 -20.71839142 58.02854919 C-20.72459489 51.639493 -20.72016145 45.25049744 -20.70860291 38.86144829 C-20.70595821 36.51650054 -20.70671816 34.17154612 -20.71112823 31.82660103 C-20.7165925 28.62605041 -20.7097386 25.42575414 -20.69976807 22.22521973 C-20.70422951 21.29710212 -20.70869095 20.36898452 -20.71328759 19.41274214 C-20.67653614 13.33116592 -20.45299543 7.75951166 -16.63330078 2.75439453 C-11.85448306 -0.79558435 -5.70375014 -0.01301295 0 0 Z M40.55419922 59.12939453 C37.84368071 62.95632002 37.17823289 65.53945453 37.17324829 70.20851135 C37.16478882 71.42965637 37.15632935 72.65080139 37.14761353 73.90895081 C37.15344582 75.25399914 37.15959029 76.59904616 37.16601562 77.9440918 C37.16194858 79.36689659 37.15660594 80.78969823 37.15008545 82.2124939 C37.13642301 86.06986035 37.14170565 89.92698576 37.15122271 93.78435636 C37.1588234 97.82238488 37.15177269 101.8603929 37.14706421 105.89842224 C37.14160848 112.67816876 37.14879412 119.4578172 37.16308594 126.23754883 C37.17941873 134.07599922 37.17411873 141.91421559 37.15760672 149.75266033 C37.14399449 156.48399851 37.14207069 163.21526623 37.14992273 169.94661373 C37.15459986 173.96641212 37.1552229 177.98610048 37.14531326 182.0058918 C37.13664942 185.78411319 37.14265457 189.56203264 37.15999603 193.34022141 C37.16396375 194.72695222 37.16282193 196.11370843 37.15620804 197.50042915 C37.14801477 199.39269734 37.16010947 201.28502104 37.17324829 203.17726135 C37.17437937 204.23635995 37.17551044 205.29545855 37.1766758 206.38665104 C37.60968641 209.53251427 38.29956105 210.91285805 40.55419922 213.12939453 C43.26805106 213.57155081 45.59395932 213.75763628 48.31591797 213.77392578 C49.0907251 213.79337753 49.86553223 213.81282928 50.66381836 213.83287048 C53.18986303 213.88990726 55.7151463 213.9172403 58.24169922 213.94189453 C59.97649261 213.97083595 61.71127474 214.00046077 63.44604492 214.03076172 C73.04525285 214.17615571 82.64581233 214.20301064 92.24169922 213.87939453 C93.14557373 213.85337158 94.04944824 213.82734863 94.98071289 213.80053711 C111.57399381 213.00291883 126.68670245 205.61210898 138.55419922 194.12939453 C142.21539461 190.14280915 142.21539461 190.14280915 143.55419922 185.12939453 C144.54419922 184.79939453 145.53419922 184.46939453 146.55419922 184.12939453 C147.86166574 181.46691726 148.98830794 178.88687814 150.05419922 176.12939453 C150.51765747 174.95473633 150.51765747 174.95473633 150.99047852 173.75634766 C151.59346606 172.21756828 152.19091374 170.67660408 152.78222656 169.13330078 C153.36791202 167.61296358 153.98032536 166.10288991 154.60498047 164.59814453 C161.48858196 146.80668222 160.72200733 120.65715202 153.55419922 103.12939453 C152.93738281 101.40462891 152.93738281 101.40462891 152.30810547 99.64501953 C149.24456867 91.25122737 145.70047006 83.78785461 139.55419922 77.12939453 C138.89419922 77.12939453 138.23419922 77.12939453 137.55419922 77.12939453 C137.05919922 75.64439453 137.05919922 75.64439453 136.55419922 74.12939453 C125.32821738 61.73278892 108.00874294 55.98432261 91.73883057 54.95050049 C85.38835726 54.69272837 79.04174555 54.65833559 72.68676758 54.68334961 C69.33403377 54.6919786 65.98294267 54.66279859 62.63037109 54.63134766 C60.48649139 54.62973814 58.34260869 54.63030837 56.19873047 54.63330078 C55.20291458 54.6220668 54.20709869 54.61083282 53.18110657 54.59925842 C47.72760943 54.65432753 44.37276743 54.82123082 40.55419922 59.12939453 Z " fill="#040404" transform="translate(1119.44580078125,607.87060546875)"/>
<path d="M0 0 C0.78761719 0.54914062 1.57523438 1.09828125 2.38671875 1.6640625 C3.18529297 2.32535156 3.18529297 2.32535156 4 3 C4 3.66 4 4.32 4 5 C4.99 5.33 5.98 5.66 7 6 C7 6.66 7 7.32 7 8 C8.32 8.66 9.64 9.32 11 10 C11 10.66 11 11.32 11 12 C11.99 12.33 12.98 12.66 14 13 C15.66619528 14.88223836 17.18416488 16.74440053 18.6875 18.75 C19.12521729 19.32621094 19.56293457 19.90242187 20.01391602 20.49609375 C24.43598036 26.41464694 28.25577615 32.63568417 32 39 C32.50789063 39.7940625 33.01578125 40.588125 33.5390625 41.40625 C36.47375795 46.61651144 38.2830837 52.3875883 40.28320312 58.00878906 C40.88818608 59.68938886 41.52635214 61.35798853 42.171875 63.0234375 C54.26652299 96.98148764 47.97435932 136.76481173 33.15380859 168.62207031 C27.31635757 180.65270361 18.89837029 192.95006144 9 202 C8.34 202 7.68 202 7 202 C6.67 202.99 6.34 203.98 6 205 C5.34 205 4.68 205 4 205 C4 205.66 4 206.32 4 207 C-22.79874718 230.34084432 -57.9577374 240.16581523 -93 238 C-105.73788332 236.90757732 -117.92411732 234.1415805 -130 230 C-131.86011719 229.37158203 -131.86011719 229.37158203 -133.7578125 228.73046875 C-145.42721276 224.43186802 -155.69249787 217.87166809 -166 211 C-166 210.34 -166 209.68 -166 209 C-166.598125 208.71125 -167.19625 208.4225 -167.8125 208.125 C-170 207 -170 207 -173 205 C-173 204.34 -173 203.68 -173 203 C-173.56460938 202.76667969 -174.12921875 202.53335938 -174.7109375 202.29296875 C-189.79993673 193.77000161 -200.48486237 170.46237983 -206 155 C-206.43699219 153.80375 -206.87398437 152.6075 -207.32421875 151.375 C-217.58513045 121.99043827 -217.11783569 86.07741641 -206 57 C-205.56945313 55.80890625 -205.13890625 54.6178125 -204.6953125 53.390625 C-196.80546106 32.15940529 -183.15723769 11.81528954 -165 -2 C-164.34 -2 -163.68 -2 -163 -2 C-163 -2.66 -163 -3.32 -163 -4 C-161.68 -4.33 -160.36 -4.66 -159 -5 C-159 -5.66 -159 -6.32 -159 -7 C-110.32107861 -41.32406253 -46.02616929 -34.88166592 0 0 Z M-125 38 C-125 38.66 -125 39.32 -125 40 C-125.721875 40.2475 -126.44375 40.495 -127.1875 40.75 C-137.65668507 45.40297114 -146.1748044 57.91641919 -150.33984375 68.359375 C-151.62465373 71.88980939 -152.85074326 75.42319044 -154 79 C-154.35707031 80.09183594 -154.71414062 81.18367187 -155.08203125 82.30859375 C-160.39170657 103.66026685 -158.17408861 127.62196815 -148 147 C-136.59228711 164.67937405 -120.09698246 177.62227812 -99.421875 182.38500977 C-77.90382774 186.87905804 -57.19680544 180.37222268 -38.98095703 168.70703125 C-37.27312261 167.53790395 -35.62996841 166.27544504 -34 165 C-34 164.34 -34 163.68 -34 163 C-33.01 162.67 -32.02 162.34 -31 162 C-31 161.34 -31 160.68 -31 160 C-30.40832031 159.75507812 -29.81664063 159.51015625 -29.20703125 159.2578125 C-19.41244124 153.67576297 -14.45146892 136.86277328 -11.125 126.625 C-5.43872747 105.51950994 -8.7523644 82.46025169 -19.42578125 63.640625 C-30.04154179 45.8335428 -45.78181682 33.10516674 -65.6875 27 C-87.27654907 22.49983037 -105.86828918 28.352185 -125 38 Z " fill="#020202" transform="translate(2808,641)"/>
<path d="M0 0 C0.86625 0.3403125 0.86625 0.3403125 1.75 0.6875 C3.33809575 7.39173657 1.88465008 13.01211808 0.3125 19.625 C-0.05198242 21.22311523 -0.05198242 21.22311523 -0.42382812 22.85351562 C-1.02166061 25.46756748 -1.63062541 28.07848404 -2.25 30.6875 C-2.91 30.6875 -3.57 30.6875 -4.25 30.6875 C-4.35183594 31.66847656 -4.45367188 32.64945313 -4.55859375 33.66015625 C-5.18791926 38.06543483 -6.68669402 42.00201638 -8.3125 46.125 C-8.59416016 46.85654297 -8.87582031 47.58808594 -9.16601562 48.34179688 C-9.85413247 50.12623546 -10.55114606 51.90723905 -11.25 53.6875 C-11.91 53.6875 -12.57 53.6875 -13.25 53.6875 C-13.476875 54.47125 -13.70375 55.255 -13.9375 56.0625 C-15.65660933 60.81051625 -17.93084721 65.20852552 -20.25 69.6875 C-20.91 69.6875 -21.57 69.6875 -22.25 69.6875 C-22.559375 70.925 -22.559375 70.925 -22.875 72.1875 C-24.31588983 75.85521956 -26.04448601 78.3215155 -28.4609375 81.38671875 C-31.28121879 85.01367438 -33.87852961 88.80106161 -36.515625 92.5625 C-37.08796875 93.26375 -37.6603125 93.965 -38.25 94.6875 C-38.91 94.6875 -39.57 94.6875 -40.25 94.6875 C-40.63865234 95.55375 -40.63865234 95.55375 -41.03515625 96.4375 C-42.34337457 98.86043811 -43.83865731 100.65178504 -45.6875 102.6875 C-47.52897059 104.72385624 -49.25695871 106.69730004 -50.84765625 108.9375 C-51.54181641 109.80375 -51.54181641 109.80375 -52.25 110.6875 C-52.91 110.6875 -53.57 110.6875 -54.25 110.6875 C-54.62125 111.55375 -54.62125 111.55375 -55 112.4375 C-56.43299988 115.01689979 -58.03424676 116.74871592 -60.25 118.6875 C-60.91 118.6875 -61.57 118.6875 -62.25 118.6875 C-62.25 119.3475 -62.25 120.0075 -62.25 120.6875 C-62.91 120.6875 -63.57 120.6875 -64.25 120.6875 C-64.25 121.3475 -64.25 122.0075 -64.25 122.6875 C-65.61328125 124.09765625 -65.61328125 124.09765625 -67.5625 125.75 C-68.28308594 126.36101562 -69.00367188 126.97203125 -69.74609375 127.6015625 C-70.57238281 128.28992188 -71.39867187 128.97828125 -72.25 129.6875 C-73.21035156 130.49960937 -74.17070313 131.31171875 -75.16015625 132.1484375 C-82.98846609 138.6875 -82.98846609 138.6875 -85.25 138.6875 C-85.25 139.3475 -85.25 140.0075 -85.25 140.6875 C-86.65185547 141.99682617 -86.65185547 141.99682617 -88.6171875 143.48046875 C-89.33318115 144.02493652 -90.0491748 144.5694043 -90.78686523 145.13037109 C-91.55844971 145.70609863 -92.33003418 146.28182617 -93.125 146.875 C-94.29494507 147.75792725 -94.29494507 147.75792725 -95.48852539 148.65869141 C-100.99127951 152.79418454 -106.56680337 156.80365455 -112.25 160.6875 C-113.93846217 161.87363153 -115.62594453 163.06115891 -117.3125 164.25 C-121.15480459 166.94141148 -125.04045534 169.55689688 -128.953125 172.14453125 C-132.30622066 174.39703598 -135.59829082 176.73407926 -138.890625 179.07421875 C-145.6374092 183.6875 -145.6374092 183.6875 -148.25 183.6875 C-148.25 184.3475 -148.25 185.0075 -148.25 185.6875 C-150.09375 186.9921875 -150.09375 186.9921875 -152.75 188.5625 C-160.62786422 193.43152834 -167.91340352 199.04746671 -175.25 204.6875 C-176.17039062 205.39003906 -177.09078125 206.09257813 -178.0390625 206.81640625 C-183.6388525 211.18497206 -188.83756079 215.91669819 -193.96166992 220.828125 C-198.03801043 224.6875 -198.03801043 224.6875 -200.25 224.6875 C-200.4975 225.244375 -200.745 225.80125 -201 226.375 C-202.9813201 230.04044218 -205.51916478 232.97696576 -208.5 235.875 C-213.68606723 241.1789324 -218.30458273 246.94890556 -222.125 253.3125 C-222.82625 254.42625 -223.5275 255.54 -224.25 256.6875 C-224.91 256.6875 -225.57 256.6875 -226.25 256.6875 C-226.5903125 257.863125 -226.5903125 257.863125 -226.9375 259.0625 C-228.65660933 263.81051625 -230.93084721 268.20852552 -233.25 272.6875 C-233.91 272.6875 -234.57 272.6875 -235.25 272.6875 C-235.42015625 273.28175781 -235.5903125 273.87601563 -235.765625 274.48828125 C-237.66710318 280.99174118 -239.87386266 287.34309268 -242.25 293.6875 C-242.91 293.6875 -243.57 293.6875 -244.25 293.6875 C-245.34901804 299.15478653 -246.43485817 304.62442545 -247.50390625 310.09765625 C-247.9400627 312.31511232 -248.3762611 314.53256015 -248.8125 316.75 C-249.03357422 317.88888672 -249.25464844 319.02777344 -249.48242188 320.20117188 C-249.69576172 321.28076172 -249.90910156 322.36035156 -250.12890625 323.47265625 C-250.3204126 324.45113525 -250.51191895 325.42961426 -250.70922852 326.43774414 C-251.25 328.6875 -251.25 328.6875 -252.25 329.6875 C-255.59740177 353.09487879 -255.93131791 378.29283055 -252.25 401.6875 C-251.92 402.0175 -251.59 402.3475 -251.25 402.6875 C-250.95191574 404.20464601 -250.71082485 405.73305733 -250.49389648 407.26391602 C-250.35382675 408.23905655 -250.21375702 409.21419708 -250.06944275 410.21888733 C-249.92148758 411.28231857 -249.77353241 412.34574982 -249.62109375 413.44140625 C-249.46713638 414.53082016 -249.31317902 415.62023407 -249.15455627 416.74266052 C-248.82885616 419.05673894 -248.50535015 421.37112704 -248.18383789 423.68579102 C-247.6928617 427.21149755 -247.19162941 430.73563917 -246.68945312 434.25976562 C-246.37437226 436.5077246 -246.05989997 438.75576898 -245.74609375 441.00390625 C-245.59611435 442.05316788 -245.44613495 443.1024295 -245.29161072 444.18348694 C-243.48768057 457.32197108 -243.383861 473.28962512 -251.25 484.6875 C-251.88035156 485.60402344 -251.88035156 485.60402344 -252.5234375 486.5390625 C-256.22265093 491.34190867 -260.40875508 494.88592039 -266.25 496.6875 C-282.08926577 498.62026755 -293.28937207 493.68319899 -306.25 484.6875 C-307.013125 484.16414063 -307.77625 483.64078125 -308.5625 483.1015625 C-309.119375 482.63492187 -309.67625 482.16828125 -310.25 481.6875 C-310.25 481.0275 -310.25 480.3675 -310.25 479.6875 C-310.91 479.6875 -311.57 479.6875 -312.25 479.6875 C-316.51231005 475.55116956 -320.21537394 470.78567179 -323.25 465.6875 C-323.25 465.0275 -323.25 464.3675 -323.25 463.6875 C-323.91 463.6875 -324.57 463.6875 -325.25 463.6875 C-326.42176518 461.56517021 -327.58754785 459.43992209 -328.75 457.3125 C-329.08386719 456.70921875 -329.41773438 456.1059375 -329.76171875 455.484375 C-332.25 450.9140625 -332.25 450.9140625 -332.25 448.6875 C-332.91 448.6875 -333.57 448.6875 -334.25 448.6875 C-334.69730469 447.64851563 -335.14460938 446.60953125 -335.60546875 445.5390625 C-339.5423518 436.39649501 -339.5423518 436.39649501 -343.875 427.4375 C-348.33868345 418.67006964 -351.73733502 409.52485824 -354.94677734 400.24121094 C-356.16766901 396.71661763 -357.41567546 393.21446318 -358.7890625 389.74609375 C-362.02908012 381.54156637 -364.51074181 373.37339718 -366.51391602 364.77612305 C-367.40521655 360.96275487 -368.36140005 357.28245886 -369.703125 353.6015625 C-372.05057152 346.7785268 -373.06078204 339.5877431 -374.3125 332.5 C-374.69662732 330.33907228 -375.08278089 328.17858103 -375.47422791 326.01896667 C-375.82756728 324.06795523 -376.17388392 322.11567571 -376.51977539 320.16333008 C-377.17000193 316.72709474 -377.17000193 316.72709474 -378.27294922 313.66015625 C-379.35131879 310.37923975 -379.84331677 307.27942957 -380.28515625 303.85546875 C-380.45466797 302.56189453 -380.62417969 301.26832031 -380.79882812 299.93554688 C-380.97011887 298.5820397 -381.1413424 297.22852402 -381.3125 295.875 C-381.48710302 294.53313442 -381.66222908 293.19133679 -381.83789062 291.84960938 C-382.32013263 288.1302486 -382.78898358 284.40954519 -383.25 280.6875 C-383.36182617 279.79804687 -383.47365234 278.90859375 -383.58886719 277.9921875 C-384.13652483 273.41603042 -384.3851908 268.92893203 -384.375 264.3125 C-384.37757813 263.12914062 -384.38015625 261.94578125 -384.3828125 260.7265625 C-384.25 257.6875 -384.25 257.6875 -383.25 254.6875 C-382.59 254.6875 -381.93 254.6875 -381.25 254.6875 C-380.57694982 256.28899886 -379.91177773 257.89381029 -379.25 259.5 C-378.693125 260.83998047 -378.693125 260.83998047 -378.125 262.20703125 C-377.25 264.6875 -377.25 264.6875 -377.25 267.6875 C-376.59 267.6875 -375.93 267.6875 -375.25 267.6875 C-375.03384033 268.32139648 -374.81768066 268.95529297 -374.5949707 269.60839844 C-369.33788385 285.07517984 -369.33788385 285.07517984 -363.28125 300.23828125 C-359.25 309.8125 -359.25 309.8125 -359.25 314.6875 C-358.59 314.6875 -357.93 314.6875 -357.25 314.6875 C-356.82589844 315.89664062 -356.40179688 317.10578125 -355.96484375 318.3515625 C-352.70383319 327.50076923 -349.23305614 336.24369597 -344.6328125 344.8046875 C-343.34279502 347.49404598 -342.67267631 349.75044157 -342.25 352.6875 C-341.59 352.6875 -340.93 352.6875 -340.25 352.6875 C-339.07845707 354.97679053 -337.91261926 357.26868362 -336.75 359.5625 C-336.41613281 360.21347656 -336.08226562 360.86445312 -335.73828125 361.53515625 C-333.25 366.4609375 -333.25 366.4609375 -333.25 368.6875 C-332.26 369.0175 -331.27 369.3475 -330.25 369.6875 C-330.25 370.3475 -330.25 371.0075 -330.25 371.6875 C-327.94483323 370.81539352 -327.94483323 370.81539352 -327.1875 367.9375 C-325.99714771 363.44368942 -325.82594856 358.88827512 -325.59375 354.26171875 C-325.23803329 350.56307345 -324.55721437 347.04831021 -323.79833984 343.41577148 C-322.82904378 338.59302728 -322.09290585 333.73120343 -321.3125 328.875 C-319.92787138 320.38991238 -318.39759124 312.01755088 -316.25 303.6875 C-315.59 303.6875 -314.93 303.6875 -314.25 303.6875 C-314.14816406 302.72714844 -314.04632812 301.76679687 -313.94140625 300.77734375 C-313.26975558 296.07578909 -311.74091299 291.72282024 -310.1875 287.25 C-309.90583984 286.42306641 -309.62417969 285.59613281 -309.33398438 284.74414062 C-308.64482208 282.72337662 -307.9481769 280.70516718 -307.25 278.6875 C-306.59 278.6875 -305.93 278.6875 -305.25 278.6875 C-305.09724609 277.67623047 -305.09724609 277.67623047 -304.94140625 276.64453125 C-304.09598862 273.02881857 -302.6876995 269.7547998 -301.1875 266.375 C-300.90583984 265.72982422 -300.62417969 265.08464844 -300.33398438 264.41992188 C-299.6437257 262.84051642 -298.94746802 261.26373507 -298.25 259.6875 C-297.59 259.6875 -296.93 259.6875 -296.25 259.6875 C-296.023125 258.883125 -295.79625 258.07875 -295.5625 257.25 C-289.16255214 239.87871296 -273.96064641 220.10739518 -260.25 207.6875 C-259.59 207.6875 -258.93 207.6875 -258.25 207.6875 C-258.023125 207.11 -257.79625 206.5325 -257.5625 205.9375 C-255.92083893 203.12322387 -253.81440947 201.66012267 -251.25 199.6875 C-250.92 199.0275 -250.59 198.3675 -250.25 197.6875 C-249.59 197.6875 -248.93 197.6875 -248.25 197.6875 C-248.25 197.0275 -248.25 196.3675 -248.25 195.6875 C-244.78846154 192.6875 -244.78846154 192.6875 -242.25 192.6875 C-242.25 192.0275 -242.25 191.3675 -242.25 190.6875 C-238.835709 187.4010569 -235.00551043 184.57247444 -231.25 181.6875 C-230.63334473 181.21376953 -230.01668945 180.74003906 -229.38134766 180.25195312 C-216.95436278 170.80682405 -203.78414887 162.67578542 -190.43457031 154.61621094 C-184.17185983 150.82324767 -177.94593749 146.97016969 -171.71655273 143.12280273 C-169.52072922 141.76714485 -167.32305918 140.41452903 -165.125 139.0625 C-164.41730469 138.62421875 -163.70960938 138.1859375 -162.98046875 137.734375 C-158.08558823 134.72890078 -153.09659627 131.94953322 -148.04394531 129.21875 C-143.53236234 126.7461313 -139.11005637 124.12765118 -134.6875 121.5 C-133.74293945 120.93974121 -132.79837891 120.37948242 -131.82519531 119.80224609 C-114.22504596 109.45897596 -114.22504596 109.45897596 -97.27734375 98.1015625 C-95.4364836 96.81757141 -93.5915083 95.7024188 -91.625 94.625 C-88.13810302 92.62326284 -85.09193974 90.35379402 -81.94921875 87.859375 C-80.25 86.6875 -80.25 86.6875 -78.25 86.6875 C-78.25 86.0275 -78.25 85.3675 -78.25 84.6875 C-75.28812728 82.51546 -72.74314009 80.85188003 -69.25 79.6875 C-69.25 79.0275 -69.25 78.3675 -69.25 77.6875 C-67.93 77.3575 -66.61 77.0275 -65.25 76.6875 C-65.25 76.0275 -65.25 75.3675 -65.25 74.6875 C-63.7890625 73.1796875 -63.7890625 73.1796875 -61.875 71.5625 C-61.24851562 71.02367187 -60.62203125 70.48484375 -59.9765625 69.9296875 C-58.25 68.6875 -58.25 68.6875 -56.25 68.6875 C-56.25 68.0275 -56.25 67.3675 -56.25 66.6875 C-55.59 66.6875 -54.93 66.6875 -54.25 66.6875 C-54.25 66.0275 -54.25 65.3675 -54.25 64.6875 C-53.59 64.6875 -52.93 64.6875 -52.25 64.6875 C-52.25 64.0275 -52.25 63.3675 -52.25 62.6875 C-51.59 62.6875 -50.93 62.6875 -50.25 62.6875 C-50.25 62.0275 -50.25 61.3675 -50.25 60.6875 C-48.58784732 59.34854368 -46.92036393 58.01619858 -45.25 56.6875 C-44.1671875 55.32625 -44.1671875 55.32625 -43.0625 53.9375 C-42.464375 53.195 -41.86625 52.4525 -41.25 51.6875 C-40.59 51.6875 -39.93 51.6875 -39.25 51.6875 C-39.25 51.0275 -39.25 50.3675 -39.25 49.6875 C-38.59 49.6875 -37.93 49.6875 -37.25 49.6875 C-37.064375 49.006875 -36.87875 48.32625 -36.6875 47.625 C-34.9918415 44.15995871 -32.83674778 42.22553853 -30.0625 39.6015625 C-27.64694598 37.05065416 -25.9935304 34.25009563 -24.29296875 31.19140625 C-23.77669922 30.44697266 -23.77669922 30.44697266 -23.25 29.6875 C-22.59 29.6875 -21.93 29.6875 -21.25 29.6875 C-20.98703125 28.96820312 -20.7240625 28.24890625 -20.453125 27.5078125 C-19.21598185 24.60775615 -17.74015583 22.18841082 -16 19.5625 C-12.92441141 14.84361356 -10.24271067 10.02751423 -7.70703125 5 C-5.73310707 1.86712302 -3.88263648 -0.53925507 0 0 Z " fill="#050505" transform="translate(842.25,507.3125)"/>
<path d="M0 0 C0 0.66 0 1.32 0 2 C0.55171875 2.226875 1.1034375 2.45375 1.671875 2.6875 C4.68692417 4.38725926 6.81230369 6.54804816 9.25 9 C10.14203125 9.886875 11.0340625 10.77375 11.953125 11.6875 C14 14 14 14 14 16 C14.99 16.33 15.98 16.66 17 17 C18.5703125 18.890625 18.5703125 18.890625 20.125 21.25 C20.64320313 22.01828125 21.16140625 22.7865625 21.6953125 23.578125 C23.07203177 26.13371166 23.71168136 28.1168136 24 31 C20.21030368 39.30123955 10.76754046 43.87844792 3 48 C2.01 48.33 1.02 48.66 0 49 C0 49.66 0 50.32 0 51 C-6.65342072 54.96374 -12.19417842 57.33961294 -20 56 C-26.32619809 54.17189713 -30.70540789 49.76391145 -35.43359375 45.375 C-49.40430567 32.44624376 -64.33219058 26.01551551 -83.55078125 26.6484375 C-94.9336638 27.34529752 -105.97866925 30.60160457 -116 36 C-117.03125 36.54914063 -118.0625 37.09828125 -119.125 37.6640625 C-124.94659261 40.90303682 -129.48351685 44.12695239 -134 49 C-134.66 49 -135.32 49 -136 49 C-136.39058594 49.84498047 -136.39058594 49.84498047 -136.7890625 50.70703125 C-138.11900184 53.22533574 -139.68500996 55.39605062 -141.375 57.6875 C-144.6067121 62.26017147 -147.06235452 66.75357856 -149 72 C-149.23630127 72.63953613 -149.47260254 73.27907227 -149.71606445 73.93798828 C-151.67659051 79.487243 -152.86184692 84.92965544 -153.6875 90.75 C-153.8127002 91.62833496 -153.93790039 92.50666992 -154.06689453 93.41162109 C-156.4233874 110.86890499 -154.83886247 128.06356672 -147 144 C-146.525625 145.0725 -146.05125 146.145 -145.5625 147.25 C-143.71697261 150.49812821 -141.53190285 153.3468081 -139.20703125 156.265625 C-138 158 -138 158 -138 160 C-137.34 160 -136.68 160 -136 160 C-135.319375 160.845625 -134.63875 161.69125 -133.9375 162.5625 C-123.75987516 175.05722098 -107.22716543 181.29221516 -91.671875 183.46484375 C-71.35856328 185.49162037 -52.77777738 179.81944412 -37 167 C-36.34 167 -35.68 167 -35 167 C-34.67 166.01 -34.34 165.02 -34 164 C-32.3603279 162.63360658 -30.68889872 161.3050581 -29 160 C-28.175 159.13375 -27.35 158.2675 -26.5 157.375 C-23.89811657 154.90321074 -22.47342792 153.80777394 -19 153 C-12.94563922 153.19220193 -9.8898692 154.2836994 -5 158 C-3.44236592 159.11102041 -1.87932951 160.21448562 -0.3125 161.3125 C0.54472656 161.91707031 1.40195313 162.52164063 2.28515625 163.14453125 C5.01952877 165.013347 7.80686581 166.76065227 10.625 168.5 C20.79605474 174.97644084 20.79605474 174.97644084 24 179 C24.40761215 183.99324879 21.8952961 187.08743771 19 191 C18.53078125 191.65355469 18.0615625 192.30710937 17.578125 192.98046875 C-0.88057027 218.33738776 -30.5039007 232.35565178 -60.7578125 237.46582031 C-94.9711919 242.39085124 -130.21236144 235.09166247 -158.6875 215.1875 C-168.02670111 208.09971345 -176.51612913 200.02610022 -184 191 C-184.60457031 190.28328125 -185.20914063 189.5665625 -185.83203125 188.828125 C-189.68721659 184.09103452 -192.72209024 179.1875732 -195.54296875 173.7734375 C-196.6303045 171.70370993 -197.79129347 169.67236813 -198.98828125 167.6640625 C-201.13681078 163.92179045 -202.60793892 160.07529552 -204 156 C-204.25418701 155.26813477 -204.50837402 154.53626953 -204.77026367 153.78222656 C-207.21329592 146.61599863 -209.23214401 139.36153365 -211 132 C-211.2626062 130.91948364 -211.2626062 130.91948364 -211.53051758 129.81713867 C-212.1447246 126.13157713 -212.22057447 122.48050242 -212.2734375 118.75390625 C-212.28587494 117.95421921 -212.29831238 117.15453217 -212.31112671 116.33061218 C-212.52854063 98.99756499 -212.48059066 82.64505798 -207 66 C-206.65453125 64.89914062 -206.3090625 63.79828125 -205.953125 62.6640625 C-205.06220132 60.05701534 -204.06972599 57.53805711 -203 55 C-202.60941406 54.01 -202.21882813 53.02 -201.81640625 52 C-199.29619643 45.71910326 -196.49145634 39.79581753 -193 34 C-192.48695313 33.13761719 -191.97390625 32.27523437 -191.4453125 31.38671875 C-173.71648377 2.50588485 -146.56543064 -16.35864234 -113.890625 -24.52734375 C-74.77673138 -33.5593688 -31.23360104 -26.25574588 0 0 Z " fill="#020202" transform="translate(2562,640)"/>
<path d="M0 0 C0.04125 -1.051875 0.0825 -2.10375 0.125 -3.1875 C1.28114942 -8.22500819 2.83824509 -9.11225169 7 -12 C15.52679728 -16.26339864 29.99529916 -14.04360344 39.1875 -13.75 C40.79927124 -13.71060303 40.79927124 -13.71060303 42.44360352 -13.67041016 C52.58485163 -13.26619814 52.58485163 -13.26619814 57 -10 C59.06299665 -6.01841959 59.26202525 -2.60117 59.29193115 1.8427124 C59.29913469 2.51850413 59.30633822 3.19429585 59.31376004 3.89056611 C59.33539434 6.14810239 59.34299292 8.40546204 59.35058594 10.66308594 C59.36316279 12.2846745 59.37657606 13.90625675 59.39076233 15.52783203 C59.42661374 19.92879982 59.44999116 24.32975242 59.4705801 28.73081493 C59.48900489 32.40853406 59.51374293 36.08619925 59.53855062 39.76388001 C59.59710029 48.44443797 59.64581669 57.12501211 59.68798828 65.80566406 C59.7315687 74.74944125 59.78963406 83.69303778 59.85523582 92.63667846 C59.91121852 100.32344285 59.95915836 108.01022747 60.0004847 115.69708467 C60.02516473 120.28434304 60.05261827 124.87153865 60.08739471 129.4587326 C60.11969152 133.77609647 60.14185878 138.09339913 60.15640068 142.41085815 C60.16334789 143.99063303 60.17374619 145.57039731 60.18795204 147.1501236 C60.35288549 166.05051364 60.35288549 166.05051364 56.25 172.9375 C51.19858233 177.5679662 45.29086175 177.25948866 38.83984375 177.08203125 C37.97235001 177.06412033 37.10485626 177.04620941 36.21107483 177.02775574 C34.38464636 176.98671783 32.55833428 176.94017072 30.73217773 176.88842773 C27.94327597 176.81265693 25.15475313 176.76371877 22.36523438 176.71679688 C20.58589725 176.67349852 18.8065975 176.62862979 17.02734375 176.58203125 C16.19702133 176.56936722 15.36669891 176.55670319 14.51121521 176.5436554 C8.81565575 176.35224782 5.21118709 175.36368275 1.1875 171.0625 C0 169 0 169 0 165 C-0.49701416 165.25168945 -0.99402832 165.50337891 -1.50610352 165.76269531 C-28.20951785 179.16507601 -56.03449878 184.39549817 -85 175 C-106.53252738 167.28500459 -122.74105153 154.19082661 -135 135 C-135.87785156 133.62908203 -135.87785156 133.62908203 -136.7734375 132.23046875 C-150.33479998 109.27252771 -152.01135013 79.46393963 -146 54 C-139.84744583 30.2639167 -124.92293063 10.77113948 -104 -2 C-94.36033269 -7.48974903 -84.66640658 -11.1317226 -74 -14 C-72.65421875 -14.37125 -72.65421875 -14.37125 -71.28125 -14.75 C-46.61801061 -20.36947227 -20.95319537 -13.32997998 0 0 Z M-81 47 C-91.1202162 59.50813238 -96.15761883 72.76120055 -94.46484375 88.87109375 C-93.06040386 98.32450848 -89.53016162 105.23143963 -84 113 C-83.32324219 113.99193359 -83.32324219 113.99193359 -82.6328125 115.00390625 C-76.21120393 123.49638858 -65.31913365 128.38899601 -55 130 C-39.80790735 131.43626974 -24.37677536 126.35372529 -12.5625 116.6875 C-3.4775996 108.03242284 0.82301024 98.35112707 2 86 C1.96389567 81.61590291 1.56510906 77.34530466 1 73 C0.84724609 71.68515625 0.84724609 71.68515625 0.69140625 70.34375 C-1.1994674 58.02383094 -8.52180515 48.74032037 -18 41 C-21.86297147 38.56433073 -25.75150536 36.66454458 -30 35 C-30.67417969 34.73574219 -31.34835938 34.47148438 -32.04296875 34.19921875 C-48.63083548 29.00003664 -68.90962083 34.90962083 -81 47 Z " fill="#020202" transform="translate(2104,700)"/>
<path d="M0 0 C3.291706 2.79361891 6.43781866 5.64343592 9.375 8.8125 C9.97828125 9.44542969 10.5815625 10.07835937 11.203125 10.73046875 C27.50680064 28.30981367 35.4988484 52.03292311 35.625 75.8125 C35.6559375 77.27042969 35.6559375 77.27042969 35.6875 78.7578125 C35.74098272 88.57189185 35.74098272 88.57189185 32.375 92.8125 C25.48701953 96.18538275 19.20253485 96.25410837 11.625 96.24487305 C9.73593178 96.26016052 9.73593178 96.26016052 7.80870056 96.27575684 C4.37744214 96.30319408 0.94634942 96.3125931 -2.48500443 96.31861091 C-6.0791803 96.32802942 -9.67323408 96.35423545 -13.26733398 96.37861633 C-20.06336732 96.42218981 -26.85937683 96.45079281 -33.65550709 96.47393972 C-41.39684931 96.50104065 -49.13806814 96.544949 -56.87932205 96.59022844 C-72.79448449 96.68294352 -88.70967019 96.75468417 -104.625 96.8125 C-104.20372639 99.12801097 -103.76251879 101.43990355 -103.3125 103.75 C-103.06886719 105.03777344 -102.82523438 106.32554687 -102.57421875 107.65234375 C-102.26097656 108.69519531 -101.94773437 109.73804688 -101.625 110.8125 C-100.635 111.1425 -99.645 111.4725 -98.625 111.8125 C-97.944375 112.699375 -97.26375 113.58625 -96.5625 114.5 C-88.71985934 124.1187681 -75.8495179 126.93258433 -64.046875 128.1953125 C-54.45602787 128.52376617 -41.10984194 127.53010301 -33.625 120.8125 C-32.89023438 120.04873047 -32.89023438 120.04873047 -32.140625 119.26953125 C-27.44024944 114.75087124 -20.39489649 112.43732262 -13.99609375 112.53125 C-5.88102584 113.49382807 1.46818022 117.69455382 8.375 121.8125 C9.50164062 122.42351562 10.62828125 123.03453125 11.7890625 123.6640625 C12.98504559 124.33735186 14.18036035 125.0118298 15.375 125.6875 C16.48875 126.30367187 17.6025 126.91984375 18.75 127.5546875 C21.375 129.8125 21.375 129.8125 22.41015625 133.31640625 C22.37309072 137.00236717 22.13830944 138.12949562 19.8125 140.875 C19.25949219 141.53628906 18.70648437 142.19757813 18.13671875 142.87890625 C17.26466797 143.83603516 17.26466797 143.83603516 16.375 144.8125 C15.82457031 145.41964844 15.27414062 146.02679687 14.70703125 146.65234375 C13.32588988 148.10168963 11.85638793 149.4657837 10.375 150.8125 C9.715 150.8125 9.055 150.8125 8.375 150.8125 C8.045 151.8025 7.715 152.7925 7.375 153.8125 C5.12824199 155.39739931 2.93111246 156.80903573 0.5625 158.1875 C-0.11603027 158.58670654 -0.79456055 158.98591309 -1.49365234 159.3972168 C-19.76804156 169.94112337 -39.10120382 174.24634506 -60.0625 174.1875 C-60.76032593 174.18728851 -61.45815186 174.18707703 -62.17712402 174.18685913 C-78.77640594 174.13687271 -94.59824122 172.31374146 -109.625 164.8125 C-110.30949219 164.50699219 -110.99398438 164.20148438 -111.69921875 163.88671875 C-120.25029764 159.94940656 -128.07902967 154.54676389 -134.625 147.8125 C-135.5325 147.131875 -136.44 146.45125 -137.375 145.75 C-155.11432044 131.10368928 -163.41177291 105.84005904 -165.625 83.8125 C-167.00863283 65.76511532 -162.65774665 49.68076248 -156.625 32.8125 C-155.965 32.8125 -155.305 32.8125 -154.625 32.8125 C-154.41875 32.008125 -154.2125 31.20375 -154 30.375 C-152.18411787 25.67021448 -149.55815609 21.89194698 -146.625 17.8125 C-146.07457031 17.04292969 -145.52414062 16.27335938 -144.95703125 15.48046875 C-129.57286285 -5.18430666 -104.21684442 -16.86438466 -79.26953125 -20.64453125 C-51.53807492 -24.2394597 -22.16178247 -17.45281532 0 0 Z M-94.8203125 35.76953125 C-99.2853856 40.65495642 -102.76475453 45.38377105 -102.8125 52.1875 C-102.750625 53.38375 -102.68875 54.58 -102.625 55.8125 C-94.11738279 56.94901043 -85.65988354 56.90761925 -77.09765625 56.796875 C-75.6169797 56.78014667 -74.1363024 56.76348526 -72.65562439 56.74688721 C-69.57364993 56.71066693 -66.49178488 56.66947572 -63.40991211 56.62548828 C-59.46014325 56.57011578 -55.51043642 56.53379459 -51.56041813 56.50185776 C-48.51226299 56.47403884 -45.46439032 56.43299734 -42.41644096 56.38825226 C-40.95923851 56.36907079 -39.5019633 56.3547677 -38.04466438 56.34545135 C-36.01538865 56.33115216 -33.98628768 56.29643024 -31.95727539 56.26074219 C-30.22713951 56.23956329 -30.22713951 56.23956329 -28.46205139 56.21795654 C-25.62940484 56.0345089 -25.62940484 56.0345089 -23.72532654 54.46026611 C-22.35728607 52.75272642 -22.35728607 52.75272642 -22.6875 50 C-25.26924456 41.22206849 -32.70050848 34.52719972 -40.55859375 30.1953125 C-57.93313319 22.55864887 -79.91407589 22.48123135 -94.8203125 35.76953125 Z " fill="#030303" transform="translate(1525.625,705.1875)"/>
<path d="M0 0 C2.38710873 0.00314635 4.77295667 -0.02033699 7.15991211 -0.0456543 C17.82282798 -0.08941812 27.79662212 1.11656669 38.22045898 3.31567383 C39.13190674 3.4994458 40.04335449 3.68321777 40.98242188 3.87255859 C43.04989501 4.30191744 45.10417708 4.76293827 47.15795898 5.25317383 C47.86122314 5.42010742 48.5644873 5.58704102 49.2890625 5.7590332 C54.85656114 7.12925755 59.98901498 9.00687542 65.22045898 11.31567383 C66.76131474 11.90114579 68.30301824 12.48439038 69.84545898 13.06567383 C85.59651241 19.43363417 100.31280826 28.25239273 115.1337738 36.49464417 C119.69663556 39.03043182 124.27472396 41.53724736 128.86132812 44.02978516 C133.3428443 46.47251989 137.80136704 48.95726066 142.25170898 51.45629883 C147.02597307 54.12846156 151.83409912 56.73444322 156.65795898 59.31567383 C157.25431152 59.63576416 157.85066406 59.95585449 158.46508789 60.28564453 C187.54060254 75.7938901 218.8075398 87.92561957 252.15014648 88.59692383 C253.61889695 88.63466615 255.08764694 88.67242709 256.55639648 88.71020508 C258.84087387 88.7640796 261.1253816 88.8163493 263.40991211 88.86791992 C265.63593819 88.91954478 267.86176986 88.9767637 270.08764648 89.03442383 C270.77406219 89.04799927 271.46047791 89.06157471 272.16769409 89.07556152 C276.9944984 89.20269354 276.9944984 89.20269354 279.22045898 90.31567383 C278.02436443 93.90395749 277.32696579 94.10680921 274.09545898 95.81567383 C273.35038086 96.21786133 272.60530273 96.62004883 271.83764648 97.03442383 C257.84064794 103.8866858 241.76426707 107.0958624 226.22045898 107.31567383 C225.35195313 107.3346875 224.48344727 107.35370117 223.58862305 107.37329102 C210.32225051 107.64367148 197.34170734 107.35089878 184.22045898 105.31567383 C183.43203613 105.19740234 182.64361328 105.07913086 181.83129883 104.95727539 C164.23410814 102.227575 146.51211253 97.57212993 130.22045898 90.31567383 C128.05788322 89.51289949 125.89080489 88.72219747 123.72045898 87.94067383 C115.17989802 84.79862237 106.79732017 81.273727 98.40795898 77.75317383 C97.74119141 77.47395081 97.07442383 77.19472778 96.38745117 76.90704346 C89.067482 73.83854655 81.78859991 70.70020588 74.57373047 67.39013672 C49.05939699 55.74073516 20.17032848 48.26738218 -7.77954102 54.31567383 C-8.80047852 54.53352539 -9.82141602 54.75137695 -10.87329102 54.97583008 C-17.21566284 56.44130235 -22.97785105 58.36727401 -28.77954102 61.31567383 C-29.51817383 61.68563477 -30.25680664 62.0555957 -31.01782227 62.43676758 C-41.39028067 67.90067054 -50.96783534 75.61799541 -57.65454102 85.31567383 C-58.35579102 86.30567383 -59.05704102 87.29567383 -59.77954102 88.31567383 C-60.43954102 88.31567383 -61.09954102 88.31567383 -61.77954102 88.31567383 C-62.03219727 89.01047852 -62.28485352 89.7052832 -62.54516602 90.42114258 C-63.94132437 93.69504557 -65.6842064 96.58480221 -67.52954102 99.62817383 C-71.97318378 107.17537743 -74.96462344 115.04864086 -77.77954102 123.31567383 C-78.02994141 124.01289551 -78.2803418 124.71011719 -78.53833008 125.4284668 C-80.5456792 131.14625559 -81.82078789 136.85936667 -82.90454102 142.81567383 C-83.0734082 143.70125977 -83.24227539 144.5868457 -83.41625977 145.49926758 C-84.21364377 149.77500384 -84.88936466 154.01945443 -85.33422852 158.34692383 C-85.77954102 162.31567383 -85.77954102 162.31567383 -86.77954102 164.31567383 C-86.87726913 166.54313722 -86.91031495 168.77356853 -86.91235352 171.00317383 C-86.91331024 171.66148193 -86.91426697 172.31979004 -86.91525269 172.99804688 C-86.91593326 174.39005631 -86.91408748 175.78206893 -86.90991211 177.17407227 C-86.90456206 179.30728266 -86.90986114 181.4402825 -86.91625977 183.57348633 C-86.91559896 184.92504929 -86.91431775 186.27661213 -86.91235352 187.62817383 C-86.91066162 189.47862305 -86.91066162 189.47862305 -86.90893555 191.36645508 C-86.98323905 194.24792713 -86.98323905 194.24792713 -85.77954102 196.31567383 C-85.45250252 198.38685619 -85.17134126 200.46535525 -84.91235352 202.54614258 C-84.75049561 203.81756104 -84.5886377 205.08897949 -84.421875 206.39892578 C-84.3375119 207.0700943 -84.2531488 207.74126282 -84.16622925 208.43276978 C-81.70910473 228.42014101 -81.70910473 228.42014101 -76.58007812 247.84619141 C-74.85171257 253.17782227 -73.51991444 258.63121057 -72.11743164 264.0559082 C-70.6599066 269.54373997 -68.89545242 274.73058311 -66.71875 279.97363281 C-65.35254878 283.38043508 -64.31409112 286.85955934 -63.27954102 290.37817383 C-61.74368038 295.4531916 -60.02776635 300.29442597 -57.76000977 305.08911133 C-55.40302116 310.44163526 -52.77954102 316.42478122 -52.77954102 322.31567383 C-52.11954102 322.31567383 -51.45954102 322.31567383 -50.77954102 322.31567383 C-50.54243408 322.94658936 -50.30532715 323.57750488 -50.06103516 324.22753906 C-48.99083489 327.07047978 -47.91649559 329.9118384 -46.84204102 332.75317383 C-46.46885742 333.74639648 -46.09567383 334.73961914 -45.71118164 335.76293945 C-45.3534668 336.70717773 -44.99575195 337.65141602 -44.62719727 338.62426758 C-44.29727783 339.49881592 -43.9673584 340.37336426 -43.62744141 341.27441406 C-42.94961785 343.27285135 -42.94961785 343.27285135 -41.77954102 344.31567383 C-41.6383894 346.98626234 -41.73706994 349.6399962 -41.77954102 352.31567383 C-43.42954102 352.64567383 -45.07954102 352.97567383 -46.77954102 353.31567383 C-47.61859667 352.19493521 -48.45061932 351.06892835 -49.27954102 349.94067383 C-49.74360352 349.31418945 -50.20766602 348.68770508 -50.68579102 348.04223633 C-51.77954102 346.31567383 -51.77954102 346.31567383 -51.77954102 344.31567383 C-52.43954102 344.31567383 -53.09954102 344.31567383 -53.77954102 344.31567383 C-55.06533401 342.47149655 -56.25628919 340.56098815 -57.40454102 338.62817383 C-58.11509478 337.44044418 -58.8260444 336.25295127 -59.53735352 335.06567383 C-59.90376953 334.44950195 -60.27018555 333.83333008 -60.64770508 333.19848633 C-61.77224803 331.32780573 -62.92246778 329.47593601 -64.08422852 327.62817383 C-64.63602783 326.74778442 -64.63602783 326.74778442 -65.19897461 325.84960938 C-66.23542317 324.19845736 -67.27308034 322.54806418 -68.31079102 320.89770508 C-69.77954102 318.31567383 -69.77954102 318.31567383 -69.77954102 316.31567383 C-70.43954102 316.31567383 -71.09954102 316.31567383 -71.77954102 316.31567383 C-72.16883789 315.58606445 -72.55813477 314.85645508 -72.95922852 314.10473633 C-73.51868164 313.0605957 -74.07813477 312.01645508 -74.65454102 310.94067383 C-75.11666992 310.07804932 -75.11666992 310.07804932 -75.58813477 309.19799805 C-77.43307447 305.7694851 -79.30921107 302.36148411 -81.22485352 298.97192383 C-85.91505512 290.66325739 -90.32361029 282.33791832 -94.25610352 273.64379883 C-95.58647139 270.7374567 -96.99536026 267.90200401 -98.46704102 265.06567383 C-104.77954102 252.58699005 -104.77954102 252.58699005 -104.77954102 246.31567383 C-105.43954102 246.31567383 -106.09954102 246.31567383 -106.77954102 246.31567383 C-106.97064453 245.68701416 -107.16174805 245.05835449 -107.35864258 244.41064453 C-107.92729611 242.5402808 -108.49625069 240.67000858 -109.06542969 238.79980469 C-109.71297518 236.66957844 -110.35894878 234.5388738 -111.00341797 232.40771484 C-112.59193132 227.16437821 -114.23238531 221.95017447 -115.96704102 216.75317383 C-120.09167834 203.37023039 -121.8685577 189.12654903 -123.38500977 175.23754883 C-123.60964988 172.3858676 -123.60964988 172.3858676 -124.77954102 170.31567383 C-126.04850857 162.38854317 -125.88424092 154.25633271 -125.90454102 146.25317383 C-125.9091333 145.24883301 -125.91372559 144.24449219 -125.91845703 143.2097168 C-125.88011553 124.41624835 -125.88011553 124.41624835 -123.77954102 122.31567383 C-123.45927241 120.77842199 -123.19177655 119.23009947 -122.94750977 117.67895508 C-122.71209473 116.2327478 -122.71209473 116.2327478 -122.47192383 114.75732422 C-122.22200684 113.20839478 -122.22200684 113.20839478 -121.96704102 111.62817383 C-120.46903386 102.62827518 -118.60988958 94.0024351 -115.77954102 85.31567383 C-115.11954102 85.31567383 -114.45954102 85.31567383 -113.77954102 85.31567383 C-113.67770508 84.4674707 -113.57586914 83.61926758 -113.47094727 82.74536133 C-112.70635595 78.95264282 -111.38799771 75.9247963 -109.71704102 72.44067383 C-109.16918945 71.28825195 -108.62133789 70.13583008 -108.05688477 68.94848633 C-107.63536133 68.0796582 -107.21383789 67.21083008 -106.77954102 66.31567383 C-106.11954102 66.31567383 -105.45954102 66.31567383 -104.77954102 66.31567383 C-104.55266602 65.49067383 -104.32579102 64.66567383 -104.09204102 63.81567383 C-102.53013044 59.65057897 -100.55103995 55.81557953 -97.77954102 52.31567383 C-97.11954102 52.31567383 -96.45954102 52.31567383 -95.77954102 52.31567383 C-95.53204102 51.60024414 -95.28454102 50.88481445 -95.02954102 50.14770508 C-93.64090507 47.00157676 -91.93490155 44.6775642 -89.77954102 42.00317383 C-89.07829102 41.12016602 -88.37704102 40.2371582 -87.65454102 39.32739258 C-87.03579102 38.66352539 -86.41704102 37.9996582 -85.77954102 37.31567383 C-85.11954102 37.31567383 -84.45954102 37.31567383 -83.77954102 37.31567383 C-83.55266602 36.73817383 -83.32579102 36.16067383 -83.09204102 35.56567383 C-81.43192463 32.71976002 -79.38766144 31.31725462 -76.77954102 29.31567383 C-76.05766602 28.55254883 -75.33579102 27.78942383 -74.59204102 27.00317383 C-70.66314863 23.24889888 -66.28585035 20.3338531 -61.77954102 17.31567383 C-61.1646582 16.88254883 -60.54977539 16.44942383 -59.91625977 16.00317383 C-42.02517782 3.94355318 -21.18675937 -0.05812849 0 0 Z " fill="#060606" transform="translate(499.779541015625,403.684326171875)"/>
<path d="M0 0 C2.57735756 2.73893502 4.99487022 5.5468935 7.3671875 8.46484375 C8.07875 9.33367188 8.7903125 10.2025 9.5234375 11.09765625 C18.84649807 23.68378802 23.45579018 40.34185874 23.57250977 55.85913086 C23.58240936 56.6813765 23.59230896 57.50362213 23.60250854 58.3507843 C23.63402876 61.06455657 23.65888626 63.77834534 23.68359375 66.4921875 C23.70421351 68.40149839 23.7252111 70.31080523 23.74656677 72.22010803 C23.79048898 76.23061808 23.8313923 80.24114308 23.86987305 84.25170898 C23.92811017 90.31955991 23.99402736 96.38731333 24.06054688 102.45507812 C24.15364063 111.00467237 24.23136863 119.55429878 24.29885292 128.1041317 C24.340398 133.1250161 24.40808686 138.14433311 24.49951172 143.16455078 C24.52712242 145.22428246 24.55464102 147.28401538 24.58203125 149.34375 C24.60552139 150.209431 24.62901154 151.075112 24.6532135 151.96702576 C24.71025647 158.01588049 23.76061627 162.57887776 19.78100586 167.37744141 C15.87125668 169.13874644 11.98358519 168.89173932 7.74609375 168.86328125 C6.80918198 168.86615143 5.8722702 168.86902161 4.90696716 168.87197876 C2.92747391 168.87401825 0.94796045 168.86849642 -1.03149414 168.85595703 C-4.05596192 168.83991984 -7.07908971 168.85580042 -10.10351562 168.875 C-12.02864878 168.8730172 -13.95378109 168.86917275 -15.87890625 168.86328125 C-16.78112411 168.86935394 -17.68334198 168.87542664 -18.61289978 168.88168335 C-23.41782817 168.8280761 -26.75718308 168.64035009 -30.6328125 165.46484375 C-32.33035086 162.06976702 -31.78613845 158.19951625 -31.79052734 154.46386719 C-31.79560806 153.53021332 -31.80068878 152.59655945 -31.80592346 151.63461304 C-31.81664515 149.6004506 -31.82525824 147.56627624 -31.83204269 145.53209686 C-31.84383125 142.30195482 -31.86328943 139.0719465 -31.88516235 135.84185791 C-31.94674175 126.65503471 -32.00060798 117.46822148 -32.03417969 108.28125 C-32.05526061 102.66373667 -32.09068231 97.04646118 -32.13493729 91.42908478 C-32.14900528 89.29713006 -32.15779869 87.1651332 -32.16099167 85.03313446 C-32.19189637 66.35448156 -32.90477298 48.87037676 -46.30859375 34.4453125 C-54.67519519 27.31612438 -64.99311323 25.63573559 -75.62841797 26.24267578 C-84.64832596 27.24244634 -92.69884959 31.71614909 -98.6328125 38.46484375 C-107.00661492 48.94673629 -109.76708931 59.77899531 -109.80639648 72.95507812 C-109.8130835 73.89241287 -109.81977051 74.82974762 -109.82666016 75.79548645 C-109.84066911 77.82359033 -109.85257623 79.85170959 -109.86260796 81.87983704 C-109.87907392 85.09129461 -109.90231248 88.30263781 -109.92750549 91.51403809 C-109.99813845 100.64227569 -110.05844016 109.77055867 -110.10961914 118.89892578 C-110.14143152 124.48855059 -110.18270675 130.07804095 -110.22981453 135.66755676 C-110.24581337 137.79496341 -110.2581447 139.92240095 -110.26672173 142.04985046 C-110.27889283 145.02490893 -110.30304883 147.99965166 -110.32983398 150.97460938 C-110.33042313 151.85063309 -110.33101227 152.7266568 -110.33161926 153.62922668 C-110.38696248 158.27470179 -110.73297941 162.13685121 -112.6328125 166.46484375 C-116.89831623 170.36697446 -121.88092625 169.93236819 -127.3515625 169.93359375 C-128.28705933 169.94120728 -129.22255615 169.9488208 -130.18640137 169.95666504 C-132.15988501 169.9674473 -134.13342564 169.97032677 -136.10693359 169.96582031 C-139.1230377 169.9648469 -142.136606 170.00651173 -145.15234375 170.05078125 C-147.07291137 170.05598778 -148.99348782 170.05867645 -150.9140625 170.05859375 C-151.81314331 170.07498901 -152.71222412 170.09138428 -153.6385498 170.10827637 C-158.0720126 170.05941754 -160.0369645 169.9123986 -163.67773438 167.17773438 C-166.89772276 162.7096386 -166.7613195 158.99170826 -166.77998352 153.5458374 C-166.78366021 152.84977678 -166.7873369 152.15371615 -166.791125 151.43656278 C-166.80213673 149.10451091 -166.80600139 146.77250364 -166.80981445 144.44042969 C-166.81608097 142.76811075 -166.82272793 141.0957932 -166.82972717 139.42347717 C-166.85074635 133.93206752 -166.86112705 128.44065766 -166.87109375 122.94921875 C-166.875142 121.05738561 -166.87925895 119.16555263 -166.88344383 117.27371979 C-166.90249021 108.38582145 -166.91672282 99.4979314 -166.9250558 90.61001658 C-166.93482876 80.3560674 -166.96115214 70.10233405 -167.00155669 59.84846091 C-167.031729 51.91880732 -167.04652571 43.98921557 -167.04983681 36.0595057 C-167.05218587 31.32521499 -167.06112773 26.59115501 -167.08629799 21.85692596 C-167.10960346 17.40156446 -167.11380204 12.94658521 -167.10353661 8.49117851 C-167.10304175 6.85938939 -167.10934742 5.22758129 -167.12309265 3.59584999 C-167.24734425 -12.03348726 -167.24734425 -12.03348726 -162.6328125 -18.53515625 C-155.46432545 -23.21013725 -145.60306323 -21.79472452 -137.42041016 -21.49902344 C-134.87541622 -21.40989723 -132.33113379 -21.35366942 -129.78515625 -21.30078125 C-128.15619187 -21.25325428 -126.52728119 -21.20384125 -124.8984375 -21.15234375 C-123.76550262 -21.12864212 -123.76550262 -21.12864212 -122.60968018 -21.10446167 C-118.1591603 -20.92003672 -115.16942624 -20.29839701 -111.6328125 -17.53515625 C-109.8298667 -14.18682834 -109.6328125 -12.42034364 -109.6328125 -8.53515625 C-108.6634375 -9.05464844 -107.6940625 -9.57414063 -106.6953125 -10.109375 C-71.61888427 -28.50165843 -30.00401119 -28.89110277 0 0 Z " fill="#020202" transform="translate(1755.6328125,707.53515625)"/>
<path d="M0 0 C0.90258545 -0.00966797 1.8051709 -0.01933594 2.73510742 -0.02929688 C8.30391968 0.04043505 12.50658014 0.51939975 17.3125 3.4375 C20.94792444 8.78640942 20.73797842 13.86758863 20.71875 20.09375 C20.72958618 21.11424438 20.74042236 22.13473877 20.75158691 23.18615723 C20.79731543 27.53535488 20.8089125 31.88449185 20.82373047 36.23388672 C20.83945088 39.41655532 20.87245622 42.59873023 20.90625 45.78125 C20.90322876 46.75952759 20.90020752 47.73780518 20.89709473 48.74572754 C20.95526214 54.04498712 21.28433082 57.88098411 24.3125 62.4375 C28.5559042 65.13073071 33.55465749 64.79753828 38.4375 64.9375 C59.18931081 65.83090113 59.18931081 65.83090113 65.3125 72.4375 C66.95851837 77.3755551 66.53759381 82.49766838 66.55273438 87.66943359 C66.5623982 89.66646305 66.59358516 91.66335052 66.625 93.66015625 C66.67471978 105.92851079 66.67471978 105.92851079 63.3125 111.4375 C57.28182119 116.4193651 51.61166865 116.54724427 44.0625 116.875 C33.575529 116.96762726 33.575529 116.96762726 24.375 121.0625 C20.9683297 128.67741009 21.01866756 136.16844694 21.046875 144.37109375 C21.04496155 145.60360367 21.0430481 146.83611359 21.04107666 148.10597229 C21.03971999 150.70386968 21.04338014 153.30177397 21.05175781 155.8996582 C21.06245512 159.85839195 21.05184922 163.81667098 21.0390625 167.77539062 C21.04038436 170.30729266 21.04294732 172.83919442 21.046875 175.37109375 C21.04282654 176.54635117 21.03877808 177.72160858 21.03460693 178.93247986 C21.08518665 187.87559528 21.50639694 195.5870628 26.80078125 203.02734375 C30.45539362 206.43642661 34.5074869 206.69106893 39.3125 206.625 C40.44429687 206.60953125 41.57609375 206.5940625 42.7421875 206.578125 C47.38914139 206.39509399 52.0054323 206.01680621 56.6328125 205.55859375 C59.3125 205.4375 59.3125 205.4375 62.3125 206.4375 C64.64068485 213.01210838 64.58199439 219.39907789 64.5 226.3125 C64.4990332 227.84970703 64.4990332 227.84970703 64.49804688 229.41796875 C64.39254841 247.86847738 64.39254841 247.86847738 60.5625 251.8125 C53.4912128 256.95923069 43.90774193 258.86448387 35.3125 259.4375 C34.36117188 259.51484375 34.36117188 259.51484375 33.390625 259.59375 C14.40688638 260.45015926 -5.22077565 252.63014387 -19.2890625 240.125 C-34.62147181 224.10763769 -37.12752774 206.17364101 -37.12890625 184.93359375 C-37.14072054 183.31412083 -37.15409438 181.69465863 -37.16893005 180.07521057 C-37.20467505 175.86458111 -37.22519194 171.65404684 -37.24047852 167.44329834 C-37.26556913 160.67542785 -37.30520917 153.90776714 -37.36237907 147.14009285 C-37.37857397 144.79422526 -37.38247066 142.44856216 -37.38539124 140.10264587 C-37.39517042 138.65884045 -37.40543418 137.21503819 -37.41625977 135.77124023 C-37.42267235 133.8950425 -37.42267235 133.8950425 -37.42921448 131.98094177 C-37.70687855 128.17164396 -38.32577553 125.00783192 -39.6875 121.4375 C-44.085794 119.238353 -48.28916026 118.48242982 -53.109375 117.73828125 C-53.90150391 117.61485352 -54.69363281 117.49142578 -55.50976562 117.36425781 C-57.10474082 117.12494737 -58.70254409 116.90365877 -60.30273438 116.70214844 C-65.16318095 116.01167298 -68.10217611 115.0436688 -71.6875 111.4375 C-73.27756531 108.25736937 -72.87167077 104.81779343 -72.890625 101.32421875 C-72.89632507 100.51765335 -72.90202515 99.71108795 -72.90789795 98.88008118 C-72.91735195 97.17112542 -72.92388352 95.4621514 -72.92773438 93.75317383 C-72.9374232 91.14566959 -72.968435 88.53895922 -73 85.93164062 C-73.00653185 84.27083801 -73.01178161 82.61002976 -73.015625 80.94921875 C-73.0279718 80.17196945 -73.0403186 79.39472015 -73.05303955 78.59391785 C-73.02912983 72.74666611 -71.78134446 69.53134446 -67.6875 65.4375 C-65.16848831 65.23150605 -62.70973113 65.11914381 -60.1875 65.0625 C-53.66227398 64.77247372 -47.18843674 64.32866649 -41.6875 60.4375 C-38.36597487 56.11891957 -37.0471882 52.70499812 -36.23046875 47.34375 C-36.00235087 45.96868396 -35.77382136 44.59368615 -35.54492188 43.21875 C-35.208405 41.09225489 -34.87913233 38.96501053 -34.55932617 36.8359375 C-32.98078046 26.51681392 -30.62399605 17.22091949 -24.6875 8.4375 C-22.46557617 7.05664062 -22.46557617 7.05664062 -20.6875 6.4375 C-20.6875 5.7775 -20.6875 5.1175 -20.6875 4.4375 C-14.07464557 0.44483318 -7.52987895 0.02612047 0 0 Z " fill="#030303" transform="translate(1871.6875,621.5625)"/>
<path d="M0 0 C0.82310165 -0.00570007 1.64620331 -0.01140015 2.49424744 -0.01727295 C4.22637665 -0.02667816 5.9585234 -0.03323901 7.69067383 -0.03710938 C10.33511309 -0.04685756 12.97878819 -0.07793959 15.62304688 -0.109375 C17.31119333 -0.1159021 18.99934531 -0.12115372 20.6875 -0.125 C21.86736229 -0.1435202 21.86736229 -0.1435202 23.07106018 -0.16241455 C27.64743222 -0.14388106 30.7079154 0.24675525 34.27734375 3.203125 C36.52544094 6.64918777 36.54837754 9.63097541 36.59222412 13.68835449 C36.6018703 14.33882201 36.61151647 14.98928952 36.62145495 15.65946817 C36.65127664 17.84003226 36.6669908 20.02046319 36.68261719 22.20117188 C36.70077994 23.76714978 36.71972861 25.33311873 36.73940277 26.89907837 C36.79029679 31.17430071 36.82829494 35.44955109 36.86351109 39.7249279 C36.89471271 43.3508479 36.93275049 46.97668482 36.97051215 50.60254145 C37.34762357 87.09849088 37.49629276 123.59652618 37.51476288 160.09429932 C37.51569142 161.92842611 37.51662985 163.7625529 37.51757812 165.59667969 C37.5182808 166.96086218 37.5182808 166.96086218 37.51899767 168.35260391 C37.52413562 175.92710249 37.54449928 183.50151559 37.56723905 191.07597876 C37.58882931 198.53501841 37.59893904 205.99401868 37.60027957 213.45308924 C37.60131675 217.84025831 37.60700636 222.22729093 37.62509918 226.61442566 C37.64156397 230.67351597 37.64374366 234.73236537 37.63496017 238.7914772 C37.63419278 240.26809972 37.63849308 241.74473556 37.64841843 243.22132492 C37.74488629 258.46189073 37.74488629 258.46189073 34.27734375 265.203125 C31.19578708 268.28468167 28.37431154 269.15851148 24.01171875 269.3359375 C-8.91878589 269.27136788 -8.91878589 269.27136788 -15.40625 263.77734375 C-28.03701645 249.35751689 -20.86768572 206.10410703 -20.85698175 187.68953705 C-20.85441906 181.89019221 -20.85680618 176.09084882 -20.85836792 170.29150391 C-20.86017718 160.5685192 -20.85781495 150.84554214 -20.85302734 141.12255859 C-20.84757484 129.92067575 -20.84935957 118.71881108 -20.85485375 107.51692867 C-20.85940584 97.84408635 -20.86002556 88.17124946 -20.85741508 78.49840641 C-20.85586539 72.74479436 -20.85562261 66.99119083 -20.85895157 61.23757935 C-20.86186133 55.83321476 -20.8597981 50.42887344 -20.85405731 45.02451134 C-20.85274679 43.05421678 -20.85309439 41.08392022 -20.85531998 39.11362648 C-20.86143837 33.14215596 -20.81880018 27.17380017 -20.72265625 21.203125 C-20.714838 20.41882362 -20.70701976 19.63452225 -20.6989646 18.82645416 C-20.66855051 16.60023337 -20.60375012 14.37788214 -20.52706909 12.15283203 C-20.49343199 10.90196808 -20.45979488 9.65110413 -20.42513847 8.36233521 C-19.72265625 5.203125 -19.72265625 5.203125 -17.34533882 2.81484985 C-12.05831626 -0.43419971 -6.02619931 0.03264367 0 0 Z " fill="#040404" transform="translate(2213.72265625,607.796875)"/>
<path d="M0 0 C0.66 0.33 1.32 0.66 2 1 C-5.26 8.26 -12.52 15.52 -20 23 C-20.66 22.67 -21.32 22.34 -22 22 C-21.04882866 20.8274869 -20.08882991 19.66212985 -19.125 18.5 C-18.59132813 17.8503125 -18.05765625 17.200625 -17.5078125 16.53125 C-17.01023437 16.0259375 -16.51265625 15.520625 -16 15 C-15.34 15 -14.68 15 -14 15 C-13.773125 14.4225 -13.54625 13.845 -13.3125 13.25 C-11.67083893 10.43572387 -9.56440947 8.97262267 -7 7 C-6.67 6.34 -6.34 5.68 -6 5 C-5.34 5 -4.68 5 -4 5 C-4 4.34 -4 3.68 -4 3 C-2 1.375 -2 1.375 0 0 Z " fill="#505050" transform="translate(598,700)"/>
<path d="M0 0 C0.66 0.33 1.32 0.66 2 1 C-3.94 6.94 -9.88 12.88 -16 19 C-16.66 18.67 -17.32 18.34 -18 18 C-16.71937515 16.2925002 -15.38232443 14.62626404 -14 13 C-13.34 13 -12.68 13 -12 13 C-11.773125 12.4225 -11.54625 11.845 -11.3125 11.25 C-9.65238361 8.40408619 -7.60812043 7.00158079 -5 5 C-3.31471312 3.35216394 -1.64302953 1.68997323 0 0 Z " fill="#4E4E4E" transform="translate(428,428)"/>
<path d="M0 0 C0.66 0.33 1.32 0.66 2 1 C-1.96 4.96 -5.92 8.92 -10 13 C-10.66 12.67 -11.32 12.34 -12 12 C-8 8 -4 4 0 0 Z " fill="#676767" transform="translate(1395,706)"/>
<path d="M0 0 C0.66 0.33 1.32 0.66 2 1 C0.88121617 2.17262904 -0.24523051 3.33795138 -1.375 4.5 C-2.00148438 5.1496875 -2.62796875 5.799375 -3.2734375 6.46875 C-5 8 -5 8 -7 8 C-7 7.34 -7 6.68 -7 6 C-5.46875 4.4921875 -5.46875 4.4921875 -3.5 2.875 C-2.8503125 2.33617187 -2.200625 1.79734375 -1.53125 1.2421875 C-1.0259375 0.83226562 -0.520625 0.42234375 0 0 Z " fill="#3D3D3D" transform="translate(2538,795)"/>
</svg>
