<?xml version="1.0" encoding="UTF-8"?>
<svg version="1.1" xmlns="http://www.w3.org/2000/svg" width="1902" height="827">
<path d="M0 0 C627.66 0 1255.32 0 1902 0 C1902 272.91 1902 545.82 1902 827 C1274.34 827 646.68 827 0 827 C0 554.09 0 281.18 0 0 Z " fill="#FDFDFD" transform="translate(0,0)"/>
<path d="M0 0 C94.46758632 0 94.46758632 0 118.2734375 23.1171875 C133.3737211 39.08281687 138.49294127 60.49811327 138.14453125 81.8203125 C137.52504068 103.62839523 129.69335455 123.81560199 113.79296875 139.125 C81.8236873 166.26972985 39.86790667 158 0 158 C0 105.86 0 53.72 0 0 Z " fill="#172648" transform="translate(653,361)"/>
<path d="M0 0 C1.60294922 0.56074219 1.60294922 0.56074219 3.23828125 1.1328125 C22.32798192 8.45821225 37.45305869 23.83622858 45.74316406 42.37939453 C54.04188201 62.01306795 53.45917381 86.23153629 45.84472656 106.08789062 C38.49379929 123.81509789 23.77520822 139.46048875 6.17578125 147.25 C3.46046651 148.28007756 0.79385282 149.20552164 -2 150 C-2.62318115 150.17805176 -3.2463623 150.35610352 -3.88842773 150.53955078 C-10.52628651 152.2411013 -16.98942001 152.29752 -23.8125 152.25 C-25.46088867 152.26160156 -25.46088867 152.26160156 -27.14257812 152.2734375 C-37.46081329 152.24911638 -47.4648573 151.31527342 -56.9375 147 C-57.60789307 146.69876221 -58.27828613 146.39752441 -58.96899414 146.0871582 C-75.41724413 138.31965859 -89.42239382 124.0120223 -96 107 C-96.93730031 104.30982207 -97.7908911 101.59872596 -98.625 98.875 C-98.8415625 98.18535156 -99.058125 97.49570312 -99.28125 96.78515625 C-105.58084286 76.44758176 -102.92340358 54.43496062 -93.27099609 35.66186523 C-83.07993933 16.962785 -66.61128789 4.55130646 -46.50537109 -1.54199219 C-31.1398915 -5.94558557 -15.01783318 -5.28821283 0 0 Z " fill="#0470F1" transform="translate(1643,367)"/>
<path d="M0 0 C19.76489284 -0.55984302 39.17275351 5.04731577 53.76342773 18.71777344 C62.81130666 27.61596591 68.05978056 38.27339807 72.046875 50.16015625 C72.38847656 51.17722656 72.73007812 52.19429688 73.08203125 53.2421875 C77.63974745 70.09513809 76.6697961 90.44117092 72.046875 107.16015625 C71.61452275 108.91210495 71.18507276 110.66477128 70.7578125 112.41796875 C68.37158719 121.95467274 65.63644125 130.83822466 61.23828125 139.6640625 C58.39274629 145.39237403 55.84622313 151.25664341 53.28860474 157.11743164 C52.4508554 159.03144449 51.60251343 160.94050086 50.75366211 162.84960938 C43.79575372 178.66993841 39.68648243 195.09935468 35.609375 211.84765625 C23.14178368 262.9758926 23.14178368 262.9758926 14.19921875 283.4609375 C13.01878752 286.2259476 11.98873801 289.01433647 10.984375 291.84765625 C9.52352226 295.93687054 7.91208943 299.90328702 6.09838867 303.84814453 C5.43252687 305.31220566 4.77925693 306.78211511 4.14355469 308.25952148 C1.84971385 313.58416312 -0.74926213 318.61106477 -3.703125 323.59765625 C-4.35837158 324.70560547 -4.35837158 324.70560547 -5.02685547 325.8359375 C-8.55180191 331.69158623 -12.44598646 337.01564458 -16.953125 342.16015625 C-17.62214844 342.96066406 -18.29117188 343.76117187 -18.98046875 344.5859375 C-22.90015566 349.18272964 -26.73893837 353.07519665 -31.953125 356.16015625 C-32.943125 356.75828125 -33.933125 357.35640625 -34.953125 357.97265625 C-41.41611481 360.50802413 -49.99363715 360.457955 -56.52734375 358.31640625 C-63.48749745 354.39220531 -66.82049174 347.60645138 -68.953125 340.16015625 C-69.36925461 337.47843209 -69.70019635 334.8571049 -69.953125 332.16015625 C-70.03506104 331.32983887 -70.11699707 330.49952148 -70.20141602 329.64404297 C-70.98557652 321.0414952 -71.35992673 312.4212001 -71.77044678 303.79489136 C-71.88850569 267.59301005 -71.88850569 267.59301005 -86.828125 236.27734375 C-88.49434038 234.83284251 -90.17673246 233.4655744 -91.953125 232.16015625 C-91.293125 231.83015625 -90.633125 231.50015625 -89.953125 231.16015625 C-68.59113453 246.3077495 -62.6240326 268.29391064 -58.328125 293.03515625 C-56.35197452 310.64581218 -56.35197452 310.64581218 -47.953125 325.16015625 C-44.42927331 326.01074114 -43.26705738 326.22879997 -39.953125 325.16015625 C-28.9195889 317.76993176 -22.60870065 306.21860719 -17.140625 294.47265625 C-16.66431641 293.47943359 -16.18800781 292.48621094 -15.69726562 291.46289062 C-13.31422563 286.41862172 -11.29238022 281.59353816 -9.953125 276.16015625 C-9.4141256 274.11552504 -8.8735845 272.07130001 -8.33203125 270.02734375 C-7.72562915 267.69685725 -7.12018685 265.36612082 -6.515625 263.03515625 C-6.21591797 261.88789063 -5.91621094 260.740625 -5.60742188 259.55859375 C-4.70859178 256.09585569 -3.82663789 252.62936277 -2.953125 249.16015625 C-2.53268921 247.51092163 -2.53268921 247.51092163 -2.10375977 245.82836914 C-0.31194552 238.50508802 0.70005991 231.36238134 1.234375 223.84765625 C1.31623047 222.80931641 1.39808594 221.77097656 1.48242188 220.70117188 C1.67930385 218.18803139 1.8673878 215.67458819 2.046875 213.16015625 C0.96148437 213.43730469 -0.12390625 213.71445312 -1.2421875 214 C-2.68746781 214.36601255 -4.13278212 214.73189085 -5.578125 215.09765625 C-6.29097656 215.28005859 -7.00382812 215.46246094 -7.73828125 215.65039062 C-28.39256877 220.86133472 -48.31139776 219.11807851 -66.94921875 208.58984375 C-68.953125 207.16015625 -68.953125 207.16015625 -70.953125 204.16015625 C-70.40487061 203.91894043 -69.85661621 203.67772461 -69.29174805 203.42919922 C-42.706795 191.69734396 -20.02156211 177.20233712 1.046875 157.16015625 C1.80226563 156.46921875 2.55765625 155.77828125 3.3359375 155.06640625 C26.4852514 133.1797822 44.48267188 100.29189636 45.39013672 68.04199219 C45.54984794 55.11275455 43.03673468 44.90256074 34.046875 35.16015625 C19.24475414 20.4405751 5.04522768 17.88187244 -15.25292969 17.91577148 C-35.92602151 18.14503961 -54.4074564 24.57477522 -73.45703125 32.21484375 C-75.61689298 33.03281955 -77.70139972 33.6621276 -79.953125 34.16015625 C-63.9778363 16.22523214 -29.17610072 2.03178339 -5.59375 0.2890625 C-3.72889943 0.1980269 -1.8643316 0.10110793 0 0 Z " fill="#026AEF" transform="translate(487.953125,234.83984375)"/>
<path d="M0 0 C0.99 0.99 0.99 0.99 2 2 C2.33 -1.3 2.66 -4.6 3 -8 C13.23 -8 23.46 -8 34 -8 C34 28.63 34 65.26 34 103 C23.77 103 13.54 103 3 103 C3 99.37 3 95.74 3 92 C1.88625 92.886875 0.7725 93.77375 -0.375 94.6875 C-8.20933824 100.50808228 -15.19708539 103.80156043 -25 104 C-26.88138672 104.07541016 -26.88138672 104.07541016 -28.80078125 104.15234375 C-44.15737889 104.60869807 -56.43451318 100.86734575 -68.25 90.75 C-79.89822941 79.74889445 -86.78240988 65.91451557 -87.40673828 49.85375977 C-87.64120327 33.34258646 -82.59686118 18.26064978 -71.21484375 6.0703125 C-67.46583486 2.56594793 -63.33437685 -0.27068603 -59 -3 C-58.22527344 -3.51433594 -57.45054688 -4.02867187 -56.65234375 -4.55859375 C-38.35764711 -14.50077794 -16.32482496 -11.76180965 0 0 Z " fill="#162648" transform="translate(1248,416)"/>
<path d="M0 0 C0.33 0 0.66 0 1 0 C1.23195843 5.90499887 0.57348853 10.68896893 -1.1875 16.3125 C-1.53131714 17.42987549 -1.53131714 17.42987549 -1.88208008 18.56982422 C-11.60503607 49.36974725 -36.27126943 73.66615686 -62 92 C-62.83031738 92.59474121 -63.66063477 93.18948242 -64.51611328 93.80224609 C-79.87087659 104.76665473 -79.87087659 104.76665473 -87.625 109.5 C-92.79572727 112.71112044 -97.56921763 116.39982474 -102.375 120.125 C-103.14924316 120.72376953 -103.92348633 121.32253906 -104.72119141 121.93945312 C-107.94911491 124.46999878 -111.06769622 126.97088247 -113.9140625 129.9296875 C-116 132 -116 132 -118 132 C-118.25652344 132.59039062 -118.51304687 133.18078125 -118.77734375 133.7890625 C-120.1116579 136.20191173 -121.51229854 137.54431506 -123.5625 139.375 C-142.98971748 158.30770649 -150.85381029 187.97857028 -151.34179688 214.29150391 C-151.45993477 228.15359566 -150.47915366 241.14280285 -147.77880859 254.76245117 C-145.58039383 265.9793807 -143.48825096 278.72345776 -150.20703125 288.8125 C-152.86240483 292.14976709 -155.25838629 294.75157162 -159.6015625 295.37109375 C-170.06227714 295.60085105 -176.4370148 292.07709509 -184 285 C-211.55574903 252.1997697 -228.57581316 195.42573894 -227 153 C-225.10930947 155.8360358 -224.13060921 158.1468993 -223.01171875 161.33984375 C-222.44614258 162.93602539 -222.44614258 162.93602539 -221.86914062 164.56445312 C-221.28422852 166.23411133 -221.28422852 166.23411133 -220.6875 167.9375 C-217.71337337 176.41401423 -214.52311859 184.73633046 -211 193 C-210.44300237 194.34593744 -209.88687336 195.69223504 -209.33203125 197.0390625 C-205.17773051 206.84278507 -200.26047916 216.05280536 -194.92041016 225.26098633 C-194 227 -194 227 -193 230 C-192.34 230 -191.68 230 -191 230 C-191.01571045 229.33170166 -191.0314209 228.66340332 -191.04760742 227.97485352 C-191.79438178 191.24426812 -182.31498234 157.10335769 -156.61328125 129.71484375 C-155.75089844 128.81894531 -154.88851562 127.92304688 -154 127 C-153.48228027 126.44586426 -152.96456055 125.89172852 -152.43115234 125.32080078 C-133.92990191 105.5553248 -111.25473902 92.49298266 -87.73880005 79.52908325 C-73.66219827 71.76595395 -59.7387214 63.85563999 -47 54 C-46.18660156 53.37867188 -45.37320313 52.75734375 -44.53515625 52.1171875 C-26.00747278 37.65798429 -10.80263622 20.97985666 0 0 Z " fill="#0A2045" transform="translate(498,299)"/>
<path d="M0 0 C1.75183594 0.63615234 1.75183594 0.63615234 3.5390625 1.28515625 C17.4529323 6.72641906 30.09714279 16.15785703 38 29 C36.24899781 34.25300657 30.72429907 36.33734961 26.1875 39.1875 C25.17623047 39.84169922 24.16496094 40.49589844 23.12304688 41.16992188 C22.14787109 41.78802734 21.17269531 42.40613281 20.16796875 43.04296875 C19.27360107 43.61039795 18.3792334 44.17782715 17.45776367 44.76245117 C15 46 15 46 11 46 C9.6484375 44.4609375 9.6484375 44.4609375 8.375 42.375 C4.77831922 37.27294155 0.53425136 34.73476164 -5 32 C-5.79921875 31.58492188 -6.5984375 31.16984375 -7.421875 30.7421875 C-17.45781407 26.28523319 -30.796596 26.17585753 -41.1875 29.625 C-52.42617434 34.57557525 -61.41136935 43.41957171 -66.12890625 54.69921875 C-70.97496334 68.15673619 -70.75011108 82.85436143 -65 96 C-63.21824284 99.50981753 -61.24309888 102.76781816 -59 106 C-58.2575 107.0725 -57.515 108.145 -56.75 109.25 C-49.24053463 116.75946537 -39.3455984 121.32047424 -28.7434082 121.46826172 C-27.8999585 121.45811035 -27.05650879 121.44795898 -26.1875 121.4375 C-25.30602295 121.42992676 -24.4245459 121.42235352 -23.51635742 121.41455078 C-16.72561216 121.2430768 -11.03577594 120.27277716 -5 117 C-4.21625 116.57589844 -3.4325 116.15179688 -2.625 115.71484375 C3.32036612 112.10946126 7.63168437 107.35624532 12 102 C16.92869957 103.62685591 20.80649266 106.47032276 25 109.4375 C31.37260626 113.91355751 31.37260626 113.91355751 38 118 C34.79754991 128.25546517 23.13982606 137.97687246 14 143 C1.44926705 149.26220367 -9.18130302 152.34332656 -23.3125 152.25 C-24.47201172 152.25773438 -25.63152344 152.26546875 -26.82617188 152.2734375 C-46.40830628 152.22940797 -63.20791605 145.98066829 -77.55859375 132.4609375 C-95.23090309 114.64724969 -101.31752396 95.04347652 -101.38500977 70.48193359 C-101.14290755 50.98027332 -94.00406783 34.61074803 -81 20 C-80.06027344 18.93652344 -80.06027344 18.93652344 -79.1015625 17.8515625 C-59.54209649 -2.98525639 -26.50926977 -10.30202857 0 0 Z " fill="#0470F1" transform="translate(1497,367)"/>
<path d="M0 0 C12.06318587 9.1726995 17.51533974 20.31714704 20.9453125 34.89453125 C20.9453125 41.49453125 20.9453125 48.09453125 20.9453125 54.89453125 C-7.4346875 54.89453125 -35.8146875 54.89453125 -65.0546875 54.89453125 C-59.57255758 67.04861073 -59.57255758 67.04861073 -49.69140625 73.9140625 C-39.70786771 77.15316611 -28.93389881 77.75288609 -19.3671875 73.14453125 C-16.39497739 71.51659874 -14.26942077 70.12819972 -11.97265625 67.62890625 C-11.33972656 67.0565625 -10.70679688 66.48421875 -10.0546875 65.89453125 C-6.76378182 66.31917847 -4.15910365 67.79783763 -1.2890625 69.3984375 C-0.39960937 69.89150391 0.48984375 70.38457031 1.40625 70.89257812 C2.32664062 71.40884766 3.24703125 71.92511719 4.1953125 72.45703125 C5.13117188 72.97716797 6.06703125 73.49730469 7.03125 74.03320312 C9.33827552 75.31619181 11.64282331 76.60342471 13.9453125 77.89453125 C8.23558776 89.79828774 -2.62280115 95.05708403 -14.34375 99.73046875 C-30.05998528 104.66040361 -50.01951645 103.18450333 -64.9375 96.55859375 C-80.32068456 88.34651778 -89.52460766 76.14886625 -94.80078125 59.546875 C-98.6073728 44.24175174 -96.29925371 29.49817942 -88.9296875 15.76953125 C-80.14589557 1.47250821 -66.88967721 -7.42750494 -50.8359375 -11.6953125 C-31.49869008 -14.54701331 -15.88498697 -10.94885931 0 0 Z " fill="#182748" transform="translate(904.0546875,418.10546875)"/>
<path d="M0 0 C10.90709874 7.36966131 18.44627304 16.94951085 21.390625 29.98046875 C22.77605962 37.20862662 22.56075474 44.49420963 22.5078125 51.8203125 C22.50407458 53.35301528 22.5012313 54.88572047 22.49923706 56.41842651 C22.49166183 60.41982821 22.47206714 64.42108084 22.4498291 68.42242432 C22.42560675 73.24087444 22.41656054 78.05937486 22.40492249 82.87786865 C22.38563814 90.16868224 22.34727343 97.45916984 22.3125 104.75 C12.0825 104.75 1.8525 104.75 -8.6875 104.75 C-8.74357422 97.97662109 -8.74357422 97.97662109 -8.80078125 91.06640625 C-8.83108861 88.19071842 -8.86225436 85.31509042 -8.89648438 82.43945312 C-8.95063027 77.88390265 -9.00174627 73.32847052 -9.03393555 68.77270508 C-9.06011308 65.09610051 -9.10061483 61.41989765 -9.15068626 57.74354362 C-9.16725805 56.34711678 -9.17883225 54.95062061 -9.18511391 53.55410957 C-9.2368826 43.09467831 -9.6977799 34.09474959 -17.07421875 26.1875 C-22.35584653 21.48135224 -28.51016687 20.42029351 -35.32421875 20.54296875 C-42.12180853 21.13846009 -46.7794686 24.25263508 -51.92578125 28.54296875 C-57.85534199 35.97135416 -57.16015164 44.9687982 -57.19921875 53.96875 C-57.21608811 55.43706746 -57.23424135 56.90537069 -57.25361633 58.37365723 C-57.30087805 62.21386259 -57.33084065 66.05401018 -57.35705566 69.89440918 C-57.39225606 74.51523994 -57.44920016 79.13584899 -57.50244904 83.75650024 C-57.58068329 90.75430431 -57.63149914 97.75182375 -57.6875 104.75 C-67.9175 104.75 -78.1475 104.75 -88.6875 104.75 C-88.6875 68.45 -88.6875 32.15 -88.6875 -5.25 C-78.4575 -5.25 -68.2275 -5.25 -57.6875 -5.25 C-57.3575 -1.95 -57.0275 1.35 -56.6875 4.75 C-55.553125 3.6775 -54.41875 2.605 -53.25 1.5 C-38.14331296 -11.75524582 -16.27390733 -9.70217941 0 0 Z " fill="#162648" transform="translate(1032.6875,413.25)"/>
<path d="M0 0 C1.64102418 0.63752019 3.28588556 1.26544107 4.9375 1.875 C8.40796395 3.24806405 11.53409904 4.82526539 14.7109375 6.78125 C44.75311596 25.08034937 74.30455653 43.04469678 110.375 43.6875 C111.70836394 43.72080161 113.04169848 43.75530219 114.375 43.79101562 C117.58324813 43.87238424 120.79126106 43.94188696 124 44 C120.16493153 47.83506847 114.10839103 48.52348831 109 50 C108.11441406 50.30550781 107.22882813 50.61101562 106.31640625 50.92578125 C91.1739727 55.67326042 73.1268927 54.00264859 58 50 C56.84371094 49.73316406 55.68742188 49.46632813 54.49609375 49.19140625 C36.36598315 44.79089397 19.21659563 36.9291958 2.12109375 29.61328125 C-2.07895863 27.81820603 -6.27975526 26.02513139 -10.48828125 24.25 C-11.43614502 23.84910156 -12.38400879 23.44820313 -13.3605957 23.03515625 C-27.17858947 17.61583393 -44.43467274 18.36722283 -58 24 C-73.9803724 32.05277251 -84.37544081 46.22721139 -90 63 C-90.35964844 64.05316406 -90.71929687 65.10632813 -91.08984375 66.19140625 C-97.84376076 86.93386313 -96.55583879 110.10876985 -91 131 C-90.76394043 131.90331055 -90.52788086 132.80662109 -90.28466797 133.73730469 C-85.35434498 152.28243966 -78.86940456 170.35466046 -71.9921875 188.2578125 C-71.55918335 189.38799805 -71.55918335 189.38799805 -71.11743164 190.54101562 C-70.37589682 192.46086434 -69.62023987 194.37524259 -68.86328125 196.2890625 C-68 199 -68 199 -69 201 C-77.41136269 188.39728887 -85.31703961 175.6044248 -92.68286133 162.36206055 C-93.56473161 160.78057863 -94.45529342 159.20391367 -95.35424805 157.63208008 C-101.73374949 146.40600702 -105.38951512 134.08104207 -109.25 121.8125 C-109.76203979 120.21063843 -109.76203979 120.21063843 -110.28442383 118.57641602 C-114.30836594 105.52738951 -115.40877269 92.82380768 -115.375 79.25 C-115.37512085 78.50120575 -115.3752417 77.7524115 -115.37536621 76.98092651 C-115.34974492 65.83283512 -114.65873072 55.62048222 -111 45 C-110.71125 44.02546875 -110.4225 43.0509375 -110.125 42.046875 C-103.79028382 22.25088694 -90.25586371 7.11611949 -72.0703125 -2.55859375 C-49.04380941 -13.07340613 -22.48512608 -10.54529501 0 0 Z " fill="#0B2146" transform="translate(338,248)"/>
<path d="M0 0 C11.20800976 9.50110186 16.06090424 19.14908637 18.125 33.6875 C18.75307537 42.20895507 18.72919755 49.86475304 15.125 57.6875 C14.52171875 59.12029297 14.52171875 59.12029297 13.90625 60.58203125 C8.79167617 71.87671512 1.621848 79.04812393 -9.875 83.6875 C-10.45064697 83.94571533 -11.02629395 84.20393066 -11.61938477 84.4699707 C-17.02336511 86.74963754 -21.85612478 87.19574073 -27.6875 87.125 C-29.00971558 87.11255249 -29.00971558 87.11255249 -30.35864258 87.09985352 C-42.74116666 86.77919281 -51.10372579 82.37832343 -59.84765625 73.73828125 C-68.34424781 64.55618973 -72.46218463 53.39091882 -72.25 40.9375 C-72.2336853 39.62761108 -72.2336853 39.62761108 -72.21704102 38.29125977 C-71.85382679 23.43237151 -67.98506547 12.21985012 -57.0625 1.8125 C-40.88213205 -11.95067883 -17.1713097 -12.56156213 0 0 Z " fill="#FBFCFE" transform="translate(1644.875,402.3125)"/>
<path d="M0 0 C49.38579655 0 49.38579655 0 62.16015625 12.03515625 C74.03473239 24.61998741 75.7028134 39.60214639 75.24609375 56.2734375 C74.61546672 65.82293246 71.43676889 73.19883776 66 81 C65.54753906 81.6496875 65.09507812 82.299375 64.62890625 82.96875 C57.84425627 91.73305706 48.35115374 94.54961542 38 98 C25.46 98 12.92 98 0 98 C0 65.66 0 33.32 0 0 Z " fill="#FAFAFB" transform="translate(684,391)"/>
<path d="M0 0 C0 12.54 0 25.08 0 38 C8.91 38 17.82 38 27 38 C27 46.91 27 55.82 27 65 C18.09 65 9.18 65 0 65 C0.0741198 71.5659917 0.15706224 78.13065154 0.26245117 84.69604492 C0.29562968 86.92774471 0.32368348 89.15952698 0.34643555 91.39135742 C0.38011126 94.60631334 0.43243485 97.8205182 0.48828125 101.03515625 C0.49467117 102.02709488 0.5010611 103.01903351 0.50764465 104.04103088 C0.62823685 109.77052546 1.24608091 113.93816819 4 119 C7.16465387 121.52204949 10.43718019 121.23798487 14.375 121.1875 C15.47585938 121.18105469 16.57671875 121.17460937 17.7109375 121.16796875 C21.47105114 121.03853126 21.47105114 121.03853126 27 120 C27 128.91 27 137.82 27 147 C19.1111813 149.2539482 19.1111813 149.2539482 15.109375 149.265625 C14.24022461 149.26997559 13.37107422 149.27432617 12.47558594 149.27880859 C11.57614258 149.26930176 10.67669922 149.25979492 9.75 149.25 C8.81704102 149.24178223 7.88408203 149.23356445 6.92285156 149.22509766 C-3.76820937 149.05157782 -12.75754145 148.50192517 -21 141 C-29.45784243 131.29613615 -31.6118998 120.19610296 -31.390625 107.67578125 C-31.38496521 106.44836716 -31.37930542 105.22095306 -31.37347412 103.9563446 C-31.35126322 100.07464936 -31.3010934 96.19391152 -31.25 92.3125 C-31.22991534 89.66472697 -31.21166804 87.01693932 -31.1953125 84.36914062 C-31.15144823 77.91239717 -31.08252562 71.45636034 -31 65 C-38.26 65 -45.52 65 -53 65 C-53 56.09 -53 47.18 -53 38 C-45.3125 37.875 -45.3125 37.875 -42.91918945 37.88232422 C-38.83196474 37.71798771 -37.31557895 37.27171305 -34.10546875 34.5078125 C-29.17467604 27.49195719 -29.47180138 17.73670962 -28.87695312 9.49023438 C-28.80541016 8.68005859 -28.73386719 7.86988281 -28.66015625 7.03515625 C-28.60480713 6.3069165 -28.54945801 5.57867676 -28.49243164 4.82836914 C-28 3 -28 3 -25 1 C-18 0 -18 0 0 0 Z " fill="#162648" transform="translate(1121,370)"/>
<path d="M0 0 C1.0912996 3.2738988 0.92335712 4.1757273 0.10717773 7.41357422 C-0.22425987 8.75305618 -0.22425987 8.75305618 -0.56239319 10.11959839 C-0.8112175 11.0881778 -1.06004181 12.0567572 -1.31640625 13.0546875 C-1.69671242 14.57172775 -1.69671242 14.57172775 -2.08470154 16.11941528 C-2.6265735 18.27410896 -3.1724354 20.42780248 -3.72192383 22.58056641 C-4.54276859 25.79766754 -5.35165888 29.01756899 -6.15820312 32.23828125 C-18.45550885 81.07659694 -18.45550885 81.07659694 -26.84765625 100.30078125 C-28.02808748 103.06579135 -29.05813699 105.85418022 -30.0625 108.6875 C-31.52335274 112.77671429 -33.13478557 116.74313077 -34.94848633 120.68798828 C-35.61434813 122.15204941 -36.26761807 123.62195886 -36.90332031 125.09936523 C-39.19716115 130.42400687 -41.79613713 135.45090852 -44.75 140.4375 C-45.18683105 141.17613281 -45.62366211 141.91476562 -46.07373047 142.67578125 C-49.59867691 148.53142998 -53.49286146 153.85548833 -58 159 C-59.00353516 160.20076172 -59.00353516 160.20076172 -60.02734375 161.42578125 C-63.94703066 166.02257339 -67.78581337 169.9150404 -73 173 C-73.99 173.598125 -74.98 174.19625 -76 174.8125 C-82.46298981 177.34786788 -91.04051215 177.29779875 -97.57421875 175.15625 C-104.53437245 171.23204906 -107.86736674 164.44629513 -110 157 C-110.41612961 154.31827584 -110.74707135 151.69694865 -111 149 C-111.08193604 148.16968262 -111.16387207 147.33936523 -111.24829102 146.48388672 C-112.03245152 137.88133895 -112.40680173 129.26104385 -112.81732178 120.63473511 C-112.93538069 84.4328538 -112.93538069 84.4328538 -127.875 53.1171875 C-129.54121538 51.67268626 -131.22360746 50.30541815 -133 49 C-132.01 48.505 -132.01 48.505 -131 48 C-109.63800953 63.14759325 -103.6709076 85.13375439 -99.375 109.875 C-97.39884952 127.48565593 -97.39884952 127.48565593 -89 142 C-85.47614831 142.85058489 -84.31393238 143.06864372 -81 142 C-69.9921333 134.62696878 -63.7360116 123.19588154 -58.375 111.4375 C-55.15331221 104.46484713 -51.79657466 97.67698438 -48 91 C-39.67246709 75.58630554 -31.57539833 60.04676394 -23.5 44.5 C-15.76687603 29.61285978 -7.99615593 14.747877 0 0 Z " fill="#0B2147" transform="translate(529,418)"/>
<path d="M0 0 C9.9 0 19.8 0 30 0 C30 51.81 30 103.62 30 157 C20.1 157 10.2 157 0 157 C0 105.19 0 53.38 0 0 Z " fill="#152547" transform="translate(1304,361)"/>
<path d="M0 0 C19.76489284 -0.55984302 39.17275351 5.04731577 53.76342773 18.71777344 C62.81130666 27.61596591 68.05978056 38.27339807 72.046875 50.16015625 C72.38847656 51.17722656 72.73007812 52.19429688 73.08203125 53.2421875 C77.63974745 70.09513809 76.6697961 90.44117092 72.046875 107.16015625 C71.61452275 108.91210495 71.18507276 110.66477128 70.7578125 112.41796875 C67.92793728 123.71710382 64.32727402 133.78836579 59.046875 144.16015625 C57.87855353 146.62951948 56.74490599 149.11284725 55.609375 151.59765625 C55.11566406 152.66886719 54.62195313 153.74007812 54.11328125 154.84375 C53.76136719 155.60816406 53.40945313 156.37257813 53.046875 157.16015625 C51.81615156 153.46798592 52.44236505 151.76448311 53.421875 148.03515625 C53.69773437 146.96007812 53.97359375 145.885 54.2578125 144.77734375 C55.046875 142.16015625 55.046875 142.16015625 56.046875 141.16015625 C59.92674781 122.66542578 62.74852479 99.27476603 56.046875 81.16015625 C55.78648437 80.20238281 55.52609375 79.24460937 55.2578125 78.2578125 C53.29167087 71.1190646 50.56198043 64.97602354 46.97460938 58.55273438 C45.00188063 55.00919733 43.31219048 51.53141965 41.921875 47.72265625 C37.63297999 36.48983598 27.65179799 27.52379999 17.046875 22.16015625 C-11.87790389 9.9893426 -46.11452005 21.24879012 -73.45703125 32.21484375 C-75.61689298 33.03281955 -77.70139972 33.6621276 -79.953125 34.16015625 C-63.9778363 16.22523214 -29.17610072 2.03178339 -5.59375 0.2890625 C-3.72889943 0.1980269 -1.8643316 0.10110793 0 0 Z " fill="#0D3C7F" transform="translate(487.953125,234.83984375)"/>
<path d="M0 0 C5.25310879 4.2979981 10.8626217 11.11183253 12 18 C12.88211939 28.67219848 11.55445346 36.97690151 4.6875 45.375 C-0.67691885 51.06036699 -7.28842413 54.54988667 -15.1484375 55.30078125 C-26.01604977 55.340252 -32.01596829 53.68136962 -40.01953125 46.1875 C-42.8353328 43.07734444 -44.50255865 39.8871405 -46 36 C-46.35449219 35.21367187 -46.70898438 34.42734375 -47.07421875 33.6171875 C-49.64156714 26.35928276 -48.54772306 18.27438076 -45.38671875 11.38671875 C-40.94362315 3.73958801 -35.52998268 -1.42722246 -27 -4 C-17.04258505 -6.352399 -8.59928867 -5.73815751 0 0 Z " fill="#FAFAFB" transform="translate(1239,438)"/>
<path d="M0 0 C19.84682918 -0.56216388 39.1406301 5.10128644 53.81835938 18.76391602 C58.38244672 23.23052534 62.55706872 28.22884168 65.046875 34.16015625 C64.71484375 36.4765625 64.71484375 36.4765625 64.046875 38.16015625 C59.90112996 37.03968462 56.3950086 35.30947522 52.671875 33.22265625 C41.34075288 26.92077372 29.12447985 24.69110138 16.56445312 21.92773438 C15.61119141 21.71439453 14.65792969 21.50105469 13.67578125 21.28125 C12.3774939 20.99399048 12.3774939 20.99399048 11.05297852 20.70092773 C9.046875 20.16015625 9.046875 20.16015625 8.046875 19.16015625 C-20.84817126 14.39536652 -46.88717114 21.55867144 -73.45703125 32.21484375 C-75.61689298 33.03281955 -77.70139972 33.6621276 -79.953125 34.16015625 C-63.9778363 16.22523214 -29.17610072 2.03178339 -5.59375 0.2890625 C-3.72889943 0.1980269 -1.8643316 0.10110793 0 0 Z " fill="#11264C" transform="translate(487.953125,234.83984375)"/>
<path d="M0 0 C8.56529205 5.04258487 11.1002746 8.62113629 14.35546875 18.38671875 C-4.12453125 18.38671875 -22.60453125 18.38671875 -41.64453125 18.38671875 C-39.15367792 9.66873211 -35.79496304 4.92140445 -27.89453125 0.44921875 C-19.11471136 -4.07883521 -8.99440241 -4.18173685 0 0 Z " fill="#F5F6F7" transform="translate(880.64453125,433.61328125)"/>
<path d="M0 0 C0.33 0.99 0.66 1.98 1 3 C2.97536745 2.65213292 2.97536745 2.65213292 5 2 C5.33 1.34 5.66 0.68 6 0 C5.43205836 4.35704481 4.35510838 7.86149243 2.49609375 11.8359375 C2.00302734 12.89941406 1.50996094 13.96289062 1.00195312 15.05859375 C0.48568359 16.15300781 -0.03058594 17.24742187 -0.5625 18.375 C-1.34270508 20.05142578 -1.34270508 20.05142578 -2.13867188 21.76171875 C-3.41928659 24.51092832 -4.70656215 27.2568061 -6 30 C-7.23072344 26.30782967 -6.60450995 24.60432686 -5.625 20.875 C-5.34914063 19.79992187 -5.07328125 18.72484375 -4.7890625 17.6171875 C-4 15 -4 15 -3 14 C-2.62819644 12.02769832 -2.30199332 10.04669048 -2 8.0625 C-1.10806175 2.2161235 -1.10806175 2.2161235 0 0 Z " fill="#0A336A" transform="translate(547,362)"/>
<path d="M0 0 C2.42159428 3.63239142 3.71973979 7.28599275 5.1875 11.375 C5.47302734 12.13039063 5.75855469 12.88578125 6.05273438 13.6640625 C7.53659377 17.79431833 8.49224595 20.66989902 7 25 C6.01 25 5.02 25 4 25 C3.67 25.66 3.34 26.32 3 27 C2.49129467 23.813827 1.99463419 20.62588525 1.5 17.4375 C1.35691406 16.54224609 1.21382813 15.64699219 1.06640625 14.72460938 C0.30107612 9.74996352 -0.16568252 5.03260643 0 0 Z " fill="#14294C" transform="translate(271,452)"/>
<path d="M0 0 C8.11379927 2.28200604 13.87223531 9.71848826 19 16 C18.1875 17.9375 18.1875 17.9375 17 20 C16.01 20.33 15.02 20.66 14 21 C13.57589844 20.05898438 13.15179688 19.11796875 12.71484375 18.1484375 C9.36410166 10.95479202 6.60762745 5.71973389 0 1 C0 0.67 0 0.34 0 0 Z " fill="#1A2E4E" transform="translate(396,466)"/>
<path d="M0 0 C0.53625 0.2475 1.0725 0.495 1.625 0.75 C1.625 1.41 1.625 2.07 1.625 2.75 C2.615 3.08 3.605 3.41 4.625 3.75 C2.83642578 4.36488281 2.83642578 4.36488281 1.01171875 4.9921875 C-0.55476484 5.53623569 -2.12116686 6.0805188 -3.6875 6.625 C-4.86602539 7.02912109 -4.86602539 7.02912109 -6.06835938 7.44140625 C-6.82568359 7.70566406 -7.58300781 7.96992188 -8.36328125 8.2421875 C-9.05977783 8.48308105 -9.75627441 8.72397461 -10.47387695 8.97216797 C-12.64632303 9.78765424 -12.64632303 9.78765424 -15.375 11.75 C-16.365 11.42 -17.355 11.09 -18.375 10.75 C-15.91572998 9.01976259 -13.45365461 7.29406507 -10.984375 5.578125 C-9.48088625 4.52478258 -7.98571278 3.45885242 -6.515625 2.359375 C-2.87832145 -0.30298121 -2.87832145 -0.30298121 0 0 Z " fill="#243656" transform="translate(426.375,257.25)"/>
<path d="M0 0 C3.18090933 3.18090933 4.16244483 7.32519968 5.6875 11.5 C6.02072266 12.38042969 6.35394531 13.26085937 6.69726562 14.16796875 C7.00728516 15.00972656 7.31730469 15.85148437 7.63671875 16.71875 C7.92248779 17.49154297 8.20825684 18.26433594 8.50268555 19.06054688 C9 21 9 21 8 23 C6.25845696 20.68597742 4.55963554 18.35491493 2.875 16 C2.38128906 15.35160156 1.88757813 14.70320313 1.37890625 14.03515625 C-2.06996074 9.12902152 -2.06996074 9.12902152 -1.85839844 5.71484375 C-1.3046875 3.5 -1.3046875 3.5 0 0 Z " fill="#1D2F52" transform="translate(261,426)"/>
<path d="M0 0 C0.33 0 0.66 0 1 0 C1.19392201 5.52677733 0.7479503 9.75614911 -1 15 C-4 15 -4 15 -7 14 C-5.23570801 9.02790438 -2.6060834 4.56561939 0 0 Z " fill="#2B3D60" transform="translate(498,299)"/>
<path d="M0 0 C-1 3 -1 3 -4 5 C-2.68 5.33 -1.36 5.66 0 6 C0 6.66 0 7.32 0 8 C-1.43534841 8.2226746 -2.87345525 8.42761906 -4.3125 8.625 C-5.11300781 8.74101562 -5.91351563 8.85703125 -6.73828125 8.9765625 C-9 9 -9 9 -12 7 C-8.8380314 3.47318887 -4.98182478 0 0 0 Z " fill="#1F3051" transform="translate(437,251)"/>
<path d="M0 0 C6.93 0 13.86 0 21 0 C20.01 0.33 19.02 0.66 18 1 C18 1.66 18 2.32 18 3 C12.39 3 6.78 3 1 3 C0.67 2.01 0.34 1.02 0 0 Z " fill="#D3EAFC" transform="translate(1608,519)"/>
<path d="M0 0 C0.33 0 0.66 0 1 0 C1 5.94 1 11.88 1 18 C0.34 18 -0.32 18 -1 18 C-2.5078125 15.8828125 -2.5078125 15.8828125 -4.125 13.125 C-4.66382813 12.22007812 -5.20265625 11.31515625 -5.7578125 10.3828125 C-7 8 -7 8 -7 6 C-6.01 6.33 -5.02 6.66 -4 7 C-4 7.66 -4 8.32 -4 9 C-2.68 9 -1.36 9 0 9 C0 6.03 0 3.06 0 0 Z " fill="#C9CDD5" transform="translate(306,511)"/>
<path d="M0 0 C0.33 0 0.66 0 1 0 C3.15099173 8.83862056 0.52540926 14.36583134 -4 22 C-5.0354051 18.8151065 -4.94040666 16.86968126 -4.00390625 13.671875 C-3.66069336 12.47304688 -3.66069336 12.47304688 -3.31054688 11.25 C-3.06369141 10.425 -2.81683594 9.6 -2.5625 8.75 C-2.31951172 7.90953125 -2.07652344 7.0690625 -1.82617188 6.203125 C-1.22626051 4.13284266 -0.61429181 2.06606103 0 0 Z " fill="#1E82F2" transform="translate(483,493)"/>
<path d="M0 0 C-4.24961786 0.19694005 -8.49970027 0.38092074 -12.75 0.5625 C-13.9565625 0.61857422 -15.163125 0.67464844 -16.40625 0.73242188 C-18.14648438 0.80493164 -18.14648438 0.80493164 -19.921875 0.87890625 C-21.52434082 0.94960327 -21.52434082 0.94960327 -23.15917969 1.02172852 C-25.66694407 1.00254744 -27.62203427 0.74499559 -30 0 C-7.61937326 -4.10250441 -7.61937326 -4.10250441 0 0 Z " fill="#2D3B5B" transform="translate(502,237)"/>
<path d="M0 0 C2.67927341 4.01891012 2.15601248 6.24161923 2 11 C0.68 11 -0.64 11 -2 11 C-4.17457267 8.12645755 -5 6.63563409 -5 3 C-3.35 2.67 -1.7 2.34 0 2 C0 1.34 0 0.68 0 0 Z " fill="#152C4F" transform="translate(259,420)"/>
<path d="M0 0 C0.33 0 0.66 0 1 0 C1.33 5.94 1.66 11.88 2 18 C2.33 18 2.66 18 3 18 C3 22.95 3 27.9 3 33 C0.44143752 27.88287504 -0.12797558 23.93143307 -0.09765625 18.26171875 C-0.09443359 17.19501953 -0.09121094 16.12832031 -0.08789062 15.02929688 C-0.07951172 13.92650391 -0.07113281 12.82371094 -0.0625 11.6875 C-0.05798828 10.56537109 -0.05347656 9.44324219 -0.04882812 8.28710938 C-0.03707313 5.5246849 -0.02064077 2.76237002 0 0 Z " fill="#4395F3" transform="translate(1541,429)"/>
<path d="M0 0 C1.26977059 3.80931176 0.52074507 5.81618993 -0.4375 9.6875 C-0.72496094 10.86699219 -1.01242187 12.04648437 -1.30859375 13.26171875 C-1.53675781 14.16535156 -1.76492188 15.06898438 -2 16 C-2.33 15.34 -2.66 14.68 -3 14 C-5.475 15.485 -5.475 15.485 -8 17 C-6.3341708 10.83643195 -3.12194714 5.51740344 0 0 Z " fill="#153467" transform="translate(529,418)"/>
<path d="M0 0 C7.59 0 15.18 0 23 0 C20.35508472 2.64491528 18.69598606 2.60570371 15 3 C12.56051614 2.96571536 10.12114154 2.8596795 7.6875 2.6875 C6.45386719 2.60886719 5.22023438 2.53023438 3.94921875 2.44921875 C2.97597656 2.30097656 2.00273437 2.15273438 1 2 C0.67 1.34 0.34 0.68 0 0 Z " fill="#2B3A5C" transform="translate(439,292)"/>
<path d="M0 0 C1.30249153 3.59855032 0.69931441 5.58099473 -0.75 9.0625 C-1.09546875 9.91972656 -1.4409375 10.77695312 -1.796875 11.66015625 C-2.97505959 13.95149577 -3.99845206 15.39349442 -6 17 C-6.66 17 -7.32 17 -8 17 C-6.3341708 10.83643195 -3.12194714 5.51740344 0 0 Z " fill="#1F355C" transform="translate(478,515)"/>
<path d="M0 0 C0.66 0 1.32 0 2 0 C1.34 8.25 0.68 16.5 0 25 C-0.33 25 -0.66 25 -1 25 C-1.95010014 20.97917621 -2.16509228 17.19000253 -2.1875 13.0625 C-2.20167969 11.87785156 -2.21585938 10.69320313 -2.23046875 9.47265625 C-1.99882699 5.98232534 -1.25530126 3.2498906 0 0 Z " fill="#48A0F9" transform="translate(1573,425)"/>
<path d="M0 0 C1.60294922 0.01353516 1.60294922 0.01353516 3.23828125 0.02734375 C4.04652344 0.03894531 4.85476563 0.05054688 5.6875 0.0625 C5.6875 1.0525 5.6875 2.0425 5.6875 3.0625 C0.4075 3.0625 -4.8725 3.0625 -10.3125 3.0625 C-10.6425 2.4025 -10.9725 1.7425 -11.3125 1.0625 C-7.47525828 0.15836327 -3.93747726 -0.04326898 0 0 Z M-12.3125 3.0625 C-10.3125 4.0625 -10.3125 4.0625 -10.3125 4.0625 Z " fill="#E3E5EA" transform="translate(1223.3125,432.9375)"/>
<path d="M0 0 C0.33 0.66 0.66 1.32 1 2 C-0.21812212 5.30440862 -2.00180999 7.10168642 -4.6875 9.3125 C-8.67494857 12.68032676 -12.36251736 16.26021316 -16 20 C-16.66 19.67 -17.32 19.34 -18 19 C-17.52578613 18.53102295 -17.05157227 18.0620459 -16.56298828 17.57885742 C-14.41436915 15.45103477 -12.26965202 13.31932077 -10.125 11.1875 C-9.37863281 10.44951172 -8.63226563 9.71152344 -7.86328125 8.95117188 C-7.14785156 8.23896484 -6.43242187 7.52675781 -5.6953125 6.79296875 C-5.03547363 6.1383667 -4.37563477 5.48376465 -3.69580078 4.80932617 C-1.81831708 2.9054354 -1.81831708 2.9054354 0 0 Z " fill="#2282F0" transform="translate(500,380)"/>
<path d="M0 0 C5.22926405 1.47073052 9.41637993 5.00733149 13 9 C13 9.99 13 10.98 13 12 C12.34 12.66 11.68 13.32 11 14 C10.70867187 13.48050781 10.41734375 12.96101563 10.1171875 12.42578125 C7.26332915 7.5706323 4.45754585 4.42090728 0 1 C0 0.67 0 0.34 0 0 Z " fill="#2B3B5F" transform="translate(396,466)"/>
<path d="M0 0 C0.66 0.66 1.32 1.32 2 2 C-1.63 5.63 -5.26 9.26 -9 13 C-9.99 12.67 -10.98 12.34 -12 12 C-8.04 8.04 -4.08 4.08 0 0 Z " fill="#12274D" transform="translate(351,419)"/>
<path d="M0 0 C1.0625 1.8125 1.0625 1.8125 2 4 C1.67 4.99 1.34 5.98 1 7 C0.85164052 8.77166975 0.75229982 10.54767612 0.68359375 12.32421875 C0.64169922 13.35224609 0.59980469 14.38027344 0.55664062 15.43945312 C0.51732422 16.51130859 0.47800781 17.58316406 0.4375 18.6875 C0.39431641 19.77095703 0.35113281 20.85441406 0.30664062 21.97070312 C0.20053162 24.64700791 0.09847639 27.32340526 0 30 C-0.33 30 -0.66 30 -1 30 C-1.02896822 25.56251365 -1.04678788 21.12505153 -1.0625 16.6875 C-1.07087891 15.42486328 -1.07925781 14.16222656 -1.08789062 12.86132812 C-1.09111328 11.65283203 -1.09433594 10.44433594 -1.09765625 9.19921875 C-1.10289307 8.08377686 -1.10812988 6.96833496 -1.11352539 5.8190918 C-1 3 -1 3 0 0 Z " fill="#338DF5" transform="translate(1397,424)"/>
<path d="M0 0 C0 0.33 0 0.66 0 1 C-0.98742187 1.06058594 -1.97484375 1.12117187 -2.9921875 1.18359375 C-4.27351563 1.26738281 -5.55484375 1.35117188 -6.875 1.4375 C-8.15117187 1.51871094 -9.42734375 1.59992188 -10.7421875 1.68359375 C-13.88300152 1.79206027 -13.88300152 1.79206027 -16 3 C-17.47108171 3.27635121 -18.95250892 3.49974251 -20.4375 3.6875 C-21.61119141 3.84798828 -21.61119141 3.84798828 -22.80859375 4.01171875 C-25 4 -25 4 -28 2 C-18.57667045 0.00111191 -9.57293998 -0.21867122 0 0 Z " fill="#42516E" transform="translate(307,239)"/>
<path d="M0 0 C0 0.66 0 1.32 0 2 C0.99 2.33 1.98 2.66 3 3 C1.25093469 3.64836042 -0.49929219 4.29358784 -2.25 4.9375 C-3.71179688 5.47697266 -3.71179688 5.47697266 -5.203125 6.02734375 C-7.46457161 6.81379655 -9.66796552 7.47251601 -12 8 C-4.57142857 0 -4.57142857 0 0 0 Z " fill="#3D4C6C" transform="translate(420,261)"/>
<path d="M0 0 C0.66 0.33 1.32 0.66 2 1 C-1.67123529 4.34730277 -4.11567363 5.37646897 -9 6 C-11.28480253 6.97348627 -11.28480253 6.97348627 -13 8 C-13.66 7.34 -14.32 6.68 -15 6 C-12.54524486 4.96971956 -10.08685649 3.95054496 -7.625 2.9375 C-6.57699219 2.49567383 -6.57699219 2.49567383 -5.5078125 2.04492188 C-3.69495092 1.30408902 -1.84876857 0.64603036 0 0 Z " fill="#3A4B6B" transform="translate(458,241)"/>
<path d="M0 0 C2.44839588 3.67259383 4 6.54648201 4 11 C3.34 11 2.68 11 2 11 C1.67 12.32 1.34 13.64 1 15 C0.67 10.05 0.34 5.1 0 0 Z " fill="#394A69" transform="translate(271,452)"/>
<path d="M0 0 C0.57234375 0.37898438 1.1446875 0.75796875 1.734375 1.1484375 C-0.94365658 2.93379189 -3.28784367 4.00313699 -6.265625 5.1484375 C-7.255625 5.6434375 -7.255625 5.6434375 -8.265625 6.1484375 C-8.925625 5.4884375 -9.585625 4.8284375 -10.265625 4.1484375 C-9.0293082 3.25420836 -7.77590938 2.38355859 -6.515625 1.5234375 C-5.81953125 1.03617187 -5.1234375 0.54890625 -4.40625 0.046875 C-2.265625 -0.8515625 -2.265625 -0.8515625 0 0 Z M1.734375 0.1484375 C3.734375 1.1484375 3.734375 1.1484375 3.734375 1.1484375 Z " fill="#303F60" transform="translate(1196.265625,410.8515625)"/>
<path d="M0 0 C0.99 0 1.98 0 3 0 C3.33 1.98 3.66 3.96 4 6 C3.01 6.33 2.02 6.66 1 7 C0.67 8.32 0.34 9.64 0 11 C0 7.37 0 3.74 0 0 Z " fill="#1B3054" transform="translate(273,463)"/>
<path d="M0 0 C0.33 0.66 0.66 1.32 1 2 C-1.14712285 6.96522159 -4.6252119 9.11098899 -9 12 C-9.66 11.67 -10.32 11.34 -11 11 C-10.37351562 10.45730469 -9.74703125 9.91460937 -9.1015625 9.35546875 C-8.28429687 8.64003906 -7.46703125 7.92460937 -6.625 7.1875 C-5.40683594 6.12595703 -5.40683594 6.12595703 -4.1640625 5.04296875 C-1.83816812 3.00018747 -1.83816812 3.00018747 0 0 Z " fill="#E3E5EC" transform="translate(773,492)"/>
<path d="M0 0 C0.88336837 2.4667645 1.1312406 3.63859372 0.22265625 6.140625 C-0.16019531 6.83671875 -0.54304687 7.5328125 -0.9375 8.25 C-1.31777344 8.95640625 -1.69804688 9.6628125 -2.08984375 10.390625 C-2.39019531 10.92171875 -2.69054687 11.4528125 -3 12 C-4.32554118 8.02337646 -3.34765994 5.90112089 -2 2 C-1.34 1.34 -0.68 0.68 0 0 Z " fill="#14305D" transform="translate(544,380)"/>
<path d="M0 0 C0.66 0.66 1.32 1.32 2 2 C1.01 4.31 0.02 6.62 -1 9 C-1.99 8.67 -2.98 8.34 -4 8 C-3.67 6.35 -3.34 4.7 -3 3 C-2.34 3 -1.68 3 -1 3 C-0.67 2.01 -0.34 1.02 0 0 Z " fill="#12396E" transform="translate(547,373)"/>
<path d="M0 0 C1.60495567 0.11442461 3.20898119 0.24194694 4.8125 0.375 C5.70582031 0.44460938 6.59914063 0.51421875 7.51953125 0.5859375 C10 1 10 1 13 3 C5.73846154 4.47692308 5.73846154 4.47692308 2 2.0625 C1.34 1.381875 0.68 0.70125 0 0 Z " fill="#1C4172" transform="translate(506,257)"/>
<path d="M0 0 C0.99 0.33 1.98 0.66 3 1 C2.6875 2.9375 2.6875 2.9375 2 5 C1.01 5.33 0.02 5.66 -1 6 C-1.73323796 8.01508358 -1.73323796 8.01508358 -2 10 C-3 8 -3 8 -2.44140625 6.0546875 C-2.15136719 5.33539063 -1.86132812 4.61609375 -1.5625 3.875 C-1.27503906 3.15054687 -0.98757813 2.42609375 -0.69140625 1.6796875 C-0.46324219 1.12539063 -0.23507812 0.57109375 0 0 Z " fill="#394A6A" transform="translate(316,469)"/>
<path d="M0 0 C0.33 0 0.66 0 1 0 C1 1.98 1 3.96 1 6 C-1.31 5.67 -3.62 5.34 -6 5 C-5.67 4.01 -5.34 3.02 -5 2 C-3.68 2 -2.36 2 -1 2 C-0.67 1.34 -0.34 0.68 0 0 Z " fill="#162643" transform="translate(495,311)"/>
<path d="M0 0 C0.99 0.99 1.98 1.98 3 3 C2 6 2 6 -0.0625 7.1875 C-0.701875 7.455625 -1.34125 7.72375 -2 8 C-2.20086443 4.28400809 -2.1519437 3.22791555 0 0 Z " fill="#2284F6" transform="translate(1532,393)"/>
<path d="M0 0 C1.41750563 0.11509661 2.83401169 0.24253658 4.25 0.375 C5.03890625 0.44460938 5.8278125 0.51421875 6.640625 0.5859375 C9.085877 1.01507113 10.84836903 1.78600638 13 3 C8.79788161 4.40070613 5.66690632 3.76587588 1.6875 1.9375 C1.130625 1.628125 0.57375 1.31875 0 1 C0 0.67 0 0.34 0 0 Z " fill="#2687F0" transform="translate(1482,364)"/>
<path d="M0 0 C-2.95183101 2.95183101 -5.95511947 3.08663988 -10 4 C-10 3.01 -10 2.02 -10 1 C-6.52674819 -0.1577506 -3.63932552 -0.06866652 0 0 Z " fill="#1D3053" transform="translate(471,239)"/>
<path d="M0 0 C0.99 0.33 1.98 0.66 3 1 C1.68 3.64 0.36 6.28 -1 9 C-2.07349791 4.70600835 -1.79682816 3.80504787 0 0 Z " fill="#1872D6" transform="translate(480,506)"/>
<path d="M0 0 C0.99 0.33 1.98 0.66 3 1 C2.67 3.31 2.34 5.62 2 8 C0.4375 6.8125 0.4375 6.8125 -1 5 C-0.6875 2.3125 -0.6875 2.3125 0 0 Z " fill="#132549" transform="translate(409,477)"/>
<path d="M0 0 C3.5625 0.25 3.5625 0.25 7 1 C7.33 1.66 7.66 2.32 8 3 C4.18510326 4.46726798 1.70988378 3.43336419 -2 2 C-1.34 1.34 -0.68 0.68 0 0 Z " fill="#2181ED" transform="translate(1629,393)"/>
<path d="M0 0 C2.95183101 2.95183101 3.08663988 5.95511947 4 10 C1.9754262 8.06745228 0.57894208 6.36841312 -1 4 C-0.625 1.8125 -0.625 1.8125 0 0 Z " fill="#374564" transform="translate(266,439)"/>
<path d="M0 0 C0.33 0.99 0.66 1.98 1 3 C-0.40445835 5.2636564 -2.1967913 7.0208685 -4 9 C-4.66 8.67 -5.32 8.34 -6 8 C-4.02 5.36 -2.04 2.72 0 0 Z " fill="#D3D8E1" transform="translate(474,572)"/>
<path d="M0 0 C0.66 0.66 1.32 1.32 2 2 C-0.31 4.31 -2.62 6.62 -5 9 C-5.66 8.67 -6.32 8.34 -7 8 C-4.69 5.36 -2.38 2.72 0 0 Z " fill="#D4EBFD" transform="translate(1676,492)"/>
<path d="M0 0 C0.66 0.99 1.32 1.98 2 3 C1.67 3.66 1.34 4.32 1 5 C0.34 5 -0.32 5 -1 5 C-1 5.66 -1 6.32 -1 7 C-1.99 7.33 -2.98 7.66 -4 8 C-2.87548273 5.0280615 -1.77706209 2.66559313 0 0 Z " fill="#374461" transform="translate(1170,431)"/>
<path d="M0 0 C0.66 0.33 1.32 0.66 2 1 C1.01 2.485 1.01 2.485 0 4 C-3.625 4.6875 -3.625 4.6875 -7 5 C-4.702779 3.25728062 -2.40133271 1.60088848 0 0 Z " fill="#2F3D5D" transform="translate(888,489)"/>
<path d="M0 0 C0.66 0.33 1.32 0.66 2 1 C-0.22189824 3.22189824 -2.08482708 3.92598892 -5 5 C-5.66 4.34 -6.32 3.68 -7 3 C-4.69631264 1.93347808 -2.35981813 0.93578995 0 0 Z " fill="#308EF6" transform="translate(429,434)"/>
<path d="M0 0 C2.0625 0.4375 2.0625 0.4375 4 1 C2.02 1.99 2.02 1.99 0 3 C0 3.66 0 4.32 0 5 C-0.99 5.33 -1.98 5.66 -3 6 C-1.125 1.125 -1.125 1.125 0 0 Z " fill="#2783F6" transform="translate(1554,396)"/>
</svg>
