<svg version="1.1" id="Layer_1" xmlns="http://www.w3.org/2000/svg" xmlns:xlink="http://www.w3.org/1999/xlink" x="0px" y="0px"
	 width="100%" viewBox="0 0 1902 827" enable-background="new 0 0 1902 827" xml:space="preserve">
<path fill="#000000" opacity="1.000000" stroke="none" 
	d="
M1292.000000,828.000000 
	C861.333313,828.000000 431.166656,828.000000 1.000000,828.000000 
	C1.000000,552.333313 1.000000,276.666656 1.000000,1.000000 
	C635.000000,1.000000 1269.000000,1.000000 1903.000000,1.000000 
	C1903.000000,276.666656 1903.000000,552.333313 1903.000000,828.000000 
	C1699.500000,828.000000 1496.000000,828.000000 1292.000000,828.000000 
M347.002716,592.002319 
	C347.002716,592.002319 347.004028,592.096069 347.581177,591.995605 
	C347.752808,591.665100 347.924408,591.334656 348.003357,591.003479 
	C348.003357,591.003479 348.003662,591.096130 348.577637,590.997986 
	C348.749695,590.670593 348.921753,590.343201 349.022064,590.010498 
	C349.022064,590.010498 349.046448,590.078186 349.698242,589.900635 
	C349.829620,589.253479 349.960999,588.606323 349.985138,587.983093 
	C349.985138,587.983093 350.004150,588.091309 350.668671,587.921570 
	C350.798035,587.267944 350.927368,586.614319 350.960876,585.934143 
	C350.960876,585.934143 350.918060,586.023926 351.150787,585.759399 
	C351.362701,585.655090 351.561066,585.529358 352.006256,584.563843 
	C355.457275,576.513977 353.636993,568.268616 352.633881,560.147705 
	C350.958160,546.582031 348.363647,533.112793 347.153992,519.514221 
	C346.597046,513.253357 348.857513,506.794922 349.030762,500.404144 
	C349.311768,490.038727 352.123688,480.437256 355.988953,470.950928 
	C363.511353,452.489380 375.413269,437.252136 390.837372,424.993042 
	C402.054657,416.077484 414.437012,408.643188 425.895020,400.011017 
	C438.529022,390.492889 450.904633,380.602173 462.981995,370.388000 
	C468.510284,365.712616 473.585938,360.269165 477.906372,354.459717 
	C482.845245,347.818726 487.170105,340.613007 490.908417,333.221100 
	C493.957489,327.191956 496.016937,320.609283 498.007599,314.116425 
	C499.356537,309.716644 499.826355,305.047333 500.549774,299.909119 
	C499.333923,300.334900 497.483948,300.406219 497.013184,301.248474 
	C495.082672,304.702362 493.572449,308.391113 491.988708,311.990479 
	C491.988708,311.990479 491.982239,311.909485 491.314148,312.076447 
	C490.844482,313.052887 490.374786,314.029327 489.978638,314.994019 
	C489.978638,314.994019 489.962219,314.921417 489.341431,315.063354 
	C489.255432,315.662842 489.169434,316.262299 488.642853,317.420166 
	C487.424652,319.113281 486.403534,321.001007 484.955597,322.467224 
	C476.868500,330.656555 468.675476,338.741241 460.523682,346.866791 
	C446.983002,360.363892 429.929565,368.666290 413.872772,378.447632 
	C398.783508,387.639648 383.387817,396.381897 368.743683,406.238342 
	C348.767029,419.683899 333.174255,437.295197 322.872986,459.259491 
	C320.226227,464.902863 318.011108,470.748993 315.608917,476.506653 
	C311.088837,487.340485 308.618835,498.665710 307.982544,510.347900 
	C307.652374,516.410095 307.924438,522.505127 307.924438,528.585327 
	C307.435577,528.776672 306.946747,528.968079 306.457886,529.159424 
	C305.623505,528.099792 304.661926,527.114868 303.984833,525.962769 
	C302.994812,524.278259 302.174438,522.489929 301.341705,520.717651 
	C296.253204,509.888000 291.138306,499.070374 286.124176,488.206268 
	C283.879211,483.342133 281.847687,478.379547 279.791290,472.684998 
	C278.864349,469.757996 277.937408,466.830963 276.997742,464.009705 
	C276.997742,464.009705 277.103241,464.024109 276.992615,463.165649 
	C275.488342,452.566986 271.083405,443.048615 265.721588,433.147217 
	C260.526245,418.863800 254.687836,404.772278 250.349808,390.233063 
	C247.182358,379.617065 246.017380,368.406464 243.911453,357.470215 
	C241.184631,343.309540 243.246002,329.401154 247.291702,315.937653 
	C251.412033,302.225861 258.572754,289.938446 269.943451,280.782867 
	C279.310822,273.240387 289.570435,267.617920 302.239471,267.866089 
	C312.746399,268.071899 322.475494,271.163849 332.031738,275.023651 
	C345.491974,280.460388 358.666687,286.693756 372.363983,291.427704 
	C384.891388,295.757324 397.773743,299.967743 410.828369,301.596802 
	C422.768372,303.086731 435.294891,303.132935 447.276550,299.769226 
	C452.779633,298.224304 458.153900,296.220612 463.586609,294.424988 
	C463.488861,293.938965 463.391144,293.452972 463.293396,292.966949 
	C461.374512,292.966949 459.455627,292.962036 457.536743,292.967896 
	C451.299438,292.986908 445.033264,293.406647 438.830353,292.955505 
	C421.542664,291.698181 405.902802,285.300873 390.785950,277.174347 
	C372.406799,267.294067 354.219299,256.924866 335.242279,248.326706 
	C316.562012,239.862976 296.940918,237.740875 276.489716,243.712494 
	C257.363159,249.297348 244.418274,261.318176 234.167221,277.960541 
	C233.749054,278.974457 233.330872,279.988373 232.990891,280.995361 
	C232.990891,280.995361 232.981735,280.917389 232.305267,281.052704 
	C232.174301,281.707947 232.043350,282.363190 232.000717,283.003601 
	C232.000717,283.003601 231.986496,282.915131 231.241837,283.089508 
	C230.155701,286.829315 229.069565,290.569092 227.834427,295.038177 
	C226.899063,298.972107 225.963715,302.906067 224.257080,307.121216 
	C223.819000,307.789856 223.022430,308.444855 222.996414,309.129181 
	C222.582672,320.009796 222.080978,330.894104 222.076935,341.777740 
	C222.076050,344.145538 223.937958,346.513977 224.973114,349.789703 
	C225.087234,350.381683 225.201355,350.973633 225.294785,352.387634 
	C224.790634,359.757172 226.559067,366.608429 230.033966,372.977875 
	C230.033966,372.977875 229.938797,372.947540 230.203278,373.266968 
	C230.309479,373.564240 230.520279,373.718781 230.872269,374.545959 
	C236.504776,393.153687 244.769577,410.548706 255.027222,427.675415 
	C255.341492,428.146362 255.655746,428.617310 255.985138,429.003510 
	C255.985138,429.003510 255.899887,428.991547 255.978882,429.719879 
	C256.980804,431.178802 257.982697,432.637726 258.995178,434.001221 
	C258.995178,434.001221 258.899628,433.991669 258.980713,434.706146 
	C259.969208,436.162476 260.957703,437.618805 261.987305,439.008575 
	C261.987305,439.008575 261.914001,439.035828 261.974243,439.718781 
	C262.978699,440.845184 263.983154,441.971588 264.995331,443.003906 
	C264.995331,443.003906 264.901154,442.997681 264.978455,443.770172 
	C264.987213,444.268372 264.793884,444.914337 265.034363,445.243011 
	C270.307678,452.451599 269.996155,461.250885 272.013367,469.387665 
	C272.824432,472.659058 273.992676,475.841888 275.002533,479.866150 
	C275.526672,484.019592 275.495483,488.337524 276.668549,492.298798 
	C282.607513,512.353638 287.953217,532.656677 295.302856,552.197205 
	C300.687622,566.513611 308.138672,580.273621 321.035370,590.554138 
	C321.359497,590.734924 321.683624,590.915771 322.002686,590.999634 
	C322.002686,590.999634 321.905701,591.004028 322.103088,591.718262 
	C329.035767,596.320801 336.246399,598.241272 343.984100,593.981995 
	C343.984100,593.981995 343.962891,594.092957 344.633392,594.021851 
	C345.113068,593.699158 345.592773,593.376526 346.006866,593.019287 
	C346.006866,593.019287 346.022339,593.091797 346.593414,592.989014 
	C346.761108,592.659912 346.928802,592.330811 347.002716,592.002319 
M419.021790,262.022095 
	C419.021790,262.022095 419.037598,261.908875 418.367645,261.995087 
	C417.885651,262.313721 417.403656,262.632355 416.988525,262.982544 
	C416.988525,262.982544 416.972260,262.910431 416.239563,262.949463 
	C413.386200,264.991364 410.532837,267.033234 406.961090,269.589203 
	C412.198334,271.634583 415.327118,270.205048 418.729095,266.995575 
	C425.892517,264.474304 432.954254,261.592957 440.248016,259.533081 
	C447.545288,257.472198 455.074524,256.232422 463.247772,254.422485 
	C473.034027,254.274139 482.820282,254.125793 493.198029,254.205261 
	C499.116302,256.144104 505.034607,258.082947 511.246277,260.643341 
	C515.331055,264.478638 520.024719,267.856293 523.341492,272.268890 
	C527.203979,277.407562 529.861694,283.451813 532.994202,289.990875 
	C533.050659,299.426483 533.107117,308.862091 532.586670,318.938293 
	C529.370178,333.993286 523.379517,347.898407 515.457520,361.061005 
	C505.149109,378.188629 491.336365,392.149628 476.372284,405.132446 
	C463.130829,416.620697 448.618713,426.194916 432.928192,433.945984 
	C427.874481,436.442505 422.491150,438.271759 416.528473,440.704102 
	C439.719208,457.487488 464.297119,456.298187 490.440613,449.530518 
	C489.845490,457.009979 489.984467,463.833862 488.646729,470.354828 
	C485.521057,485.591461 481.686310,500.682617 477.934601,516.501892 
	C474.279907,524.236816 471.113678,532.256226 466.824036,539.621338 
	C463.035706,546.125671 458.476440,552.345642 453.369995,557.870850 
	C448.356964,563.294983 439.273407,564.761719 436.066376,553.508301 
	C434.328217,547.409119 432.391876,541.338013 431.147736,535.133423 
	C429.469910,526.765869 429.132874,518.066162 426.817657,509.907074 
	C424.387115,501.341736 420.299622,493.246552 416.966400,484.227112 
	C416.330139,483.127350 415.693848,482.027618 415.026703,480.995392 
	C415.026703,480.995392 415.099823,480.982635 414.963257,480.420532 
	C414.635712,480.245880 414.308167,480.071228 413.982239,480.016479 
	C413.982239,480.016479 414.102112,480.020325 414.012756,479.275909 
	C413.024323,478.158386 412.035889,477.040863 411.030579,475.993835 
	C411.030579,475.993835 411.102936,475.989319 410.968689,475.428680 
	C410.644440,475.250183 410.320221,475.071686 410.000977,474.982666 
	C410.000977,474.982666 410.090210,474.974457 410.036041,474.258148 
	C405.018433,467.093231 400.239075,464.868774 395.295013,467.273682 
	C399.860901,472.572021 404.447601,477.894531 409.260193,483.881714 
	C410.557922,488.006805 411.855652,492.131897 413.145691,497.136292 
	C412.883667,503.666290 412.799316,510.169495 416.296173,516.882935 
	C416.503174,518.637024 416.710144,520.391113 416.157471,522.525146 
	C416.093384,532.976318 415.881104,543.429932 416.057892,553.877014 
	C416.109100,556.904236 417.275726,559.912476 418.545746,563.475220 
	C418.685699,564.782837 418.705048,566.117065 418.986542,567.393433 
	C420.184418,572.824890 420.495056,578.717102 422.896393,583.566162 
	C428.974457,595.839600 440.083893,599.045227 452.655762,594.091370 
	C460.273102,591.089783 466.012939,585.654907 471.490601,579.351685 
	C484.299469,564.612366 492.644104,547.561890 499.481171,529.645386 
	C503.667023,518.676331 507.044006,507.394165 510.645660,496.207977 
	C513.771912,486.498383 516.809204,476.757202 519.683044,466.970428 
	C521.547363,460.621552 523.148743,454.189941 524.686279,447.752045 
	C526.827942,438.784760 528.799744,429.776917 531.147339,420.134552 
	C534.541870,412.109802 537.936401,404.085083 541.911560,395.664642 
	C546.174072,385.676422 550.688538,375.785858 554.609741,365.665405 
	C557.186890,359.013916 558.907898,352.030640 561.751648,344.836792 
	C562.179565,342.511078 562.402649,340.124634 563.070618,337.870087 
	C566.065430,327.761597 566.454163,317.412842 565.953369,307.004669 
	C565.869141,305.252625 564.711609,303.552216 563.939697,301.400726 
	C563.939697,301.400726 563.790405,300.985596 563.941467,300.127472 
	C563.603271,289.895905 559.777283,280.744141 555.085693,271.130341 
	C549.802185,261.335724 542.790222,252.902191 533.275879,247.180786 
	C512.460999,234.663879 489.889099,232.637665 467.215668,240.091278 
	C452.301544,244.994095 438.296844,252.663147 423.237091,259.045227 
	C422.795624,259.356964 422.354156,259.668701 422.010193,260.003601 
	C422.010193,260.003601 422.035217,259.906555 421.367523,259.989838 
	C420.887604,260.307709 420.407684,260.625580 419.993927,260.982300 
	C419.993927,260.982300 419.971558,260.908936 419.408691,261.030518 
	C419.241730,261.358093 419.074768,261.685669 419.021790,262.022095 
M976.868469,519.589966 
	C976.875000,497.791656 976.881470,475.993317 976.807251,453.562775 
	C978.135315,447.355530 981.822876,442.854919 986.661560,438.893036 
	C993.716370,433.116638 1001.687988,432.194763 1009.495117,435.568298 
	C1017.537659,439.043579 1023.408691,445.198029 1023.235046,455.218750 
	C1023.145630,476.141205 1023.040405,497.063629 1023.047485,517.986084 
	C1023.047668,518.580139 1024.244873,519.173767 1025.824829,519.927368 
	C1035.896851,519.917480 1045.968994,519.907654 1056.874512,519.628357 
	C1056.927856,497.972015 1057.011597,476.315613 1056.950439,454.659607 
	C1056.947266,453.498047 1055.725708,452.339905 1055.064697,450.281494 
	C1054.983765,435.363708 1047.179688,424.541107 1036.010376,415.958405 
	C1026.332642,408.521912 1014.761536,407.692169 1002.945007,407.918274 
	C994.992798,408.070435 987.999390,410.345856 981.686584,414.954681 
	C979.635376,416.452271 977.834229,418.292358 975.713745,419.138824 
	C975.956421,415.523376 976.199158,411.907898 976.459778,408.025299 
	C966.642822,408.025299 957.549011,407.989532 948.456177,408.069183 
	C947.277771,408.079498 946.104553,408.685760 945.010498,409.014221 
	C945.010498,409.014221 945.012695,408.932739 944.230469,409.341156 
	C944.163696,445.716278 944.093506,482.091431 944.068787,518.466553 
	C944.068481,518.926697 944.650330,519.387268 945.899353,519.928467 
	C955.949219,519.912842 965.999084,519.897217 976.868469,519.589966 
M1282.661743,408.241425 
	C1273.029175,408.161774 1263.396606,408.063080 1253.763916,408.049164 
	C1253.176514,408.048340 1252.588013,408.719604 1251.936401,409.977753 
	C1251.936401,413.178284 1251.936401,416.378845 1251.936401,419.124725 
	C1247.342529,416.571777 1243.313110,414.405365 1239.353516,412.118134 
	C1228.877197,406.066589 1217.057251,406.646362 1206.294067,408.462616 
	C1190.611694,411.109039 1177.473267,419.753052 1169.723511,434.465759 
	C1162.347900,448.468140 1159.579224,463.423615 1163.554932,478.960938 
	C1169.756592,503.197357 1186.914185,518.912964 1213.452637,521.000000 
	C1223.997314,521.829285 1234.453247,520.988831 1243.748779,515.153198 
	C1246.346680,513.522217 1248.474365,511.142120 1252.088257,508.001587 
	C1252.088257,512.580200 1252.088257,515.805908 1252.456787,519.812805 
	C1262.640259,519.854614 1272.823853,519.896484 1283.870850,519.723938 
	C1283.921387,483.611816 1283.978882,447.499664 1283.979126,411.387573 
	C1283.979126,410.564423 1283.332886,409.741272 1282.988525,409.013184 
	C1282.988525,409.013184 1283.083618,409.016907 1282.661743,408.241425 
M653.995361,361.973053 
	C653.995361,361.973053 653.994202,361.892303 653.200623,362.294891 
	C653.130920,363.119507 653.000122,363.944122 653.000122,364.768738 
	C653.001709,416.184570 653.014038,467.600403 653.120361,519.830872 
	C655.202393,520.210205 657.290710,520.946228 659.365417,520.909668 
	C670.967102,520.705261 682.563782,520.176147 694.165649,520.027466 
	C704.695374,519.892578 715.232239,520.250549 725.759949,520.059692 
	C728.508545,520.009827 731.234741,518.724854 734.769409,518.002502 
	C739.402527,516.604065 744.246887,515.676331 748.625916,513.711609 
	C758.468445,509.295502 766.798096,502.919220 774.059570,494.692688 
	C784.837585,482.482300 790.708252,468.246765 791.770020,452.488068 
	C792.615051,439.945923 792.674377,427.276184 788.458862,414.760345 
	C785.134521,404.890442 781.245911,395.716156 774.375244,387.927612 
	C758.659180,370.112183 738.289795,362.849396 714.793823,361.167358 
	C695.140198,361.098846 675.486511,361.020782 655.832825,361.004456 
	C655.193726,361.003937 654.554077,361.633301 653.995361,361.973053 
M1335.874756,519.659851 
	C1335.924438,518.998413 1336.017700,518.336914 1336.017700,517.675476 
	C1336.020508,467.387939 1336.015747,417.100372 1336.011719,366.812836 
	C1336.011597,364.873383 1336.011719,362.933929 1336.011719,360.497345 
	C1332.930908,361.031464 1330.434082,361.464325 1327.008301,361.924011 
	C1319.658569,361.967987 1312.308960,362.011963 1304.183716,362.439056 
	C1304.128296,363.266205 1304.024414,364.093323 1304.024658,364.920471 
	C1304.035522,415.965729 1304.053833,467.010956 1304.086548,518.056213 
	C1304.086914,518.658264 1304.279419,519.260254 1304.387573,519.893066 
	C1314.770874,519.893066 1324.898560,519.893066 1335.874756,519.659851 
M1149.035645,516.731567 
	C1149.355103,508.436676 1149.674438,500.141785 1149.993774,491.846893 
	C1149.263794,491.868896 1148.533813,491.890930 1147.350952,491.696960 
	C1147.203735,491.776184 1147.056396,491.855438 1146.779541,491.368622 
	C1146.186401,491.579071 1145.593262,491.789520 1144.192261,491.931824 
	C1141.821899,492.561340 1139.462402,493.235260 1137.078857,493.810547 
	C1132.943481,494.808716 1125.015137,491.300659 1124.287354,487.798340 
	C1123.260620,482.856689 1122.331543,477.822571 1122.131714,472.797302 
	C1121.788940,464.178589 1122.004517,455.535950 1122.054932,446.903748 
	C1122.125610,434.826843 1120.511353,436.102295 1132.916382,435.931213 
	C1138.279663,435.857239 1143.636597,435.339661 1149.786011,434.637482 
	C1149.786011,425.892365 1149.786011,417.147217 1149.786011,408.204620 
	C1140.523926,408.204620 1131.310059,408.204620 1122.057983,407.242462 
	C1122.380249,396.822754 1122.825562,386.404022 1122.910278,375.982361 
	C1122.925293,374.127472 1121.411499,370.636200 1120.657959,370.651093 
	C1113.420898,370.794220 1106.181274,371.393036 1098.972900,372.151489 
	C1095.587891,372.507690 1094.168091,374.715759 1093.836182,378.269318 
	C1093.137573,385.749725 1092.030029,393.199432 1090.857544,400.625031 
	C1090.240234,404.535034 1085.014893,408.791290 1081.093750,408.908600 
	C1077.035278,409.029999 1072.972900,409.018860 1068.127563,409.435516 
	C1068.085083,414.932831 1067.927002,420.432556 1068.043091,425.926514 
	C1068.113647,429.264557 1068.607788,432.593597 1069.635132,436.245453 
	C1076.475952,436.208557 1083.316895,436.171661 1090.038574,437.043121 
	C1090.014160,454.527222 1089.940918,472.011627 1090.051514,489.494873 
	C1090.061035,491.001190 1091.286987,492.499847 1091.986694,494.771729 
	C1092.222168,495.385559 1092.509033,495.984955 1092.685425,496.615295 
	C1096.557983,510.456238 1104.466431,518.328308 1119.042969,519.912903 
	C1126.801758,520.756348 1134.766235,520.040161 1142.608154,519.550537 
	C1144.564819,519.428284 1146.405884,517.457886 1149.035645,516.731567 
M1542.981567,428.197968 
	C1539.222534,440.790314 1540.848999,453.101196 1545.007202,466.026184 
	C1549.477783,480.236786 1556.459229,492.658661 1567.981445,502.668274 
	C1588.072876,520.122070 1611.232300,524.037354 1636.366333,519.159607 
	C1654.180908,515.702271 1668.767212,506.355774 1679.719727,491.770691 
	C1689.756836,478.404694 1695.187500,463.239960 1695.953613,446.562073 
	C1696.476685,435.169739 1694.348511,424.178894 1690.235352,413.465942 
	C1682.790039,394.074799 1669.938477,380.215546 1651.011719,371.282593 
	C1636.149292,364.267914 1620.482910,363.430878 1605.161621,365.443634 
	C1586.495239,367.895874 1570.077026,376.663666 1558.346436,392.204773 
	C1550.452393,402.662903 1544.658813,414.178986 1542.981567,428.197968 
M1535.631592,488.907623 
	C1535.007446,487.676819 1534.685791,486.065796 1533.703857,485.284576 
	C1530.401855,482.657471 1526.953125,480.187439 1523.395264,477.916199 
	C1518.918335,475.058258 1514.278564,472.455200 1509.709106,469.742188 
	C1510.164062,470.441162 1510.619019,471.140137 1511.073853,471.839111 
	C1507.818726,474.272003 1504.312256,476.433929 1501.349731,479.182220 
	C1483.622803,495.627380 1461.835449,494.376617 1445.610474,481.268311 
	C1432.050049,470.312744 1425.970825,454.682129 1428.837280,436.240845 
	C1430.925049,422.809387 1436.521362,412.072906 1447.046021,403.425354 
	C1460.409790,392.445129 1482.828613,392.182373 1495.645996,401.343903 
	C1501.171021,405.293030 1506.009888,410.202148 1511.564819,415.026306 
	C1519.615845,409.863800 1528.048828,404.456329 1536.467896,399.057831 
	C1527.639648,385.033783 1519.876221,378.245972 1504.187012,370.933044 
	C1489.697632,364.179504 1474.243042,363.349091 1459.231689,365.441528 
	C1440.314209,368.078430 1423.946045,377.202484 1412.342896,393.161224 
	C1402.332275,406.929840 1396.778198,422.307831 1395.932129,439.421906 
	C1395.286743,452.476501 1398.297241,464.750305 1403.293213,476.580536 
	C1410.251953,493.058350 1422.221802,505.159302 1437.902954,513.350525 
	C1454.253540,521.891357 1472.096313,522.936035 1489.708496,519.732239 
	C1508.796753,516.259888 1524.246826,505.945801 1535.631592,488.907623 
M813.760498,440.451599 
	C807.762512,455.426544 806.956909,470.546051 812.752319,485.753845 
	C818.535400,500.929169 829.403748,510.917877 844.307251,517.121460 
	C854.624084,521.415894 865.283203,521.237976 876.020996,520.965271 
	C894.179077,520.504150 908.755371,512.994141 919.940186,498.004486 
	C912.386780,493.865479 904.979919,489.682556 897.409851,485.819427 
	C896.488098,485.348999 894.406616,486.246429 893.339722,487.103760 
	C881.384094,496.711792 868.618835,499.936035 854.179260,492.852051 
	C846.422302,489.046509 840.795898,481.032562 841.840271,474.035400 
	C855.229248,474.035400 868.693726,473.903900 882.154480,474.073212 
	C895.106262,474.236084 908.055420,474.670807 921.002930,475.074280 
	C924.385132,475.179626 926.491516,474.395264 926.145020,470.386200 
	C925.666626,464.851440 925.864868,459.228088 925.013184,453.761078 
	C921.824158,433.289093 910.308472,419.480530 891.063782,411.788879 
	C882.022217,408.175171 872.713013,408.123413 863.242310,407.901398 
	C851.439758,407.624725 841.270325,411.855225 831.860779,418.216949 
	C823.904175,423.596344 818.461487,431.317963 813.760498,440.451599 
z"/>
<path fill="#162648" opacity="1.000000" stroke="none" 
	d="
M715.129028,362.007507 
	C738.289795,362.849396 758.659180,370.112183 774.375244,387.927612 
	C781.245911,395.716156 785.134521,404.890442 788.458862,414.760345 
	C792.674377,427.276184 792.615051,439.945923 791.770020,452.488068 
	C790.708252,468.246765 784.837585,482.482300 774.059570,494.692688 
	C766.798096,502.919220 758.468445,509.295502 748.625916,513.711609 
	C744.246887,515.676331 739.402527,516.604065 734.104431,517.789917 
	C707.114136,518.025208 680.788757,518.473022 654.378418,518.464661 
	C654.279053,485.907440 654.291931,453.806366 654.240601,421.705383 
	C654.208801,401.767609 654.079651,381.829987 653.994263,361.892303 
	C653.994202,361.892303 653.995361,361.973053 654.399048,362.154968 
	C674.911499,362.227081 695.020264,362.117279 715.129028,362.007507 
M685.014526,394.079132 
	C685.004211,422.890717 684.982788,451.702271 685.012817,480.513824 
	C685.014526,482.137695 685.685120,483.771423 685.617432,485.382660 
	C685.451965,489.325897 687.670166,490.053284 690.973877,490.021759 
	C700.132812,489.934326 709.309387,490.340363 718.448242,489.905243 
	C726.813477,489.506927 734.436218,486.644104 741.312561,481.534821 
	C750.766113,474.510651 756.426025,465.274475 759.094421,453.064911 
	C759.066895,445.009644 759.039307,436.954407 758.938721,428.124054 
	C758.194519,425.611572 757.659424,423.013550 756.672546,420.600311 
	C749.932678,404.118774 737.213867,395.242645 719.453979,391.500458 
	C708.734192,391.359863 698.014465,391.177948 687.294556,391.169556 
	C686.563538,391.168976 685.831482,392.470367 685.014526,394.079132 
z"/>
<path fill="#0470F2" opacity="1.000000" stroke="none" 
	d="
M1543.077026,427.444336 
	C1544.658813,414.178986 1550.452393,402.662903 1558.346436,392.204773 
	C1570.077026,376.663666 1586.495239,367.895874 1605.161621,365.443634 
	C1620.482910,363.430878 1636.149292,364.267914 1651.011719,371.282593 
	C1669.938477,380.215546 1682.790039,394.074799 1690.235352,413.465942 
	C1694.348511,424.178894 1696.476685,435.169739 1695.953613,446.562073 
	C1695.187500,463.239960 1689.756836,478.404694 1679.719727,491.770691 
	C1668.767212,506.355774 1654.180908,515.702271 1636.366333,519.159607 
	C1611.232300,524.037354 1588.072876,520.122070 1567.981445,502.668274 
	C1556.459229,492.658661 1549.477783,480.236786 1545.040039,465.208252 
	C1544.296265,454.820587 1543.447388,445.255798 1542.788452,435.677948 
	C1542.600952,432.952942 1542.965576,430.189911 1543.077026,427.444336 
M1599.056274,486.522949 
	C1608.049805,492.280334 1618.136597,491.690674 1627.561523,489.492371 
	C1643.827148,485.698517 1655.146973,475.801941 1660.503052,459.221222 
	C1664.816772,445.867676 1664.587891,432.765015 1658.558105,420.574890 
	C1648.959717,401.170471 1629.984741,390.589294 1607.514160,396.178650 
	C1591.840332,400.077362 1581.283936,410.957611 1576.372803,425.978729 
	C1573.151001,435.832367 1572.842407,446.304565 1575.732666,456.968933 
	C1579.314819,470.186279 1586.933594,479.444305 1599.056274,486.522949 
z"/>
<path fill="#0B2045" opacity="1.000000" stroke="none" 
	d="
M500.689331,300.498535 
	C499.826355,305.047333 499.356537,309.716644 498.007599,314.116425 
	C496.016937,320.609283 493.957489,327.191956 490.908417,333.221100 
	C487.170105,340.613007 482.845245,347.818726 477.906372,354.459717 
	C473.585938,360.269165 468.510284,365.712616 462.981995,370.388000 
	C450.904633,380.602173 438.529022,390.492889 425.895020,400.011017 
	C414.437012,408.643188 402.054657,416.077484 390.837372,424.993042 
	C375.413269,437.252136 363.511353,452.489380 355.988953,470.950928 
	C352.123688,480.437256 349.311768,490.038727 349.030762,500.404144 
	C348.857513,506.794922 346.597046,513.253357 347.153992,519.514221 
	C348.363647,533.112793 350.958160,546.582031 352.633881,560.147705 
	C353.636993,568.268616 355.457275,576.513977 351.816650,585.166504 
	C351.459930,586.047058 351.223602,586.131958 350.918060,586.023926 
	C350.918060,586.023926 350.960876,585.934143 350.654297,586.029602 
	C350.233185,586.780457 350.118652,587.435913 350.004150,588.091309 
	C350.004150,588.091309 349.985138,587.983093 349.630127,588.027954 
	C349.198914,588.741272 349.122681,589.409729 349.046448,590.078186 
	C349.046448,590.078186 349.022064,590.010498 348.671326,589.838440 
	C348.214935,590.142944 348.109314,590.619568 348.003662,591.096130 
	C348.003662,591.096130 348.003357,591.003479 347.664001,590.876831 
	C347.217773,591.198853 347.110901,591.647461 347.004028,592.096069 
	C347.004028,592.096069 347.002716,592.002319 346.635437,591.880188 
	C346.186218,592.202637 346.104279,592.647217 346.022339,593.091797 
	C346.022339,593.091797 346.006866,593.019287 345.767059,592.702332 
	C345.005798,592.954590 344.484344,593.523743 343.962891,594.092957 
	C343.962891,594.092957 343.984100,593.981995 343.627014,593.854492 
	C338.873383,593.843384 334.438751,594.354187 330.093964,593.934692 
	C327.296295,593.664551 324.630554,592.028076 321.905701,591.004028 
	C321.905701,591.004028 322.002686,590.999634 322.089294,590.699402 
	C321.754578,590.262207 321.333313,590.125183 320.912048,589.988159 
	C308.138672,580.273621 300.687622,566.513611 295.302856,552.197205 
	C287.953217,532.656677 282.607513,512.353638 276.668549,492.298798 
	C275.495483,488.337524 275.526672,484.019592 275.018372,479.035614 
	C274.165009,471.292145 273.295837,464.379242 272.683105,457.261169 
	C273.107697,456.915771 273.275787,456.775513 273.665039,456.924133 
	C274.958527,459.483398 276.030884,461.753754 277.103241,464.024109 
	C277.103241,464.024109 276.997742,464.009705 276.786926,464.308228 
	C277.623840,467.558380 278.671600,470.509979 279.719330,473.461609 
	C281.847687,478.379547 283.879211,483.342133 286.124176,488.206268 
	C291.138306,499.070374 296.253204,509.888000 301.341705,520.717651 
	C302.174438,522.489929 302.994812,524.278259 303.984833,525.962769 
	C304.661926,527.114868 305.623505,528.099792 306.457886,529.159424 
	C306.946747,528.968079 307.435577,528.776672 307.924438,528.585327 
	C307.924438,522.505127 307.652374,516.410095 307.982544,510.347900 
	C308.618835,498.665710 311.088837,487.340485 315.608917,476.506653 
	C318.011108,470.748993 320.226227,464.902863 322.872986,459.259491 
	C333.174255,437.295197 348.767029,419.683899 368.743683,406.238342 
	C383.387817,396.381897 398.783508,387.639648 413.872772,378.447632 
	C429.929565,368.666290 446.983002,360.363892 460.523682,346.866791 
	C468.675476,338.741241 476.868500,330.656555 484.955597,322.467224 
	C486.403534,321.001007 487.424652,319.113281 489.195129,317.023285 
	C489.819000,316.058075 489.890625,315.489746 489.962219,314.921417 
	C489.962219,314.921417 489.978638,314.994019 490.320801,315.095459 
	C491.102692,314.101105 491.542450,313.005280 491.982239,311.909485 
	C491.982239,311.909485 491.988708,311.990479 492.290497,312.132935 
	C493.667053,310.623413 494.704803,308.945892 495.825470,307.325653 
	C497.414764,305.027802 499.065063,302.772186 500.689331,300.498535 
z"/>
<path fill="#0570F2" opacity="1.000000" stroke="none" 
	d="
M1535.359131,489.165649 
	C1524.246826,505.945801 1508.796753,516.259888 1489.708496,519.732239 
	C1472.096313,522.936035 1454.253540,521.891357 1437.902954,513.350525 
	C1422.221802,505.159302 1410.251953,493.058350 1403.293213,476.580536 
	C1398.297241,464.750305 1395.286743,452.476501 1395.932129,439.421906 
	C1396.778198,422.307831 1402.332275,406.929840 1412.342896,393.161224 
	C1423.946045,377.202484 1440.314209,368.078430 1459.231689,365.441528 
	C1474.243042,363.349091 1489.697632,364.179504 1504.187012,370.933044 
	C1519.876221,378.245972 1527.639648,385.033783 1536.467896,399.057831 
	C1528.048828,404.456329 1519.615845,409.863800 1511.564819,415.026306 
	C1506.009888,410.202148 1501.171021,405.293030 1495.645996,401.343903 
	C1482.828613,392.182373 1460.409790,392.445129 1447.046021,403.425354 
	C1436.521362,412.072906 1430.925049,422.809387 1428.837280,436.240845 
	C1425.970825,454.682129 1432.050049,470.312744 1445.610474,481.268311 
	C1461.835449,494.376617 1483.622803,495.627380 1501.349731,479.182220 
	C1504.312256,476.433929 1507.818726,474.272003 1511.073853,471.839111 
	C1510.619019,471.140137 1510.164062,470.441162 1509.709106,469.742188 
	C1514.278564,472.455200 1518.918335,475.058258 1523.395264,477.916199 
	C1526.953125,480.187439 1530.401855,482.657471 1533.703857,485.284576 
	C1534.685791,486.065796 1535.007446,487.676819 1535.359131,489.165649 
z"/>
<path fill="#162648" opacity="1.000000" stroke="none" 
	d="
M1252.088257,519.031677 
	C1252.088257,515.805908 1252.088257,512.580200 1252.088257,508.001587 
	C1248.474365,511.142120 1246.346680,513.522217 1243.748779,515.153198 
	C1234.453247,520.988831 1223.997314,521.829285 1213.452637,521.000000 
	C1186.914185,518.912964 1169.756592,503.197357 1163.554932,478.960938 
	C1159.579224,463.423615 1162.347900,448.468140 1169.723511,434.465759 
	C1177.473267,419.753052 1190.611694,411.109039 1206.294067,408.462616 
	C1217.057251,406.646362 1228.877197,406.066589 1239.353516,412.118134 
	C1243.313110,414.405365 1247.342529,416.571777 1251.936401,419.124725 
	C1251.936401,416.378845 1251.936401,413.178284 1252.434570,409.570557 
	C1262.982910,409.114563 1273.033325,409.065735 1283.083618,409.016907 
	C1283.083618,409.016907 1282.988525,409.013184 1282.931519,409.436676 
	C1282.855835,446.163300 1282.837036,482.466461 1282.374390,518.887817 
	C1271.983154,519.014648 1262.035645,519.023132 1252.088257,519.031677 
M1212.508423,435.954437 
	C1200.413574,439.710663 1193.509033,450.785583 1192.858887,464.892151 
	C1192.065430,482.107330 1210.079712,499.367828 1229.210815,493.576202 
	C1246.175659,488.440369 1255.353638,473.709503 1251.259277,457.237885 
	C1247.177368,440.817535 1231.072876,429.268738 1212.508423,435.954437 
z"/>
<path fill="#162648" opacity="1.000000" stroke="none" 
	d="
M813.873291,440.086731 
	C818.461487,431.317963 823.904175,423.596344 831.860779,418.216949 
	C841.270325,411.855225 851.439758,407.624725 863.242310,407.901398 
	C872.713013,408.123413 882.022217,408.175171 891.063782,411.788879 
	C910.308472,419.480530 921.824158,433.289093 925.013184,453.761078 
	C925.864868,459.228088 925.666626,464.851440 926.145020,470.386200 
	C926.491516,474.395264 924.385132,475.179626 921.002930,475.074280 
	C908.055420,474.670807 895.106262,474.236084 882.154480,474.073212 
	C868.693726,473.903900 855.229248,474.035400 841.840271,474.035400 
	C840.795898,481.032562 846.422302,489.046509 854.179260,492.852051 
	C868.618835,499.936035 881.384094,496.711792 893.339722,487.103760 
	C894.406616,486.246429 896.488098,485.348999 897.409851,485.819427 
	C904.979919,489.682556 912.386780,493.865479 919.940186,498.004486 
	C908.755371,512.994141 894.179077,520.504150 876.020996,520.965271 
	C865.283203,521.237976 854.624084,521.415894 844.307251,517.121460 
	C829.403748,510.917877 818.535400,500.929169 812.752319,485.753845 
	C806.956909,470.546051 807.762512,455.426544 813.873291,440.086731 
M841.050720,451.033508 
	C841.050720,451.033508 841.029053,451.060638 840.511047,451.347931 
	C840.786621,451.850128 841.062195,452.352325 841.724121,452.924316 
	C841.724121,452.924316 842.095642,453.050964 842.684570,453.609009 
	C859.533508,453.698181 876.382507,453.796082 893.231567,453.838776 
	C893.800476,453.840240 894.370911,453.285553 894.924866,452.205902 
	C893.768555,444.514282 888.624573,440.055542 882.472351,436.086487 
	C866.688660,425.903687 845.807068,436.417145 841.501343,450.292297 
	C841.269531,450.475311 841.121704,450.711029 841.050720,451.033508 
z"/>
<path fill="#162648" opacity="1.000000" stroke="none" 
	d="
M975.918701,419.975800 
	C977.834229,418.292358 979.635376,416.452271 981.686584,414.954681 
	C987.999390,410.345856 994.992798,408.070435 1002.945007,407.918274 
	C1014.761536,407.692169 1026.332642,408.521912 1036.010376,415.958405 
	C1047.179688,424.541107 1054.983765,435.363708 1055.165283,451.127441 
	C1055.429443,453.623535 1055.733154,455.273468 1055.735596,456.923828 
	C1055.767090,477.547089 1055.754883,498.170441 1055.308716,518.884521 
	C1044.886108,519.011414 1034.908691,519.047485 1024.811279,518.622620 
	C1024.684448,498.839355 1024.694580,479.516998 1024.643433,460.194763 
	C1024.638672,458.393402 1024.245605,456.593109 1024.032837,454.792297 
	C1023.408691,445.198029 1017.537659,439.043579 1009.495117,435.568298 
	C1001.687988,432.194763 993.716370,433.116638 986.661560,438.893036 
	C981.822876,442.854919 978.135315,447.355530 976.482544,454.085205 
	C976.054321,456.920837 975.867004,459.233826 975.860657,461.547333 
	C975.808228,480.630127 975.789429,499.713043 975.315247,518.889648 
	C964.927368,518.968933 954.984680,518.954468 944.990234,518.477539 
	C944.963318,481.654297 944.987976,445.293518 945.012695,408.932739 
	C945.012695,408.932739 945.010498,409.014221 945.442688,408.998230 
	C955.623291,408.982239 965.371765,408.982239 975.127075,408.982239 
	C975.422852,413.089630 975.670776,416.532715 975.918701,419.975800 
z"/>
<path fill="#0B2045" opacity="1.000000" stroke="none" 
	d="
M234.946426,278.054474 
	C244.418274,261.318176 257.363159,249.297348 276.489716,243.712494 
	C296.940918,237.740875 316.562012,239.862976 335.242279,248.326706 
	C354.219299,256.924866 372.406799,267.294067 390.785950,277.174347 
	C405.902802,285.300873 421.542664,291.698181 438.830353,292.955505 
	C445.033264,293.406647 451.299438,292.986908 457.536743,292.967896 
	C459.455627,292.962036 461.374512,292.966949 463.293396,292.966949 
	C463.391144,293.452972 463.488861,293.938965 463.586609,294.424988 
	C458.153900,296.220612 452.779633,298.224304 447.276550,299.769226 
	C435.294891,303.132935 422.768372,303.086731 410.828369,301.596802 
	C397.773743,299.967743 384.891388,295.757324 372.363983,291.427704 
	C358.666687,286.693756 345.491974,280.460388 332.031738,275.023651 
	C322.475494,271.163849 312.746399,268.071899 302.239471,267.866089 
	C289.570435,267.617920 279.310822,273.240387 269.943451,280.782867 
	C258.572754,289.938446 251.412033,302.225861 247.291702,315.937653 
	C243.246002,329.401154 241.184631,343.309540 243.911453,357.470215 
	C246.017380,368.406464 247.182358,379.617065 250.349808,390.233063 
	C254.687836,404.772278 260.526245,418.863800 265.546539,433.593567 
	C266.736908,438.154572 268.102295,442.269226 269.856964,447.556915 
	C267.461731,445.353363 266.181458,444.175507 264.901154,442.997681 
	C264.901154,442.997681 264.995331,443.003906 265.198547,442.702393 
	C264.239197,441.279205 263.076599,440.157501 261.914001,439.035828 
	C261.914001,439.035828 261.987305,439.008575 262.328186,438.804504 
	C261.412567,437.064178 260.156097,435.527924 258.899628,433.991669 
	C258.899628,433.991669 258.995178,434.001221 259.205017,433.718994 
	C258.243225,431.955048 257.071564,430.473297 255.899902,428.991547 
	C255.899887,428.991547 255.985138,429.003510 256.240051,428.771423 
	C256.011841,428.031952 255.528732,427.524567 255.045654,427.017151 
	C244.769577,410.548706 236.504776,393.153687 230.725616,373.985291 
	C230.333710,373.308350 230.120331,373.149323 229.938797,372.947540 
	C229.938797,372.947540 230.033966,372.977875 230.074371,372.607574 
	C228.515015,365.346710 226.915237,358.456177 225.315460,351.565613 
	C225.201355,350.973633 225.087234,350.381683 224.914841,348.915894 
	C222.495148,334.298004 223.218964,320.566742 225.028351,306.839996 
	C225.963715,302.906067 226.899063,298.972107 228.195038,294.434814 
	C229.699280,290.192657 230.842896,286.553894 231.986496,282.915131 
	C231.986496,282.915131 232.000717,283.003601 232.343536,283.001038 
	C232.784821,282.304779 232.883286,281.611084 232.981750,280.917389 
	C232.981735,280.917389 232.990891,280.995361 233.293823,281.062561 
	C234.046661,280.104645 234.496552,279.079559 234.946426,278.054474 
z"/>
<path fill="#036BEF" opacity="1.000000" stroke="none" 
	d="
M541.330933,396.060364 
	C537.936401,404.085083 534.541870,412.109802 530.663269,420.574524 
	C529.490112,421.898407 528.648071,422.701782 528.134094,423.677887 
	C514.247498,450.049377 500.452026,476.469086 486.480804,502.795563 
	C484.070312,507.337738 480.937744,511.496704 478.138733,515.832703 
	C481.686310,500.682617 485.521057,485.591461 488.646729,470.354828 
	C489.984467,463.833862 489.845490,457.009979 490.440613,449.530518 
	C464.297119,456.298187 439.719208,457.487488 416.528473,440.704102 
	C422.491150,438.271759 427.874481,436.442505 432.928192,433.945984 
	C448.618713,426.194916 463.130829,416.620697 476.372284,405.132446 
	C491.336365,392.149628 505.149109,378.188629 515.457520,361.061005 
	C523.379517,347.898407 529.370178,333.993286 533.090759,318.373291 
	C534.003784,309.394348 534.412720,300.980408 535.110840,292.749146 
	C536.459167,294.265747 537.518311,295.599609 538.625122,297.291809 
	C539.364197,299.140625 540.055481,300.631134 540.813843,302.489838 
	C542.274353,306.575195 543.667847,310.292297 545.068604,314.412048 
	C546.414062,323.134674 548.473328,331.414581 548.938293,339.783112 
	C549.867432,356.505249 546.608337,372.734711 541.437256,388.629608 
	C540.705200,390.879913 541.332703,393.572479 541.330933,396.060364 
z"/>
<path fill="#162648" opacity="1.000000" stroke="none" 
	d="
M1146.908936,491.934723 
	C1147.056396,491.855438 1147.203735,491.776184 1147.958740,492.134613 
	C1148.477661,500.493805 1148.388794,508.415375 1148.300049,516.336914 
	C1146.405884,517.457886 1144.564819,519.428284 1142.608154,519.550537 
	C1134.766235,520.040161 1126.801758,520.756348 1119.042969,519.912903 
	C1104.466431,518.328308 1096.557983,510.456238 1092.685425,496.615295 
	C1092.509033,495.984955 1092.222168,495.385559 1091.982300,493.956177 
	C1091.689819,489.497772 1091.179688,485.856506 1091.153320,482.211731 
	C1091.054199,468.566254 1091.146606,454.919464 1091.070435,441.273712 
	C1091.060913,439.559082 1090.475952,437.847687 1090.157715,436.134766 
	C1083.316895,436.171661 1076.475952,436.208557 1069.326660,435.625366 
	C1068.982788,426.358765 1068.947510,417.712250 1068.912231,409.065704 
	C1072.972900,409.018860 1077.035278,409.029999 1081.093750,408.908600 
	C1085.014893,408.791290 1090.240234,404.535034 1090.857544,400.625031 
	C1092.030029,393.199432 1093.137573,385.749725 1093.836182,378.269318 
	C1094.168091,374.715759 1095.587891,372.507690 1098.972900,372.151489 
	C1106.181274,371.393036 1113.420898,370.794220 1120.657959,370.651093 
	C1121.411499,370.636200 1122.925293,374.127472 1122.910278,375.982361 
	C1122.825562,386.404022 1122.380249,396.822754 1122.398682,407.979126 
	C1131.401855,408.715820 1140.064331,408.715820 1148.996460,408.715820 
	C1148.996460,418.166748 1148.996460,426.595184 1148.996460,435.023621 
	C1143.636597,435.339661 1138.279663,435.857239 1132.916382,435.931213 
	C1120.511353,436.102295 1122.125610,434.826843 1122.054932,446.903748 
	C1122.004517,455.535950 1121.788940,464.178589 1122.131714,472.797302 
	C1122.331543,477.822571 1123.260620,482.856689 1124.287354,487.798340 
	C1125.015137,491.300659 1132.943481,494.808716 1137.078857,493.810547 
	C1139.462402,493.235260 1141.821899,492.561340 1144.916016,491.936798 
	C1146.062744,491.939423 1146.485840,491.937073 1146.908936,491.934723 
z"/>
<path fill="#0C2248" opacity="1.000000" stroke="none" 
	d="
M478.036682,516.167297 
	C480.937744,511.496704 484.070312,507.337738 486.480804,502.795563 
	C500.452026,476.469086 514.247498,450.049377 528.134094,423.677887 
	C528.648071,422.701782 529.490112,421.898407 530.511719,420.900452 
	C528.799744,429.776917 526.827942,438.784760 524.686279,447.752045 
	C523.148743,454.189941 521.547363,460.621552 519.683044,466.970428 
	C516.809204,476.757202 513.771912,486.498383 510.645660,496.207977 
	C507.044006,507.394165 503.667023,518.676331 499.481171,529.645386 
	C492.644104,547.561890 484.299469,564.612366 471.490601,579.351685 
	C466.012939,585.654907 460.273102,591.089783 452.655762,594.091370 
	C440.083893,599.045227 428.974457,595.839600 422.896393,583.566162 
	C420.495056,578.717102 420.184418,572.824890 418.986542,567.393433 
	C418.705048,566.117065 418.685699,564.782837 418.288605,562.740906 
	C417.660034,548.719482 417.288605,535.432312 416.917145,522.145203 
	C416.710144,520.391113 416.503174,518.637024 416.242676,516.074463 
	C415.177277,508.929688 414.165344,502.593353 413.153381,496.256989 
	C411.855652,492.131897 410.557922,488.006805 409.237488,483.169617 
	C406.570709,478.523315 403.926605,474.589172 401.514954,470.443176 
	C401.895935,470.083313 402.044495,469.935333 402.526611,469.866058 
	C405.270172,471.621307 407.680206,473.297882 410.090210,474.974457 
	C410.090210,474.974457 410.000977,474.982666 409.867706,475.352173 
	C410.190613,475.810883 410.646759,475.900085 411.102936,475.989319 
	C411.102936,475.989319 411.030579,475.993835 410.722412,476.221863 
	C411.643555,477.640076 412.872833,478.830200 414.102112,480.020325 
	C414.102112,480.020325 413.982239,480.016479 413.901154,480.377167 
	C414.246643,480.819427 414.673248,480.901031 415.099823,480.982635 
	C415.099823,480.982635 415.026703,480.995392 414.700134,481.172424 
	C415.227814,482.548309 416.082031,483.747101 416.936249,484.945923 
	C420.299622,493.246552 424.387115,501.341736 426.817657,509.907074 
	C429.132874,518.066162 429.469910,526.765869 431.147736,535.133423 
	C432.391876,541.338013 434.328217,547.409119 436.066376,553.508301 
	C439.273407,564.761719 448.356964,563.294983 453.369995,557.870850 
	C458.476440,552.345642 463.035706,546.125671 466.824036,539.621338 
	C471.113678,532.256226 474.279907,524.236816 478.036682,516.167297 
z"/>
<path fill="#152548" opacity="1.000000" stroke="none" 
	d="
M1304.959229,362.055969 
	C1312.308960,362.011963 1319.658569,361.967987 1327.923828,361.989105 
	C1330.773071,362.054199 1332.706787,362.054199 1334.617554,362.054199 
	C1334.815308,363.014008 1334.998047,363.486786 1334.997803,363.959442 
	C1334.968018,415.589081 1334.924438,467.218750 1334.430054,518.950317 
	C1324.385498,519.052246 1314.792358,519.052246 1304.959229,519.052246 
	C1304.959229,466.280670 1304.959229,414.168304 1304.959229,362.055969 
z"/>
<path fill="#12264C" opacity="1.000000" stroke="none" 
	d="
M423.884888,259.093475 
	C438.296844,252.663147 452.301544,244.994095 467.215668,240.091278 
	C489.889099,232.637665 512.460999,234.663879 533.275879,247.180786 
	C542.790222,252.902191 549.802185,261.335724 554.694946,271.516663 
	C552.200439,271.654053 549.936890,271.817383 548.023804,271.076324 
	C542.955139,269.112885 538.202820,266.182739 533.020691,264.698517 
	C525.809814,262.633209 518.322083,261.534332 510.952881,260.021790 
	C505.034607,258.082947 499.116302,256.144104 492.538574,254.065002 
	C490.094452,253.560928 488.287842,252.803040 486.528809,252.900848 
	C478.512573,253.346619 470.509735,254.032928 462.502075,254.632751 
	C455.074524,256.232422 447.545288,257.472198 440.248016,259.533081 
	C432.954254,261.592957 425.892517,264.474304 417.919495,266.983521 
	C416.042145,267.119873 414.974365,267.268311 413.592651,267.460388 
	C414.898956,265.701721 415.935608,264.306091 416.972260,262.910431 
	C416.972260,262.910431 416.988525,262.982544 417.247986,263.255981 
	C418.017456,262.989258 418.527527,262.449066 419.037598,261.908875 
	C419.037598,261.908875 419.021790,262.022095 419.372437,262.085693 
	C419.805908,261.735870 419.888733,261.322388 419.971558,260.908936 
	C419.971558,260.908936 419.993927,260.982300 420.235413,261.285034 
	C420.996368,261.027344 421.515808,260.466949 422.035217,259.906555 
	C422.035217,259.906555 422.010193,260.003601 422.246765,260.162292 
	C422.950562,259.911835 423.417725,259.502655 423.884888,259.093475 
z"/>
<path fill="#103A77" opacity="1.000000" stroke="none" 
	d="
M541.621216,395.862488 
	C541.332703,393.572479 540.705200,390.879913 541.437256,388.629608 
	C546.608337,372.734711 549.867432,356.505249 548.938293,339.783112 
	C548.473328,331.414581 546.414062,323.134674 545.434143,314.398529 
	C546.728027,312.427887 548.778992,310.477356 548.393616,309.391846 
	C547.152832,305.897125 546.151428,301.479889 540.746826,302.121613 
	C540.055481,300.631134 539.364197,299.140625 539.099854,297.312195 
	C542.880127,297.589355 546.855469,297.278107 549.451050,299.021301 
	C554.180115,302.197327 558.551575,303.569855 563.790405,300.985596 
	C563.790405,300.985596 563.939697,301.400726 563.620483,301.808899 
	C563.251770,311.524658 563.430908,320.841400 563.061401,330.136292 
	C562.861023,335.175354 561.725769,340.177277 561.012268,345.195953 
	C558.907898,352.030640 557.186890,359.013916 554.609741,365.665405 
	C550.688538,375.785858 546.174072,385.676422 541.621216,395.862488 
z"/>
<path fill="#0D3F85" opacity="1.000000" stroke="none" 
	d="
M563.865967,300.556519 
	C558.551575,303.569855 554.180115,302.197327 549.451050,299.021301 
	C546.855469,297.278107 542.880127,297.589355 539.052185,296.953857 
	C537.518311,295.599609 536.459167,294.265747 534.965515,292.504669 
	C534.034790,291.085999 533.538513,290.094543 533.042236,289.103088 
	C529.861694,283.451813 527.203979,277.407562 523.341492,272.268890 
	C520.024719,267.856293 515.331055,264.478638 511.099579,260.332581 
	C518.322083,261.534332 525.809814,262.633209 533.020691,264.698517 
	C538.202820,266.182739 542.955139,269.112885 548.023804,271.076324 
	C549.936890,271.817383 552.200439,271.654053 554.742676,271.866882 
	C559.777283,280.744141 563.603271,289.895905 563.865967,300.556519 
z"/>
<path fill="#8E95A9" opacity="1.000000" stroke="none" 
	d="
M1304.571533,362.247498 
	C1304.959229,414.168304 1304.959229,466.280670 1304.959229,519.052246 
	C1314.792358,519.052246 1324.385498,519.052246 1334.464966,519.211670 
	C1334.976318,519.545105 1335.001221,519.719116 1335.026123,519.893066 
	C1324.898560,519.893066 1314.770874,519.893066 1304.387573,519.893066 
	C1304.279419,519.260254 1304.086914,518.658264 1304.086548,518.056213 
	C1304.053833,467.010956 1304.035522,415.965729 1304.024658,364.920471 
	C1304.024414,364.093323 1304.128296,363.266205 1304.571533,362.247498 
z"/>
<path fill="#BFC3CD" opacity="1.000000" stroke="none" 
	d="
M1335.450439,519.776489 
	C1335.001221,519.719116 1334.976318,519.545105 1334.916504,519.109741 
	C1334.924438,467.218750 1334.968018,415.589081 1334.997803,363.959442 
	C1334.998047,363.486786 1334.815308,363.014008 1334.617554,362.054199 
	C1332.706787,362.054199 1330.773071,362.054199 1328.388306,361.975708 
	C1330.434082,361.464325 1332.930908,361.031464 1336.011719,360.497345 
	C1336.011719,362.933929 1336.011597,364.873383 1336.011719,366.812836 
	C1336.015747,417.100372 1336.020508,467.387939 1336.017700,517.675476 
	C1336.017700,518.336914 1335.924438,518.998413 1335.450439,519.776489 
z"/>
<path fill="#ECECEF" opacity="1.000000" stroke="none" 
	d="
M653.597412,362.093597 
	C654.079651,381.829987 654.208801,401.767609 654.240601,421.705383 
	C654.291931,453.806366 654.279053,485.907440 654.026123,518.597351 
	C653.514343,519.129578 653.269836,519.072937 653.025330,519.016235 
	C653.014038,467.600403 653.001709,416.184570 653.000122,364.768738 
	C653.000122,363.944122 653.130920,363.119507 653.597412,362.093597 
z"/>
<path fill="#ECECEF" opacity="1.000000" stroke="none" 
	d="
M264.939819,443.383911 
	C266.181458,444.175507 267.461731,445.353363 269.856964,447.556915 
	C268.102295,442.269226 266.736908,438.154572 265.707581,433.903259 
	C271.083405,443.048615 275.488342,452.566986 277.047913,463.594879 
	C276.030884,461.753754 274.958527,459.483398 273.583099,456.634705 
	C272.991913,455.808105 272.703827,455.559845 272.415771,455.311554 
	C272.419403,456.029816 272.423035,456.748047 272.426697,457.466309 
	C273.295837,464.379242 274.165009,471.292145 275.016235,478.635071 
	C273.992676,475.841888 272.824432,472.659058 272.013367,469.387665 
	C269.996155,461.250885 270.307678,452.451599 265.034363,445.243011 
	C264.793884,444.914337 264.987213,444.268372 264.939819,443.383911 
z"/>
<path fill="#ECECEF" opacity="1.000000" stroke="none" 
	d="
M1023.633911,455.005524 
	C1024.245605,456.593109 1024.638672,458.393402 1024.643433,460.194763 
	C1024.694580,479.516998 1024.684448,498.839355 1024.741821,518.789673 
	C1024.792480,519.417664 1024.884033,519.767639 1024.884033,519.767639 
	C1024.244873,519.173767 1023.047668,518.580139 1023.047485,517.986084 
	C1023.040405,497.063629 1023.145630,476.141205 1023.633911,455.005524 
z"/>
<path fill="#8E95A9" opacity="1.000000" stroke="none" 
	d="
M653.072876,519.423584 
	C653.269836,519.072937 653.514343,519.129578 654.111145,519.053528 
	C680.788757,518.473022 707.114136,518.025208 733.705322,517.792236 
	C731.234741,518.724854 728.508545,520.009827 725.759949,520.059692 
	C715.232239,520.250549 704.695374,519.892578 694.165649,520.027466 
	C682.563782,520.176147 670.967102,520.705261 659.365417,520.909668 
	C657.290710,520.946228 655.202393,520.210205 653.072876,519.423584 
z"/>
<path fill="#BFC3CD" opacity="1.000000" stroke="none" 
	d="
M1282.818237,518.769592 
	C1282.837036,482.466461 1282.855835,446.163300 1282.931274,409.389130 
	C1283.332886,409.741272 1283.979126,410.564423 1283.979126,411.387573 
	C1283.978882,447.499664 1283.921387,483.611816 1283.376831,519.541382 
	C1282.861206,519.162415 1282.839722,518.966003 1282.818237,518.769592 
z"/>
<path fill="#BFC3CD" opacity="1.000000" stroke="none" 
	d="
M944.621582,409.136963 
	C944.987976,445.293518 944.963318,481.654297 944.960632,518.703613 
	C944.982666,519.392151 944.960449,519.847656 944.960449,519.847656 
	C944.650330,519.387268 944.068481,518.926697 944.068787,518.466553 
	C944.093506,482.091431 944.163696,445.716278 944.621582,409.136963 
z"/>
<path fill="#ECECEF" opacity="1.000000" stroke="none" 
	d="
M561.381958,345.016357 
	C561.725769,340.177277 562.861023,335.175354 563.061401,330.136292 
	C563.430908,320.841400 563.251770,311.524658 563.675598,302.022461 
	C564.711609,303.552216 565.869141,305.252625 565.953369,307.004669 
	C566.454163,317.412842 566.065430,327.761597 563.070618,337.870087 
	C562.402649,340.124634 562.179565,342.511078 561.381958,345.016357 
z"/>
<path fill="#D6DAE1" opacity="1.000000" stroke="none" 
	d="
M224.642715,306.980591 
	C223.218964,320.566742 222.495148,334.298004 224.899231,348.462128 
	C223.937958,346.513977 222.076050,344.145538 222.076935,341.777740 
	C222.080978,330.894104 222.582672,320.009796 222.996414,309.129181 
	C223.022430,308.444855 223.819000,307.789856 224.642715,306.980591 
z"/>
<path fill="#ECECEF" opacity="1.000000" stroke="none" 
	d="
M410.063110,474.616302 
	C407.680206,473.297882 405.270172,471.621307 402.333008,469.600708 
	C400.994446,469.256714 400.183075,469.256714 398.740845,469.256714 
	C399.975769,469.936127 400.629150,470.295563 401.282501,470.654999 
	C403.926605,474.589172 406.570709,478.523315 409.124542,482.837250 
	C404.447601,477.894531 399.860901,472.572021 395.295013,467.273682 
	C400.239075,464.868774 405.018433,467.093231 410.063110,474.616302 
z"/>
<path fill="#ECECEF" opacity="1.000000" stroke="none" 
	d="
M1055.753906,518.793762 
	C1055.754883,498.170441 1055.767090,477.547089 1055.735596,456.923828 
	C1055.733154,455.273468 1055.429443,453.623535 1055.168457,451.576782 
	C1055.725708,452.339905 1056.947266,453.498047 1056.950439,454.659607 
	C1057.011597,476.315613 1056.927856,497.972015 1056.386475,519.486938 
	C1055.850220,519.161682 1055.802124,518.977722 1055.753906,518.793762 
z"/>
<path fill="#ECECEF" opacity="1.000000" stroke="none" 
	d="
M975.760376,518.795898 
	C975.789429,499.713043 975.808228,480.630127 975.860657,461.547333 
	C975.867004,459.233826 976.054321,456.920837 976.522888,454.401306 
	C976.881470,475.993317 976.875000,497.791656 976.395874,519.461914 
	C975.868958,519.154541 975.814636,518.975220 975.760376,518.795898 
z"/>
<path fill="#ECECEF" opacity="1.000000" stroke="none" 
	d="
M416.537292,522.335205 
	C417.288605,535.432312 417.660034,548.719482 417.981262,562.468018 
	C417.275726,559.912476 416.109100,556.904236 416.057892,553.877014 
	C415.881104,543.429932 416.093384,532.976318 416.537292,522.335205 
z"/>
<path fill="#ECECEF" opacity="1.000000" stroke="none" 
	d="
M1090.098145,436.588928 
	C1090.475952,437.847687 1091.060913,439.559082 1091.070435,441.273712 
	C1091.146606,454.919464 1091.054199,468.566254 1091.153320,482.211731 
	C1091.179688,485.856506 1091.689819,489.497772 1091.962891,493.571350 
	C1091.286987,492.499847 1090.061035,491.001190 1090.051514,489.494873 
	C1089.940918,472.011627 1090.014160,454.527222 1090.098145,436.588928 
z"/>
<path fill="#8E95A9" opacity="1.000000" stroke="none" 
	d="
M1543.029297,427.821167 
	C1542.965576,430.189911 1542.600952,432.952942 1542.788452,435.677948 
	C1543.447388,445.255798 1544.296265,454.820587 1544.996460,464.837341 
	C1540.848999,453.101196 1539.222534,440.790314 1543.029297,427.821167 
z"/>
<path fill="#BFC3CD" opacity="1.000000" stroke="none" 
	d="
M714.961426,361.587433 
	C695.020264,362.117279 674.911499,362.227081 654.358704,362.152954 
	C654.554077,361.633301 655.193726,361.003937 655.832825,361.004456 
	C675.486511,361.020782 695.140198,361.098846 714.961426,361.587433 
z"/>
<path fill="#BFC3CD" opacity="1.000000" stroke="none" 
	d="
M1149.391235,434.830566 
	C1148.996460,426.595184 1148.996460,418.166748 1148.996460,408.715820 
	C1140.064331,408.715820 1131.401855,408.715820 1122.417725,408.460205 
	C1131.310059,408.204620 1140.523926,408.204620 1149.786011,408.204620 
	C1149.786011,417.147217 1149.786011,425.892365 1149.391235,434.830566 
z"/>
<path fill="#D6DAE1" opacity="1.000000" stroke="none" 
	d="
M462.874939,254.527618 
	C470.509735,254.032928 478.512573,253.346619 486.528809,252.900848 
	C488.287842,252.803040 490.094452,253.560928 492.242859,253.951096 
	C482.820282,254.125793 473.034027,254.274139 462.874939,254.527618 
z"/>
<path fill="#BFC3CD" opacity="1.000000" stroke="none" 
	d="
M975.816223,419.557312 
	C975.670776,416.532715 975.422852,413.089630 975.127075,408.982239 
	C965.371765,408.982239 955.623291,408.982239 945.401917,408.999146 
	C946.104553,408.685760 947.277771,408.079498 948.456177,408.069183 
	C957.549011,407.989532 966.642822,408.025299 976.459778,408.025299 
	C976.199158,411.907898 975.956421,415.523376 975.816223,419.557312 
z"/>
<path fill="#D6DAE1" opacity="1.000000" stroke="none" 
	d="
M1148.667847,516.534241 
	C1148.388794,508.415375 1148.477661,500.493805 1148.185181,492.242615 
	C1148.533813,491.890930 1149.263794,491.868896 1149.993774,491.846893 
	C1149.674438,500.141785 1149.355103,508.436676 1148.667847,516.534241 
z"/>
<path fill="#D6DAE1" opacity="1.000000" stroke="none" 
	d="
M533.018188,289.546997 
	C533.538513,290.094543 534.034790,291.085999 534.676331,292.321960 
	C534.412720,300.980408 534.003784,309.394348 533.379211,318.053009 
	C533.107117,308.862091 533.050659,299.426483 533.018188,289.546997 
z"/>
<path fill="#D6DAE1" opacity="1.000000" stroke="none" 
	d="
M416.605896,262.929932 
	C415.935608,264.306091 414.898956,265.701721 413.592651,267.460388 
	C414.974365,267.268311 416.042145,267.119873 417.543457,266.997131 
	C415.327118,270.205048 412.198334,271.634583 406.961090,269.589203 
	C410.532837,267.033234 413.386200,264.991364 416.605896,262.929932 
z"/>
<path fill="#BFC3CD" opacity="1.000000" stroke="none" 
	d="
M225.305130,351.976624 
	C226.915237,358.456177 228.515015,365.346710 230.063660,372.656372 
	C226.559067,366.608429 224.790634,359.757172 225.305130,351.976624 
z"/>
<path fill="#D6DAE1" opacity="1.000000" stroke="none" 
	d="
M322.004395,591.361145 
	C324.630554,592.028076 327.296295,593.664551 330.093964,593.934692 
	C334.438751,594.354187 338.873383,593.843384 343.682922,593.862305 
	C336.246399,598.241272 329.035767,596.320801 322.004395,591.361145 
z"/>
<path fill="#D6DAE1" opacity="1.000000" stroke="none" 
	d="
M500.619568,300.203827 
	C499.065063,302.772186 497.414764,305.027802 495.825470,307.325653 
	C494.704803,308.945892 493.667053,310.623413 492.249908,312.134399 
	C493.572449,308.391113 495.082672,304.702362 497.013184,301.248474 
	C497.483948,300.406219 499.333923,300.334900 500.619568,300.203827 
z"/>
<path fill="#8E95A9" opacity="1.000000" stroke="none" 
	d="
M1282.374390,518.887817 
	C1282.839722,518.966003 1282.861206,519.162415 1282.945068,519.648560 
	C1272.823853,519.896484 1262.640259,519.854614 1252.272461,519.422241 
	C1262.035645,519.023132 1271.983154,519.014648 1282.374390,518.887817 
z"/>
<path fill="#8E95A9" opacity="1.000000" stroke="none" 
	d="
M1055.308716,518.884521 
	C1055.802124,518.977722 1055.850220,519.161682 1055.969727,519.621704 
	C1045.968994,519.907654 1035.896851,519.917480 1025.354492,519.847534 
	C1024.884033,519.767639 1024.792480,519.417664 1024.861816,519.250610 
	C1034.908691,519.047485 1044.886108,519.011414 1055.308716,518.884521 
z"/>
<path fill="#8E95A9" opacity="1.000000" stroke="none" 
	d="
M975.315247,518.889648 
	C975.814636,518.975220 975.868958,519.154541 975.986084,519.607788 
	C965.999084,519.897217 955.949219,519.912842 945.429932,519.888062 
	C944.960449,519.847656 944.982666,519.392151 945.012329,519.166016 
	C954.984680,518.954468 964.927368,518.968933 975.315247,518.889648 
z"/>
<path fill="#D6DAE1" opacity="1.000000" stroke="none" 
	d="
M413.149536,496.696655 
	C414.165344,502.593353 415.177277,508.929688 416.102753,515.720459 
	C412.799316,510.169495 412.883667,503.666290 413.149536,496.696655 
z"/>
<path fill="#BFC3CD" opacity="1.000000" stroke="none" 
	d="
M1282.872681,408.629150 
	C1273.033325,409.065735 1262.982910,409.114563 1252.466309,409.120789 
	C1252.588013,408.719604 1253.176514,408.048340 1253.763916,408.049164 
	C1263.396606,408.063080 1273.029175,408.161774 1282.872681,408.629150 
z"/>
<path fill="#ECECEF" opacity="1.000000" stroke="none" 
	d="
M1068.519897,409.250610 
	C1068.947510,417.712250 1068.982788,426.358765 1068.964966,435.466003 
	C1068.607788,432.593597 1068.113647,429.264557 1068.043091,425.926514 
	C1067.927002,420.432556 1068.085083,414.932831 1068.519897,409.250610 
z"/>
<path fill="#BFC3CD" opacity="1.000000" stroke="none" 
	d="
M231.614166,283.002319 
	C230.842896,286.553894 229.699280,290.192657 228.269547,294.070160 
	C229.069565,290.569092 230.155701,286.829315 231.614166,283.002319 
z"/>
<path fill="#ECECEF" opacity="1.000000" stroke="none" 
	d="
M279.755310,473.073303 
	C278.671600,470.509979 277.623840,467.558380 276.793274,464.255371 
	C277.937408,466.830963 278.864349,469.757996 279.755310,473.073303 
z"/>
<path fill="#ECECEF" opacity="1.000000" stroke="none" 
	d="
M258.940186,434.348907 
	C260.156097,435.527924 261.412567,437.064178 262.307617,438.837769 
	C260.957703,437.618805 259.969208,436.162476 258.940186,434.348907 
z"/>
<path fill="#ECECEF" opacity="1.000000" stroke="none" 
	d="
M255.939392,429.355713 
	C257.071564,430.473297 258.243225,431.955048 259.199768,433.766724 
	C257.982697,432.637726 256.980804,431.178802 255.939392,429.355713 
z"/>
<path fill="#ECECEF" opacity="1.000000" stroke="none" 
	d="
M414.057434,479.648132 
	C412.872833,478.830200 411.643555,477.640076 410.730865,476.186646 
	C412.035889,477.040863 413.024323,478.158386 414.057434,479.648132 
z"/>
<path fill="#ECECEF" opacity="1.000000" stroke="none" 
	d="
M261.944122,439.377319 
	C263.076599,440.157501 264.239197,441.279205 265.194702,442.749420 
	C263.983154,441.971588 262.978699,440.845184 261.944122,439.377319 
z"/>
<path fill="#ECECEF" opacity="1.000000" stroke="none" 
	d="
M416.951324,484.586517 
	C416.082031,483.747101 415.227814,482.548309 414.715576,481.138672 
	C415.693848,482.027618 416.330139,483.127350 416.951324,484.586517 
z"/>
<path fill="#D6DAE1" opacity="1.000000" stroke="none" 
	d="
M491.648193,311.992981 
	C491.542450,313.005280 491.102692,314.101105 490.283997,315.101318 
	C490.374786,314.029327 490.844482,313.052887 491.648193,311.992981 
z"/>
<path fill="#BFC3CD" opacity="1.000000" stroke="none" 
	d="
M234.556824,278.007507 
	C234.496552,279.079559 234.046661,280.104645 233.254730,281.066010 
	C233.330872,279.988373 233.749054,278.974457 234.556824,278.007507 
z"/>
<path fill="#D6DAE1" opacity="1.000000" stroke="none" 
	d="
M423.560974,259.069336 
	C423.417725,259.502655 422.950562,259.911835 422.198029,260.150696 
	C422.354156,259.668701 422.795624,259.356964 423.560974,259.069336 
z"/>
<path fill="#D6DAE1" opacity="1.000000" stroke="none" 
	d="
M344.298157,594.057373 
	C344.484344,593.523743 345.005798,592.954590 345.799866,592.719604 
	C345.592773,593.376526 345.113068,593.699158 344.298157,594.057373 
z"/>
<path fill="#D6DAE1" opacity="1.000000" stroke="none" 
	d="
M349.372345,589.989380 
	C349.122681,589.409729 349.198914,588.741272 349.683746,588.015991 
	C349.960999,588.606323 349.829620,589.253479 349.372345,589.989380 
z"/>
<path fill="#D6DAE1" opacity="1.000000" stroke="none" 
	d="
M350.336426,588.006470 
	C350.118652,587.435913 350.233185,586.780457 350.702209,586.042847 
	C350.927368,586.614319 350.798035,587.267944 350.336426,588.006470 
z"/>
<path fill="#D6DAE1" opacity="1.000000" stroke="none" 
	d="
M421.701385,259.948212 
	C421.515808,260.466949 420.996368,261.027344 420.202362,261.265594 
	C420.407684,260.625580 420.887604,260.307709 421.701385,259.948212 
z"/>
<path fill="#ECECEF" opacity="1.000000" stroke="none" 
	d="
M255.036438,427.346283 
	C255.528732,427.524567 256.011841,428.031952 256.232483,428.813782 
	C255.655746,428.617310 255.341492,428.146362 255.036438,427.346283 
z"/>
<path fill="#D6DAE1" opacity="1.000000" stroke="none" 
	d="
M418.702637,261.951965 
	C418.527527,262.449066 418.017456,262.989258 417.214539,263.240234 
	C417.403656,262.632355 417.885651,262.313721 418.702637,261.951965 
z"/>
<path fill="#BFC3CD" opacity="1.000000" stroke="none" 
	d="
M232.643509,280.985046 
	C232.883286,281.611084 232.784821,282.304779 232.299377,283.008453 
	C232.043350,282.363190 232.174301,281.707947 232.643509,280.985046 
z"/>
<path fill="#D6DAE1" opacity="1.000000" stroke="none" 
	d="
M1146.844238,491.651672 
	C1146.485840,491.937073 1146.062744,491.939423 1145.319824,491.970886 
	C1145.593262,491.789520 1146.186401,491.579071 1146.844238,491.651672 
z"/>
<path fill="#D6DAE1" opacity="1.000000" stroke="none" 
	d="
M489.651825,314.992371 
	C489.890625,315.489746 489.819000,316.058075 489.415405,316.744080 
	C489.169434,316.262299 489.255432,315.662842 489.651825,314.992371 
z"/>
<path fill="#D6DAE1" opacity="1.000000" stroke="none" 
	d="
M419.690125,260.969727 
	C419.888733,261.322388 419.805908,261.735870 419.315430,262.081299 
	C419.074768,261.685669 419.241730,261.358093 419.690125,260.969727 
z"/>
<path fill="#ECECEF" opacity="1.000000" stroke="none" 
	d="
M415.031555,480.701599 
	C414.673248,480.901031 414.246643,480.819427 413.900330,480.317200 
	C414.308167,480.071228 414.635712,480.245880 415.031555,480.701599 
z"/>
<path fill="#D6DAE1" opacity="1.000000" stroke="none" 
	d="
M351.034424,585.891663 
	C351.223602,586.131958 351.459930,586.047058 351.686493,585.575684 
	C351.561066,585.529358 351.362701,585.655090 351.034424,585.891663 
z"/>
<path fill="#ECECEF" opacity="1.000000" stroke="none" 
	d="
M411.035828,475.708984 
	C410.646759,475.900085 410.190613,475.810883 409.865204,475.307434 
	C410.320221,475.071686 410.644440,475.250183 411.035828,475.708984 
z"/>
<path fill="#D6DAE1" opacity="1.000000" stroke="none" 
	d="
M320.973694,590.271118 
	C321.333313,590.125183 321.754578,590.262207 322.091797,590.747864 
	C321.683624,590.915771 321.359497,590.734924 320.973694,590.271118 
z"/>
<path fill="#D6DAE1" opacity="1.000000" stroke="none" 
	d="
M348.290649,591.047058 
	C348.109314,590.619568 348.214935,590.142944 348.707214,589.841064 
	C348.921753,590.343201 348.749695,590.670593 348.290649,591.047058 
z"/>
<path fill="#D6DAE1" opacity="1.000000" stroke="none" 
	d="
M347.292603,592.045837 
	C347.110901,591.647461 347.217773,591.198853 347.710327,590.877197 
	C347.924408,591.334656 347.752808,591.665100 347.292603,592.045837 
z"/>
<path fill="#D6DAE1" opacity="1.000000" stroke="none" 
	d="
M346.307861,593.040405 
	C346.104279,592.647217 346.186218,592.202637 346.682312,591.879883 
	C346.928802,592.330811 346.761108,592.659912 346.307861,593.040405 
z"/>
<path fill="#BFC3CD" opacity="1.000000" stroke="none" 
	d="
M230.071045,373.107239 
	C230.120331,373.149323 230.333710,373.308350 230.707306,373.577637 
	C230.520279,373.718781 230.309479,373.564240 230.071045,373.107239 
z"/>
<path fill="#000000" opacity="1.000000" stroke="none" 
	d="
M720.063477,392.092346 
	C737.213867,395.242645 749.932678,404.118774 756.672546,420.600311 
	C757.659424,423.013550 758.194519,425.611572 758.579346,428.681030 
	C758.135071,430.386108 757.982422,431.533875 757.976746,432.682373 
	C757.950439,437.960144 757.879639,443.240204 758.012207,448.514771 
	C758.057861,450.331970 758.647339,452.135437 758.988403,453.945190 
	C756.426025,465.274475 750.766113,474.510651 741.312561,481.534821 
	C734.436218,486.644104 726.813477,489.506927 718.448242,489.905243 
	C709.309387,490.340363 700.132812,489.934326 690.973877,490.021759 
	C687.670166,490.053284 685.451965,489.325897 685.617432,485.382660 
	C685.685120,483.771423 685.014526,482.137695 685.012817,480.513824 
	C684.982788,451.702271 685.004211,422.890717 685.476685,393.589569 
	C692.496277,392.740601 699.050171,392.273804 705.612244,392.057434 
	C710.423706,391.898865 715.246033,392.068817 720.063477,392.092346 
z"/>
<path fill="#103A77" opacity="1.000000" stroke="none" 
	d="
M719.758728,391.796387 
	C715.246033,392.068817 710.423706,391.898865 705.612244,392.057434 
	C699.050171,392.273804 692.496277,392.740601 685.519409,393.133118 
	C685.831482,392.470367 686.563538,391.168976 687.294556,391.169556 
	C698.014465,391.177948 708.734192,391.359863 719.758728,391.796387 
z"/>
<path fill="#ECECEF" opacity="1.000000" stroke="none" 
	d="
M759.041382,453.505066 
	C758.647339,452.135437 758.057861,450.331970 758.012207,448.514771 
	C757.879639,443.240204 757.950439,437.960144 757.976746,432.682373 
	C757.982422,431.533875 758.135071,430.386108 758.615845,429.068573 
	C759.039307,436.954407 759.066895,445.009644 759.041382,453.505066 
z"/>
<path fill="#000000" opacity="1.000000" stroke="none" 
	d="
M1598.754150,486.290955 
	C1586.933594,479.444305 1579.314819,470.186279 1575.732666,456.968933 
	C1572.842407,446.304565 1573.151001,435.832367 1576.372803,425.978729 
	C1581.283936,410.957611 1591.840332,400.077362 1607.514160,396.178650 
	C1629.984741,390.589294 1648.959717,401.170471 1658.558105,420.574890 
	C1664.587891,432.765015 1664.816772,445.867676 1660.503052,459.221222 
	C1655.146973,475.801941 1643.827148,485.698517 1627.561523,489.492371 
	C1618.136597,491.690674 1608.049805,492.280334 1598.754150,486.290955 
z"/>
<path fill="#000000" opacity="1.000000" stroke="none" 
	d="
M1212.862549,435.761414 
	C1231.072876,429.268738 1247.177368,440.817535 1251.259277,457.237885 
	C1255.353638,473.709503 1246.175659,488.440369 1229.210815,493.576202 
	C1210.079712,499.367828 1192.065430,482.107330 1192.858887,464.892151 
	C1193.509033,450.785583 1200.413574,439.710663 1212.862549,435.761414 
z"/>
<path fill="#000000" opacity="1.000000" stroke="none" 
	d="
M841.885681,450.115814 
	C845.807068,436.417145 866.688660,425.903687 882.472351,436.086487 
	C888.624573,440.055542 893.768555,444.514282 894.471802,452.624695 
	C876.710999,453.045990 859.403320,453.048462 842.095642,453.050964 
	C842.095642,453.050964 841.724121,452.924316 841.471924,452.592743 
	C841.156250,451.860992 841.092651,451.460815 841.029053,451.060638 
	C841.029053,451.060638 841.050720,451.033508 841.262085,450.943085 
	C841.749451,450.684509 841.886841,450.438873 841.885681,450.115814 
z"/>
<path fill="#103A77" opacity="1.000000" stroke="none" 
	d="
M842.390137,453.329987 
	C859.403320,453.048462 876.710999,453.045990 894.479675,453.016785 
	C894.370911,453.285553 893.800476,453.840240 893.231567,453.838776 
	C876.382507,453.796082 859.533508,453.698181 842.390137,453.329987 
z"/>
<path fill="#103A77" opacity="1.000000" stroke="none" 
	d="
M840.770020,451.204285 
	C841.092651,451.460815 841.156250,451.860992 841.278809,452.557861 
	C841.062195,452.352325 840.786621,451.850128 840.770020,451.204285 
z"/>
<path fill="#103A77" opacity="1.000000" stroke="none" 
	d="
M841.693481,450.204041 
	C841.886841,450.438873 841.749451,450.684509 841.265747,450.926086 
	C841.121704,450.711029 841.269531,450.475311 841.693481,450.204041 
z"/>
<path fill="#0D3F85" opacity="1.000000" stroke="none" 
	d="
M540.813843,302.489838 
	C546.151428,301.479889 547.152832,305.897125 548.393616,309.391846 
	C548.778992,310.477356 546.728027,312.427887 545.426880,313.995911 
	C543.667847,310.292297 542.274353,306.575195 540.813843,302.489838 
z"/>
<path fill="#0B2045" opacity="1.000000" stroke="none" 
	d="
M272.683136,457.261169 
	C272.423035,456.748047 272.419403,456.029816 272.415771,455.311554 
	C272.703827,455.559845 272.991913,455.808105 273.361938,456.345825 
	C273.275787,456.775513 273.107697,456.915771 272.683136,457.261169 
z"/>
<path fill="#0C2248" opacity="1.000000" stroke="none" 
	d="
M401.514954,470.443176 
	C400.629150,470.295563 399.975769,469.936127 398.740845,469.256714 
	C400.183075,469.256714 400.994446,469.256714 401.999420,469.522034 
	C402.044495,469.935333 401.895935,470.083313 401.514954,470.443176 
z"/>
</svg>