<?xml version="1.0" encoding="UTF-8"?>
<svg version="1.1" xmlns="http://www.w3.org/2000/svg" width="1902" height="827">
<path d="M0 0 C3.23975111 1.89903348 6.51548904 3.56720797 9.89453125 5.203125 C16.05236645 8.21963211 21.96407744 11.57584624 27.89453125 15.015625 C53.92845025 30.03421746 77.33207377 35.61782125 107.33203125 34.953125 C107.33203125 35.943125 107.33203125 36.933125 107.33203125 37.953125 C103.93714187 38.93558473 100.54096196 39.91350833 97.14453125 40.890625 C96.18482422 41.16841797 95.22511719 41.44621094 94.23632812 41.73242188 C93.30498047 41.99990234 92.37363281 42.26738281 91.4140625 42.54296875 C90.56046143 42.78909912 89.70686035 43.03522949 88.82739258 43.28881836 C71.29926234 47.95509782 50.59224406 46.11134952 33.33203125 40.953125 C32.35685547 40.66824219 31.38167969 40.38335937 30.37695312 40.08984375 C16.25147276 35.8807797 2.83822198 30.58572849 -10.51412964 24.41201782 C-29.22234551 15.76757927 -49.01095921 7.98518809 -69.76171875 13.85546875 C-78.35515035 17.10110622 -90.44792774 24.51304297 -94.66796875 32.953125 C-95.32796875 32.953125 -95.98796875 32.953125 -96.66796875 32.953125 C-96.99796875 34.273125 -97.32796875 35.593125 -97.66796875 36.953125 C-98.32796875 36.953125 -98.98796875 36.953125 -99.66796875 36.953125 C-99.78398437 37.51386719 -99.9 38.07460938 -100.01953125 38.65234375 C-100.74675364 41.23266898 -101.80716557 43.3876401 -103.04296875 45.765625 C-103.71392578 47.09207031 -103.71392578 47.09207031 -104.3984375 48.4453125 C-104.81738281 49.27289063 -105.23632812 50.10046875 -105.66796875 50.953125 C-108.22457501 56.16102664 -109.35466381 61.00605634 -110.23828125 66.6953125 C-110.66796875 68.953125 -110.66796875 68.953125 -111.66796875 69.953125 C-112.57155649 74.93653628 -112.80363294 79.80590079 -112.765625 84.85546875 C-112.76350258 85.93931602 -112.76350258 85.93931602 -112.76133728 87.0450592 C-112.755791 89.32695865 -112.74324895 91.60875579 -112.73046875 93.890625 C-112.72544679 95.44856628 -112.72088511 97.00650912 -112.71679688 98.56445312 C-112.70583925 102.36071581 -112.68861247 106.15690313 -112.66796875 109.953125 C-112.00796875 109.953125 -111.34796875 109.953125 -110.66796875 109.953125 C-110.54679687 110.82195312 -110.425625 111.69078125 -110.30078125 112.5859375 C-110.13320312 113.73835937 -109.965625 114.89078125 -109.79296875 116.078125 C-109.63054687 117.21507812 -109.468125 118.35203125 -109.30078125 119.5234375 C-108.69000353 122.83370195 -107.79669575 125.78687978 -106.66796875 128.953125 C-105.94951716 131.13732272 -105.24130652 133.32491354 -104.54296875 135.515625 C-104.18976563 136.61003906 -103.8365625 137.70445312 -103.47265625 138.83203125 C-102.73135918 141.70725631 -102.50332521 144.00600558 -102.66796875 146.953125 C-102.00796875 146.953125 -101.34796875 146.953125 -100.66796875 146.953125 C-100.48621094 147.51 -100.30445313 148.066875 -100.1171875 148.640625 C-98.86257807 152.44949055 -97.57941403 156.22314102 -96.10546875 159.953125 C-94.48373641 164.18669995 -93.54164992 168.51276892 -92.66796875 172.953125 C-92.00796875 172.953125 -91.34796875 172.953125 -90.66796875 172.953125 C-89.43603555 176.14738659 -88.20619883 179.34241417 -86.98046875 182.5390625 C-86.2165671 184.52611621 -85.44807821 186.51144082 -84.66796875 188.4921875 C-83.5097045 191.46580821 -82.66796875 193.7307741 -82.66796875 196.953125 C-82.00796875 196.953125 -81.34796875 196.953125 -80.66796875 196.953125 C-80.54679687 197.62859375 -80.425625 198.3040625 -80.30078125 199 C-80.04941406 200.33804688 -80.04941406 200.33804688 -79.79296875 201.703125 C-79.54933594 203.02570313 -79.54933594 203.02570313 -79.30078125 204.375 C-78.69586241 206.83948416 -77.852172 208.72458503 -76.66796875 210.953125 C-74.88230423 216.53332662 -73.75596248 222.20064752 -72.66796875 227.953125 C-72.00796875 227.953125 -71.34796875 227.953125 -70.66796875 227.953125 C-70.34183594 228.88253906 -70.01570313 229.81195313 -69.6796875 230.76953125 C-66.96685191 238.56346617 -66.96685191 238.56346617 -63.85546875 246.203125 C-62.66796875 248.953125 -62.66796875 248.953125 -62.66796875 250.953125 C-62.00796875 250.953125 -61.34796875 250.953125 -60.66796875 250.953125 C-54.73335921 262.47663868 -54.73335921 262.47663868 -52.91796875 267.640625 C-52.064179 271.03790972 -52.064179 271.03790972 -49.66796875 271.953125 C-49.67844238 271.17187256 -49.68891602 270.39062012 -49.69970703 269.58569336 C-49.74147083 266.02070374 -49.76735973 262.45576578 -49.79296875 258.890625 C-49.80972656 257.66150391 -49.82648438 256.43238281 -49.84375 255.16601562 C-49.87697725 249.00236009 -49.7536635 243.76441189 -47.66796875 237.953125 C-47.50296875 236.7775 -47.33796875 235.601875 -47.16796875 234.390625 C-46.67405521 230.99496942 -45.78741053 228.19178587 -44.66796875 224.953125 C-44.23673191 223.66457998 -43.80711415 222.37549226 -43.37890625 221.0859375 C-42.14192708 217.375 -40.90494792 213.6640625 -39.66796875 209.953125 C-39.00796875 209.953125 -38.34796875 209.953125 -37.66796875 209.953125 C-37.17296875 206.983125 -37.17296875 206.983125 -36.66796875 203.953125 C-36.00796875 203.953125 -35.34796875 203.953125 -34.66796875 203.953125 C-34.17296875 200.983125 -34.17296875 200.983125 -33.66796875 197.953125 C-33.00796875 197.953125 -32.34796875 197.953125 -31.66796875 197.953125 C-31.590625 197.25960937 -31.51328125 196.56609375 -31.43359375 195.8515625 C-30.47244256 192.2129187 -28.60182787 189.57374609 -26.41796875 186.578125 C-26.01118896 186.00811768 -25.60440918 185.43811035 -25.18530273 184.85083008 C-24.01704202 183.21526508 -22.84265662 181.58408004 -21.66796875 179.953125 C-20.68866326 178.51571957 -19.70946079 177.07824394 -18.73046875 175.640625 C-18.04984375 174.75375 -17.36921875 173.866875 -16.66796875 172.953125 C-16.00796875 172.953125 -15.34796875 172.953125 -14.66796875 172.953125 C-14.33796875 171.963125 -14.00796875 170.973125 -13.66796875 169.953125 C-13.00796875 169.953125 -12.34796875 169.953125 -11.66796875 169.953125 C-11.39984375 169.355 -11.13171875 168.756875 -10.85546875 168.140625 C-9.66879469 165.95464646 -8.57197762 164.53979906 -6.66796875 162.953125 C-6.00796875 162.953125 -5.34796875 162.953125 -4.66796875 162.953125 C-4.33796875 161.963125 -4.00796875 160.973125 -3.66796875 159.953125 C-0.22352431 156.953125 -0.22352431 156.953125 2.33203125 156.953125 C2.66203125 155.963125 2.99203125 154.973125 3.33203125 153.953125 C5.67376186 152.16256508 8.00285323 150.51303688 10.45703125 148.890625 C11.18132324 148.40456787 11.90561523 147.91851074 12.65185547 147.41772461 C14.15394169 146.41061063 15.65803479 145.40648377 17.1640625 144.40527344 C19.11097272 143.10119439 21.03729426 141.77328962 22.95703125 140.4296875 C32.77843172 133.61556715 43.17009133 127.99991071 53.70068359 122.36523438 C62.83745899 117.46199547 71.85267848 112.54656082 80.24609375 106.42578125 C82.53258898 104.81153275 84.94285742 103.52508262 87.40234375 102.1953125 C91.19614111 99.75315145 94.55285449 96.70911064 97.9765625 93.78125 C100.33203125 91.953125 100.33203125 91.953125 102.33203125 91.953125 C102.33203125 91.293125 102.33203125 90.633125 102.33203125 89.953125 C107.80822173 84.953125 107.80822173 84.953125 110.33203125 84.953125 C110.33203125 84.293125 110.33203125 83.633125 110.33203125 82.953125 C111.98588358 81.60392968 113.65373325 80.27178772 115.33203125 78.953125 C116.32203125 77.468125 116.32203125 77.468125 117.33203125 75.953125 C117.99203125 75.953125 118.65203125 75.953125 119.33203125 75.953125 C119.66203125 74.963125 119.99203125 73.973125 120.33203125 72.953125 C120.99203125 72.953125 121.65203125 72.953125 122.33203125 72.953125 C122.60015625 72.39109375 122.86828125 71.8290625 123.14453125 71.25 C124.41242915 68.79761854 125.82175467 66.51384817 127.33203125 64.203125 C127.84765625 63.40390625 128.36328125 62.6046875 128.89453125 61.78125 C129.36890625 61.17796875 129.84328125 60.5746875 130.33203125 59.953125 C130.99203125 59.953125 131.65203125 59.953125 132.33203125 59.953125 C132.73808594 58.90898437 132.73808594 58.90898437 133.15234375 57.84375 C134.41582736 54.74779678 135.77136417 51.72323295 137.20703125 48.703125 C137.94566406 47.11757813 137.94566406 47.11757813 138.69921875 45.5 C140.33203125 42.953125 140.33203125 42.953125 142.43408203 42.29394531 C143.06040527 42.18147461 143.68672852 42.06900391 144.33203125 41.953125 C144.57309877 48.50104002 143.88264147 53.87865282 142.01953125 60.140625 C141.80619141 60.90826172 141.59285156 61.67589844 141.37304688 62.46679688 C140.10107748 66.89780668 138.54557218 70.88306588 136.33203125 74.953125 C135.67203125 74.953125 135.01203125 74.953125 134.33203125 74.953125 C134.23921875 75.82710938 134.14640625 76.70109375 134.05078125 77.6015625 C132.77477187 83.55164972 128.83559914 88.08273309 125.33203125 92.953125 C124.92758789 93.52063477 124.52314453 94.08814453 124.10644531 94.67285156 C118.887341 101.96309451 118.887341 101.96309451 116.33203125 104.953125 C115.67203125 104.953125 115.01203125 104.953125 114.33203125 104.953125 C114.33203125 105.613125 114.33203125 106.273125 114.33203125 106.953125 C112.9765625 108.28515625 112.9765625 108.28515625 111.14453125 109.765625 C107.393442 112.87258781 103.96460862 116.19961598 100.64453125 119.765625 C99.33203125 120.953125 99.33203125 120.953125 97.33203125 120.953125 C97.00203125 121.943125 96.67203125 122.933125 96.33203125 123.953125 C82.46980742 136.41897097 65.72519219 147.08706707 49.66015625 156.47265625 C47.53352349 157.82499487 46.05466959 159.14081508 44.33203125 160.953125 C42.99704125 162.03962181 41.6418937 163.1017338 40.26953125 164.140625 C39.57730469 164.67042969 38.88507813 165.20023438 38.171875 165.74609375 C36.33203125 166.953125 36.33203125 166.953125 34.33203125 166.953125 C34.00203125 167.943125 33.67203125 168.933125 33.33203125 169.953125 C31.765625 171.49609375 31.765625 171.49609375 29.76953125 173.140625 C14.51713817 186.19862405 3.75109807 201.86863486 -2.66796875 220.953125 C-2.94511719 221.63246094 -3.22226562 222.31179688 -3.5078125 223.01171875 C-6.38084532 230.3443846 -6.7340913 238.21017391 -7.41845703 245.98950195 C-7.66796875 247.953125 -7.66796875 247.953125 -8.18652344 249.93994141 C-8.69976737 252.08609224 -8.79729946 253.97156053 -8.80078125 256.17578125 C-8.80207031 256.96146484 -8.80335938 257.74714844 -8.8046875 258.55664062 C-8.80082031 259.36810547 -8.79695313 260.17957031 -8.79296875 261.015625 C-8.79683594 261.83095703 -8.80070312 262.64628906 -8.8046875 263.48632812 C-8.80339844 264.27072266 -8.80210937 265.05511719 -8.80078125 265.86328125 C-8.79908936 266.93267944 -8.79908936 266.93267944 -8.79736328 268.02368164 C-8.7346216 270.17323304 -8.7346216 270.17323304 -7.66796875 272.953125 C-7.47921054 274.39963455 -7.32819654 275.85128575 -7.203125 277.3046875 C-7.12513672 278.15675781 -7.04714844 279.00882813 -6.96679688 279.88671875 C-6.81131686 281.65739198 -6.65762131 283.42822297 -6.50585938 285.19921875 C-6.04304447 290.21869097 -5.32470925 295.02875521 -4.12915039 299.92797852 C-3.2983976 303.57599039 -2.92403354 307.225298 -2.66796875 310.953125 C-2.60222656 311.90445312 -2.53648437 312.85578125 -2.46875 313.8359375 C-2.18730291 321.42530388 -2.89738859 328.77855411 -8.19921875 334.6484375 C-13.32226518 339.04320772 -17.01030916 339.31252014 -23.57421875 339.21875 C-32.4565348 338.4561269 -38.72196665 332.15214847 -44.66796875 325.953125 C-47.24449901 322.75660127 -49.48504792 319.42742721 -51.66796875 315.953125 C-52.168125 315.19644531 -52.66828125 314.43976563 -53.18359375 313.66015625 C-57.9418178 306.18473583 -61.27398441 298.10787587 -64.66796875 289.953125 C-64.95236816 289.27958984 -65.23676758 288.60605469 -65.52978516 287.91210938 C-68.57884541 280.67609578 -71.17247982 273.67981782 -72.66796875 265.953125 C-73.01859375 265.086875 -73.36921875 264.220625 -73.73046875 263.328125 C-74.66796875 260.953125 -74.66796875 260.953125 -75.16796875 257.390625 C-75.45623273 254.12734125 -75.45623273 254.12734125 -76.60546875 252.1015625 C-80.63553333 243.95253486 -81.19728716 233.82389655 -82.23828125 224.875 C-82.35421219 222.06798064 -82.35421219 222.06798064 -83.66796875 220.953125 C-84.24656312 217.33691021 -84.69932555 213.71010978 -85.16796875 210.078125 C-85.33223843 207.09335205 -85.33223843 207.09335205 -86.66796875 205.953125 C-86.94128091 204.12312184 -87.18618525 202.28885034 -87.41796875 200.453125 C-88.91224729 191.22568235 -93.57783046 184.83401501 -99.01953125 177.41015625 C-100.84349322 174.69150203 -102.22529564 171.89052643 -103.66796875 168.953125 C-104.86617629 166.88472601 -106.07530263 164.82262887 -107.29296875 162.765625 C-124.66796875 132.80971666 -124.66796875 132.80971666 -124.66796875 120.953125 C-125.32796875 120.953125 -125.98796875 120.953125 -126.66796875 120.953125 C-132.17764346 101.1508255 -132.17764346 101.1508255 -132.4296875 93.9609375 C-132.57750158 91.85843099 -132.57750158 91.85843099 -133.6640625 89.73754883 C-135.43588203 84.82324879 -135.00064919 79.70200586 -134.98364258 74.52758789 C-134.98052746 72.55284095 -135.0046514 70.57811122 -135.02929688 68.60351562 C-135.03758174 52.07521451 -130.8899158 35.81957983 -123.66796875 20.953125 C-123.00796875 20.953125 -122.34796875 20.953125 -121.66796875 20.953125 C-121.61382812 20.26476562 -121.5596875 19.57640625 -121.50390625 18.8671875 C-120.34787639 14.83728901 -118.0456589 12.41960778 -115.29296875 9.328125 C-114.79796875 8.75578125 -114.30296875 8.1834375 -113.79296875 7.59375 C-108.88920441 1.95573217 -108.88920441 1.95573217 -106.66796875 -0.046875 C-106.00796875 -0.046875 -105.34796875 -0.046875 -104.66796875 -0.046875 C-104.33796875 -1.036875 -104.00796875 -2.026875 -103.66796875 -3.046875 C-72.97588053 -26.78606298 -30.93345343 -18.52471954 0 0 Z " fill="#13284C" transform="translate(355.66796875,256.046875)"/>
<path d="M0 0 C0 0.66 0 1.32 0 2 C0.721875 2.20625 1.44375 2.4125 2.1875 2.625 C5.97218384 4.47528988 7.52258653 6.60240438 10 10 C10 10.66 10 11.32 10 12 C10.66 12 11.32 12 12 12 C12.33 13.32 12.66 14.64 13 16 C13.66 16 14.32 16 15 16 C18.05109112 21.88510856 20.89843643 27.70724999 23 34 C23.268125 34.79277344 23.53625 35.58554687 23.8125 36.40234375 C25.39521754 41.34072684 26.40098206 46.01309413 26.7890625 51.1875 C26.90707367 53.0981644 26.90707367 53.0981644 28 55 C28.24398641 58.66102626 28.18521592 62.33176436 28.1875 66 C28.19974609 67.00417969 28.21199219 68.00835937 28.22460938 69.04296875 C28.23587318 74.84758388 27.78001866 80.2004513 26.47973633 85.86206055 C25.90717216 88.26322526 25.90717216 88.26322526 25.5 91.8125 C25.01834372 94.88305878 24.15938007 97.13491327 23 100 C22.35728641 102.03615987 21.7334651 104.07834468 21.125 106.125 C19.2922633 112.16751912 17.22580797 118.09213736 15 124 C14.34 124 13.68 124 13 124 C12.90332031 124.83917969 12.80664062 125.67835938 12.70703125 126.54296875 C11.90759117 130.45183323 10.4338134 133.76084545 8.6875 137.3125 C8.04771714 138.64951959 7.40839152 139.98675808 6.76953125 141.32421875 C6.46225098 141.96149902 6.1549707 142.5987793 5.83837891 143.25537109 C2.56727822 150.06238493 -0.1992543 157.01202499 -2.8515625 164.08203125 C-4 167 -4 167 -5.0859375 169.0546875 C-6.21469793 171.45692123 -6.58516405 173.69384804 -7 176.3125 C-7.69556023 180.66596181 -8.78090653 184.76365021 -10 189 C-10.86559417 192.49243201 -11.68225637 195.99609244 -12.5 199.5 C-13.87201605 205.37888089 -15.30994798 211.20446762 -17 217 C-17.35371498 218.66246041 -17.69595322 220.32774271 -18 222 C-18.66 222 -19.32 222 -20 222 C-20.07347656 223.01320313 -20.07347656 223.01320313 -20.1484375 224.046875 C-20.22320313 224.93890625 -20.29796875 225.8309375 -20.375 226.75 C-20.44460938 227.63171875 -20.51421875 228.5134375 -20.5859375 229.421875 C-21.00387733 232.02414187 -21.78392285 233.68945342 -23 236 C-23.33465367 237.36517448 -23.62490726 238.74183404 -23.875 240.125 C-24.58391768 243.54678379 -25.57511329 246.5956097 -26.9375 249.8125 C-28.90684802 254.50246583 -30.11098664 259.20482781 -31.2734375 264.1484375 C-32.23109331 267.9069791 -33.54872192 271.40635904 -35 275 C-35.66 275 -36.32 275 -37 275 C-37.061875 275.928125 -37.12375 276.85625 -37.1875 277.8125 C-37.9552464 283.29799242 -40.63420911 288.05468633 -43 293 C-43.474375 294.134375 -43.94875 295.26875 -44.4375 296.4375 C-46.75657794 301.72499771 -49.38805881 306.85219358 -52 312 C-52.66 312 -53.32 312 -54 312 C-54.33 313.65 -54.66 315.3 -55 317 C-55.66 317 -56.32 317 -57 317 C-57.20625 317.66 -57.4125 318.32 -57.625 319 C-59.49124252 323.07180186 -61.97561527 326.68796998 -65 330 C-65.66 330 -66.32 330 -67 330 C-67.37125 330.86818359 -67.37125 330.86818359 -67.75 331.75390625 C-71.87218664 339.16096036 -80.30043288 344.02980275 -88 347 C-95.49489673 348.74693082 -100.82205478 348.27236072 -107.62109375 344.62890625 C-111.30060997 342.10943455 -114.03655091 339.01469469 -116 335 C-116 333.68 -116 332.36 -116 331 C-116.66 331 -117.32 331 -118 331 C-118.12117188 330.01 -118.24234375 329.02 -118.3671875 328 C-118.53620565 326.66663461 -118.70549088 325.33330306 -118.875 324 C-119.03742188 322.700625 -119.19984375 321.40125 -119.3671875 320.0625 C-119.74060297 317.36493425 -120.27777964 315.00223634 -121.01586914 312.35107422 C-122.2055246 307.6653851 -122.33119642 303.13577873 -122.37890625 298.3203125 C-122.39590073 297.42633759 -122.4128952 296.53236267 -122.43040466 295.61129761 C-122.48312471 292.78260166 -122.52367833 289.95391806 -122.5625 287.125 C-122.60646492 284.27472759 -122.65310281 281.4245661 -122.70530701 278.57443237 C-122.73721565 276.80720444 -122.7641208 275.03987767 -122.78553772 273.27249146 C-122.73744261 269.00056145 -122.73744261 269.00056145 -124 265 C-124.21772478 263.61368175 -124.3896878 262.21996991 -124.53515625 260.82421875 C-124.62216797 259.99599609 -124.70917969 259.16777344 -124.79882812 258.31445312 C-124.88583984 257.44755859 -124.97285156 256.58066406 -125.0625 255.6875 C-125.15337891 254.83220703 -125.24425781 253.97691406 -125.33789062 253.09570312 C-125.75479036 249.04895462 -126.12601603 245.07451824 -126 241 C-126.66 241 -127.32 241 -128 241 C-128.391875 239.824375 -128.78375 238.64875 -129.1875 237.4375 C-130.34255112 234.3110876 -131.70386413 231.80178135 -133.6875 229.125 C-136 226 -136 226 -136 224 C-136.598125 223.731875 -137.19625 223.46375 -137.8125 223.1875 C-139.97224808 222.01506533 -141.35790256 220.80630718 -143 219 C-142.505 218.01 -142.505 218.01 -142 217 C-135.54744971 217.2633694 -132.4514478 219.42552224 -128 224 C-125.9375 226.3125 -125.9375 226.3125 -124 229 C-123.49210937 229.68191406 -122.98421875 230.36382812 -122.4609375 231.06640625 C-119.09358862 235.78229058 -117.24767512 239.17963469 -117 245 C-116.34 245 -115.68 245 -115 245 C-110.54368371 258.82136678 -106.70185424 272.39085758 -107 287 C-106.34 287 -105.68 287 -105 287 C-104.83564453 288.2684375 -104.83564453 288.2684375 -104.66796875 289.5625 C-103.39019149 301.42284184 -103.39019149 301.42284184 -97 311 C-93.10324586 312.01654456 -89.82773714 312.38223841 -86 311 C-85.31873476 309.67406641 -84.65404058 308.339572 -84 307 C-82.9892225 305.84716728 -81.94411381 304.72394955 -80.875 303.625 C-69.80255587 291.24043672 -61.01130705 272.96012544 -58.52734375 256.61328125 C-58 254 -58 254 -57.0703125 251.71875 C-55.59137203 247.96202529 -54.79289603 244.12622471 -53.9375 240.1875 C-53.76412109 239.41857422 -53.59074219 238.64964844 -53.41210938 237.85742188 C-52.57880849 234.07404427 -51.88181397 230.33862942 -51.44140625 226.48828125 C-51 223 -51 223 -50 222 C-49.77329092 220.44246949 -49.60564908 218.87622641 -49.46484375 217.30859375 C-49.37783203 216.36435547 -49.29082031 215.42011719 -49.20117188 214.44726562 C-49.11416016 213.45404297 -49.02714844 212.46082031 -48.9375 211.4375 C-48.80118164 209.94186523 -48.80118164 209.94186523 -48.66210938 208.41601562 C-48.43741186 205.94434298 -48.21689649 203.47236744 -48 201 C-49.49660156 201.433125 -49.49660156 201.433125 -51.0234375 201.875 C-75.68179674 208.45837192 -97.76596089 206.02935855 -120 194 C-120 192.68 -120 191.36 -120 190 C-119.46375 189.8040625 -118.9275 189.608125 -118.375 189.40625 C-98.30645935 181.74851738 -76.17909165 170.358992 -61 155 C-59.44313962 153.55269927 -57.86834975 152.12655878 -56.29296875 150.69946289 C-51.37765087 146.24387688 -46.68888006 141.77848061 -42.42578125 136.6796875 C-40.42055565 134.31736693 -38.18987618 132.18987618 -36 130 C-35.34 129.01 -34.68 128.02 -34 127 C-33.34 127 -32.68 127 -32 127 C-31.67 125.68 -31.34 124.36 -31 123 C-30.34 123 -29.68 123 -29 123 C-28.86271484 122.17048828 -28.86271484 122.17048828 -28.72265625 121.32421875 C-27.79866903 118.35247608 -26.25761482 116.33786479 -24.4375 113.8125 C-20.96720448 108.73233815 -18.16470853 103.57258094 -15.5625 98 C-15.22081787 97.27014893 -14.87913574 96.54029785 -14.52709961 95.78833008 C-13.04090045 92.53833166 -11.79432439 89.49560608 -11 86 C-10.34 86 -9.68 86 -9 86 C-8.92652344 85.02160156 -8.92652344 85.02160156 -8.8515625 84.0234375 C-8.22063531 76.64811623 -8.22063531 76.64811623 -7 73.0625 C-3.23265321 61.52500045 -3.26345145 44.52439719 -8.15234375 33.37109375 C-15.2390128 20.8271006 -25.0072626 11.88511769 -38.796875 7.54296875 C-55.21706821 3.49614808 -74.6833272 4.77296078 -91 9 C-91.7945459 9.20399414 -92.5890918 9.40798828 -93.40771484 9.61816406 C-103.82643143 12.36846504 -113.46996863 15.79574693 -123.03125 20.77734375 C-126 22 -126 22 -128.40625 21.69140625 C-129.19515625 21.34916016 -129.19515625 21.34916016 -130 21 C-125.84701324 15.15958915 -120.90781888 12.18066012 -114.6875 8.75 C-113.68074219 8.18933838 -112.67398437 7.62867676 -111.63671875 7.05102539 C-78.97552134 -10.73730157 -32.82617357 -26.59589981 0 0 Z " fill="#076DEF" transform="translate(537,248)"/>
<path d="M0 0 C1.17600266 -0.00315216 2.35200531 -0.00630432 3.56364441 -0.009552 C4.8488649 -0.00752777 6.13408539 -0.00550354 7.45825195 -0.00341797 C9.4372625 -0.00485306 9.4372625 -0.00485306 11.45625305 -0.00631714 C14.26332763 -0.00779606 17.07037051 -0.00563777 19.87744141 -0.00097656 C23.43524376 0.00464937 26.99296948 0.00148912 30.55076885 -0.00454903 C33.3127141 -0.00821115 36.07464206 -0.00698932 38.83658791 -0.00442123 C40.7737648 -0.00344786 42.71094243 -0.00643716 44.64811707 -0.009552 C72.0789174 0.06149784 92.85197365 4.47920486 113.31762695 23.77783203 C115.5090332 26.12939453 115.5090332 26.12939453 115.5090332 28.12939453 C116.9940332 28.62439453 116.9940332 28.62439453 118.5090332 29.12939453 C118.5090332 30.11939453 118.5090332 31.10939453 118.5090332 32.12939453 C119.1690332 32.12939453 119.8290332 32.12939453 120.5090332 32.12939453 C121.96966171 34.77678369 122.5090332 36.02387787 122.5090332 39.12939453 C123.1690332 39.12939453 123.8290332 39.12939453 124.5090332 39.12939453 C131.08153606 52.34112615 132.68852836 65.72406316 132.6965332 80.31689453 C132.7087793 81.47253906 132.72102539 82.62818359 132.73364258 83.81884766 C132.75305547 95.34363343 131.36284296 105.62966022 126.5090332 116.12939453 C126.1377832 116.96341797 125.7665332 117.79744141 125.3840332 118.65673828 C122.55673507 124.69264779 119.1449889 130.29492184 114.5090332 135.12939453 C113.8490332 135.12939453 113.1890332 135.12939453 112.5090332 135.12939453 C112.3027832 135.68626953 112.0965332 136.24314453 111.8840332 136.81689453 C109.93220289 140.09951825 107.56672326 141.83612699 104.5090332 144.12939453 C103.8490332 144.12939453 103.1890332 144.12939453 102.5090332 144.12939453 C102.5090332 144.78939453 102.5090332 145.44939453 102.5090332 146.12939453 C95.16200118 150.88960981 87.97021092 154.68895828 79.5090332 157.06689453 C78.48060303 157.36503052 78.48060303 157.36503052 77.43139648 157.66918945 C65.93443084 160.6664891 53.66287646 160.28121908 41.8684082 160.26220703 C40.52557355 160.26288305 39.18273902 160.26385553 37.83990479 160.2651062 C35.06016852 160.26656309 32.28046484 160.26449027 29.50073242 160.25976562 C25.93651691 160.25400212 22.37237564 160.25740117 18.80816269 160.26333809 C15.39073844 160.26780462 11.97333457 160.26468786 8.5559082 160.26220703 C7.275849 160.26423126 5.99578979 160.26625549 4.67694092 160.26834106 C3.50101379 160.2651889 2.32508667 160.26203674 1.11352539 160.25878906 C0.07653503 160.25799347 -0.96045532 160.25719788 -2.02886963 160.25637817 C-4.4909668 160.12939453 -4.4909668 160.12939453 -6.4909668 159.12939453 C-6.51429401 138.54602615 -6.5319451 117.96265994 -6.54277897 97.37928104 C-6.54794231 87.82275514 -6.55498572 78.26623744 -6.56640625 68.7097168 C-6.57635194 60.38337446 -6.58281995 52.05703806 -6.58505529 43.73068994 C-6.58636259 39.31914596 -6.58944968 34.90761896 -6.59669685 30.4960804 C-6.60345526 26.34869066 -6.60558413 22.201325 -6.60407448 18.05393028 C-6.60435089 16.52725723 -6.60635707 15.00058341 -6.61017227 13.4739151 C-6.61510674 11.39855994 -6.61396603 9.32329711 -6.61122131 7.24794006 C-6.61214311 6.08371552 -6.6130649 4.91949099 -6.61401463 3.71998692 C-6.39171713 -0.96016236 -4.14949046 0.00317674 0 0 Z M25.5090332 33.12939453 C25.43952922 44.9079294 25.38621981 56.68641548 25.35359669 68.46511364 C25.33793939 73.93441701 25.31669975 79.4035801 25.28271484 84.87280273 C25.25012398 90.15069775 25.23218067 95.42845781 25.22440147 100.70644569 C25.2188575 102.7202905 25.20803153 104.7341279 25.19184303 106.74791527 C25.17007256 109.56819001 25.16706614 112.38790674 25.16845703 115.20825195 C25.1576712 116.04119278 25.14688538 116.87413361 25.13577271 117.73231506 C25.16024192 122.31621529 25.44060767 125.45746028 28.5090332 129.12939453 C31.39676835 129.85271882 31.39676835 129.85271882 34.72387695 129.68798828 C36.59076172 129.67735352 36.59076172 129.67735352 38.49536133 129.66650391 C39.79924805 129.63363281 41.10313477 129.60076172 42.4465332 129.56689453 C43.71561523 129.56109375 44.98469727 129.55529297 46.29223633 129.54931641 C60.87481747 129.36226431 73.72411735 128.01329337 84.9465332 117.94189453 C96.1049549 105.69484633 100.18591132 93.95198733 99.6262207 77.28564453 C99.58754883 76.57408203 99.54887695 75.86251953 99.5090332 75.12939453 C99.49098633 74.29408203 99.47293945 73.45876953 99.4543457 72.59814453 C99.07350077 64.80202478 96.57910457 58.25513213 93.5090332 51.12939453 C92.8490332 51.12939453 92.1890332 51.12939453 91.5090332 51.12939453 C91.0140332 49.14939453 91.0140332 49.14939453 90.5090332 47.12939453 C89.8490332 47.12939453 89.1890332 47.12939453 88.5090332 47.12939453 C88.25250977 46.53126953 87.99598633 45.93314453 87.73168945 45.31689453 C84.19485546 38.98901263 76.1236281 35.38207786 69.5090332 33.12939453 C60.70911951 31.08352289 52.00767847 30.82219975 43.0090332 30.87939453 C41.7612207 30.87166016 40.5134082 30.86392578 39.2277832 30.85595703 C38.0315332 30.85853516 36.8352832 30.86111328 35.6027832 30.86376953 C33.98919922 30.86715332 33.98919922 30.86715332 32.34301758 30.87060547 C29.50046659 31.1301768 27.97815261 31.79678435 25.5090332 33.12939453 Z " fill="#1F2E4E" transform="translate(658.490966796875,359.87060546875)"/>
<path d="M0 0 C1.07378906 0.31710937 2.14757813 0.63421875 3.25390625 0.9609375 C15.6824361 5.17856135 26.31377863 13.25015969 35 23 C35.70125 23.763125 36.4025 24.52625 37.125 25.3125 C51.13060394 45.38719899 56.08516975 69.58813411 51.81640625 93.6484375 C47.01526306 113.35839377 36.09311121 130.64252664 19 142 C-0.83672665 153.53420265 -23.43044581 157.80074214 -46 152 C-56.64678145 149.04687814 -67.76732539 143.40015696 -76 136 C-76 135.34 -76 134.68 -76 134 C-76.58265625 133.75636719 -77.1653125 133.51273438 -77.765625 133.26171875 C-88.11898858 127.41532638 -94.90573073 111.08357533 -98.375 100.1875 C-98.93903854 98.13100552 -99.48280684 96.06877265 -100 94 C-100.22429687 93.1853125 -100.44859375 92.370625 -100.6796875 91.53125 C-105.31025586 72.50151701 -100.81302722 50.60198449 -91.125 33.875 C-85.35152388 24.61399261 -85.35152388 24.61399261 -82 21 C-81.34 21 -80.68 21 -80 21 C-79.34 19.68 -78.68 18.36 -78 17 C-77.34 17 -76.68 17 -76 17 C-75.67 16.01 -75.34 15.02 -75 14 C-72.94321164 12.41282517 -70.93841665 11.00695961 -68.75 9.625 C-68.12609375 9.22724365 -67.5021875 8.8294873 -66.859375 8.41967773 C-60.8875928 4.73020595 -54.65812548 2.20461868 -48 0 C-47.05125 -0.35191406 -46.1025 -0.70382812 -45.125 -1.06640625 C-31.1230806 -5.24947967 -13.79825264 -4.11438806 0 0 Z M-59.14453125 43.66796875 C-68.88856883 55.91468546 -70.11614685 69.97136884 -69 85 C-68.41017101 88.58044627 -67.4526427 91.68216407 -66 95 C-65.63648438 95.84949219 -65.27296875 96.69898438 -64.8984375 97.57421875 C-59.3576837 109.53152292 -51.08102078 115.99777421 -39.140625 121.23828125 C-28.70802146 124.9506128 -16.23214433 123.80894384 -6 120 C-2.47911898 118.26272318 0.9190046 116.44707378 4 114 C4 113.34 4 112.68 4 112 C4.58910156 111.75894531 5.17820312 111.51789063 5.78515625 111.26953125 C12.50840762 107.41581574 16.60109575 97.98042645 19.1171875 90.95703125 C22.58046101 77.78756937 21.12862842 62.45306362 14.6796875 50.56640625 C13.24520001 48.24222297 11.70762232 46.13053812 10 44 C9.44828125 43.31164062 8.8965625 42.62328125 8.328125 41.9140625 C1.36344223 34.14576249 -9.27658023 28.43035531 -19.72265625 27.76171875 C-35.74061542 27.35128628 -47.8787827 31.90751667 -59.14453125 43.66796875 Z " fill="#0973F2" transform="translate(1642,366)"/>
<path d="M0 0 C5.85127589 4.96320991 11.11159969 10.35489954 15.375 16.75 C15.30859375 18.6953125 15.30859375 18.6953125 14.375 20.75 C7.4335563 26.97336331 -2.23891836 34.30726307 -11.625 35.75 C-12.00269531 35.18152344 -12.38039063 34.61304688 -12.76953125 34.02734375 C-18.70952801 25.69465508 -26.6760496 19.74524651 -36.69921875 17.1875 C-50.34913063 15.14639168 -61.74660983 16.59122663 -73.375 24.375 C-83.66029232 32.29804972 -89.14453038 43.55638693 -91.3046875 56.203125 C-92.97330789 69.470692 -90.24251595 82.35359714 -82.53515625 93.3828125 C-75.75926425 101.77993019 -66.31933908 107.78937117 -55.625 109.75 C-42.52411762 110.66820953 -31.01835467 109.20149647 -20.625 100.75 C-19.27446454 99.43409365 -17.93193833 98.10921586 -16.625 96.75 C-15.965 96.75 -15.305 96.75 -14.625 96.75 C-14.398125 95.945625 -14.17125 95.14125 -13.9375 94.3125 C-12.625 91.75 -12.625 91.75 -10.30639648 90.94067383 C-7.06578012 90.71023393 -6.0411594 91.29615365 -3.41015625 93.13671875 C-2.64123047 93.66330078 -1.87230469 94.18988281 -1.08007812 94.73242188 C-0.29052734 95.29509766 0.49902344 95.85777344 1.3125 96.4375 C2.09818359 96.98083984 2.88386719 97.52417969 3.69335938 98.08398438 C5.22388043 99.14318179 6.75056806 100.2079447 8.27294922 101.27880859 C10.9444612 103.1485567 13.653237 104.9544228 16.375 106.75 C13.23166074 113.57863356 7.9859993 119.78025777 2.375 124.75 C1.715 124.75 1.055 124.75 0.375 124.75 C0.375 125.41 0.375 126.07 0.375 126.75 C-1.78341244 128.30834317 -3.9080213 129.70034862 -6.1875 131.0625 C-6.85918213 131.46404297 -7.53086426 131.86558594 -8.22290039 132.27929688 C-26.29469971 142.69619249 -49.43937682 144.87729763 -69.625 139.75 C-88.28766457 134.01689359 -104.69118054 121.7282347 -114.625 104.75 C-124.73604821 84.94109546 -128.78770311 61.87200033 -121.94921875 40.30078125 C-113.7829868 18.40371681 -102.04884392 1.25589465 -80.3359375 -9.12109375 C-54.33870569 -19.94703034 -22.46297459 -17.7909234 0 0 Z " fill="#0A74F1" transform="translate(1519.625,378.25)"/>
<path d="M0 0 C1.8046875 1.46484375 1.8046875 1.46484375 4.8046875 4.46484375 C4.8046875 0.50484375 4.8046875 -3.45515625 4.8046875 -7.53515625 C9.20124923 -7.55981129 13.5977747 -7.57799467 17.99438477 -7.59008789 C19.49113668 -7.59512746 20.98788366 -7.60195912 22.48461914 -7.6105957 C24.63168557 -7.62267784 26.77868712 -7.62838816 28.92578125 -7.6328125 C30.86602173 -7.64066772 30.86602173 -7.64066772 32.84545898 -7.64868164 C35.8046875 -7.53515625 35.8046875 -7.53515625 36.8046875 -6.53515625 C36.90026786 -5.09301626 36.92657144 -3.64621546 36.92494202 -2.20091248 C36.92700401 -0.79789383 36.92700401 -0.79789383 36.92910767 0.63346863 C36.92371475 2.18497368 36.92371475 2.18497368 36.91821289 3.76782227 C36.91835892 4.85061462 36.91850494 5.93340698 36.9186554 7.04901123 C36.91795573 10.64727749 36.91016083 14.24549272 36.90234375 17.84375 C36.90047976 20.33096793 36.89905577 22.81818623 36.89805603 25.30540466 C36.894621 31.19505566 36.88673027 37.08468765 36.87670654 42.97433084 C36.86444996 50.33509749 36.85906541 57.69586639 36.85351562 65.05664062 C36.84277565 78.19271956 36.82517763 91.3287764 36.8046875 104.46484375 C26.2446875 104.46484375 15.6846875 104.46484375 4.8046875 104.46484375 C4.8046875 100.83484375 4.8046875 97.20484375 4.8046875 93.46484375 C3.8146875 94.37234375 2.8246875 95.27984375 1.8046875 96.21484375 C-9.62622367 105.96676796 -23.11041965 106.38685469 -37.50292969 105.703125 C-47.92613105 104.78065089 -58.14801004 100.10679609 -66.1953125 93.46484375 C-66.1953125 92.80484375 -66.1953125 92.14484375 -66.1953125 91.46484375 C-66.78441406 91.21863281 -67.37351562 90.97242188 -67.98046875 90.71875 C-75.42484457 86.50420919 -81.18914436 75.53435025 -83.4453125 67.46484375 C-83.6928125 66.47484375 -83.9403125 65.48484375 -84.1953125 64.46484375 C-84.5253125 64.13484375 -84.8553125 63.80484375 -85.1953125 63.46484375 C-87.52308158 50.01551129 -86.91180419 36.8936031 -81.1953125 24.46484375 C-80.79570313 23.57539063 -80.39609375 22.6859375 -79.984375 21.76953125 C-73.29409397 8.19560847 -61.51800573 -1.40761333 -47.3203125 -6.41015625 C-31.44728011 -11.32768393 -13.62173765 -9.6894247 0 0 Z M-40.1953125 22.46484375 C-40.89398437 22.86574219 -41.59265625 23.26664062 -42.3125 23.6796875 C-48.30331007 27.57936575 -52.08137033 32.63158418 -54.1953125 39.46484375 C-55.00246385 46.20151026 -55.34806441 54.00658803 -53.1953125 60.46484375 C-52.5353125 60.46484375 -51.8753125 60.46484375 -51.1953125 60.46484375 C-51.0715625 61.04234375 -50.9478125 61.61984375 -50.8203125 62.21484375 C-49.40640421 67.30491359 -47.25193627 69.49519334 -42.9453125 72.58984375 C-42.01203125 73.27304687 -41.07875 73.95625 -40.1171875 74.66015625 C-33.12739789 78.97737924 -26.21992744 79.24421283 -18.1953125 78.46484375 C-12.25193178 76.83350038 -7.57881476 73.73594851 -3.1953125 69.46484375 C-3.1953125 68.80484375 -3.1953125 68.14484375 -3.1953125 67.46484375 C-2.5353125 67.46484375 -1.8753125 67.46484375 -1.1953125 67.46484375 C-0.92976563 66.84996094 -0.66421875 66.23507812 -0.390625 65.6015625 C-0.03742188 64.79332031 0.31578125 63.98507812 0.6796875 63.15234375 C1.20175781 61.95158203 1.20175781 61.95158203 1.734375 60.7265625 C2.8046875 58.46484375 2.8046875 58.46484375 4.8046875 55.46484375 C5.96703454 46.16606744 4.79658409 38.42452544 -0.1953125 30.46484375 C-2.54949626 27.52511094 -2.54949626 27.52511094 -5.1953125 25.46484375 C-5.9584375 24.76359375 -6.7215625 24.06234375 -7.5078125 23.33984375 C-17.41934312 16.42482238 -29.90801824 16.22597137 -40.1953125 22.46484375 Z " fill="#1B2B4C" transform="translate(1246.1953125,414.53515625)"/>
<path d="M0 0 C3.59118812 3.128458 6.84372337 6.43608617 10 10 C10.51304687 10.56203125 11.02609375 11.1240625 11.5546875 11.703125 C18.18960918 19.86284235 20.28831047 30.75981109 21.4375 40.9375 C21.5305542 41.72995117 21.6236084 42.52240234 21.71948242 43.33886719 C21.79013916 44.10231445 21.8607959 44.86576172 21.93359375 45.65234375 C21.99603271 46.32257568 22.05847168 46.99280762 22.12280273 47.68334961 C21.94936869 50.95515006 20.96923371 53.88398313 20 57 C2.98279188 57.09330178 -14.0271615 56.81874107 -31.04125977 56.53643799 C-34.76967491 56.47492965 -38.49811995 56.41528898 -42.2265625 56.35546875 C-49.48440466 56.23875771 -56.74221226 56.12005276 -64 56 C-63.38033155 57.59922344 -62.75566214 59.19650966 -62.12890625 60.79296875 C-61.78158447 61.68266357 -61.4342627 62.5723584 -61.07641602 63.48901367 C-58.24392384 70.09644892 -53.82658311 73.37748756 -47.3671875 76.08203125 C-38.67839368 78.45078594 -27.99463132 78.65315852 -19.9140625 74.36328125 C-16.98577513 72.27762351 -14.46359744 69.82574539 -12.01953125 67.1953125 C-10 66 -10 66 -7.23828125 66.5234375 C-3.42745114 68.2610657 0.07499263 70.28654919 3.625 72.5 C4.92888914 73.30338051 6.23355435 74.1055031 7.5390625 74.90625 C8.14008789 75.27492188 8.74111328 75.64359375 9.36035156 76.0234375 C11.1954781 77.11642531 13.06468292 78.0961971 15 79 C14.41763917 84.24124746 10.44926554 86.83490417 6.609375 89.921875 C-10.74653409 103.11236591 -30.0320661 105.40764661 -51.40039062 102.6953125 C-63.23807456 100.48771397 -74.53403861 93.4496807 -83 85 C-84.28125 82.25390625 -84.28125 82.25390625 -85 80 C-85.66 80 -86.32 80 -87 80 C-91.66502147 72.03442974 -95.1195366 65.07881338 -95.7890625 55.78515625 C-95.81581232 53.97777247 -95.81581232 53.97777247 -97 53 C-97.07313567 50.46950598 -97.09247527 47.96695163 -97.0625 45.4375 C-97.05798828 44.72658203 -97.05347656 44.01566406 -97.04882812 43.28320312 C-97.03700864 41.52209987 -97.01907263 39.76103964 -97 38 C-96.34 38 -95.68 38 -95 38 C-95.061875 37.05125 -95.12375 36.1025 -95.1875 35.125 C-95.21810541 30.15672169 -93.57575543 25.6616098 -92 21 C-91.34 21 -90.68 21 -90 21 C-89.87625 20.236875 -89.7525 19.47375 -89.625 18.6875 C-89 16 -89 16 -87 13 C-86.34 13 -85.68 13 -85 13 C-84.75765625 12.26523437 -84.5153125 11.53046875 -84.265625 10.7734375 C-79.42245917 0.1603272 -66.4239349 -5.15010149 -56.140625 -9.09765625 C-37.54437825 -14.74482158 -15.60567726 -11.49661938 0 0 Z M-60 25 C-62.9882084 29.66293967 -62.9882084 29.66293967 -64 35 C-46.18 35 -28.36 35 -10 35 C-12.86746422 25.44178593 -14.18054587 22.32082612 -22.12890625 17.78515625 C-35.65436076 10.78579581 -49.87393091 13.40401766 -60 25 Z " fill="#1C2B4C" transform="translate(904,417)"/>
<path d="M0 0 C0.6909375 0.25523437 1.381875 0.51046875 2.09375 0.7734375 C8.30727498 3.46103362 13.39389654 8.11073445 18 13 C18 13.66 18 14.32 18 15 C18.66 15 19.32 15 20 15 C23 20.75 23 20.75 23 23 C23.66 23 24.32 23 25 23 C26.96439709 29.02909295 28.31282319 34.70087927 29 41 C29.33 41.33 29.66 41.66 30 42 C30.0942174 44.11681317 30.11742761 46.23680758 30.11352539 48.35571289 C30.11367142 49.01910172 30.11381744 49.68249054 30.1139679 50.36598206 C30.11326881 52.56823956 30.10547665 54.77041345 30.09765625 56.97265625 C30.09579206 58.49580336 30.09436816 60.01895107 30.09336853 61.542099 C30.08954346 65.55837651 30.07971328 69.57461808 30.06866455 73.59088135 C30.0566555 78.40579739 30.05204814 83.22072544 30.04621124 88.03565216 C30.03650151 95.35712647 30.01734491 102.67852185 30 110 C18.78 110 7.56 110 -4 110 C-4.05607422 102.54212891 -4.05607422 102.54212891 -4.11328125 94.93359375 C-4.14357335 91.7753566 -4.17472921 88.61717496 -4.20898438 85.45898438 C-4.26322005 80.45111962 -4.31433337 75.44336467 -4.34643555 70.43530273 C-4.37253098 66.39562855 -4.41297685 62.35632507 -4.46318626 58.31688118 C-4.47981295 56.77924285 -4.49135331 55.24154047 -4.49761391 53.703825 C-4.50730122 51.54231188 -4.535413 49.3817382 -4.56762695 47.22045898 C-4.57873001 45.99246078 -4.58983307 44.76446259 -4.60127258 43.49925232 C-5.22797622 37.99926894 -6.77761196 34.19522386 -10.8125 30.25 C-17.93843897 25.21992543 -23.30395998 23.971559 -32 25 C-39.07678303 27.16138201 -44.55865628 32.1070371 -48.14855957 38.5630188 C-50.15605302 44.3088392 -49.60601386 50.74655151 -49.609375 56.77734375 C-49.62437043 58.31435375 -49.64110044 59.85134772 -49.65948486 61.38832092 C-49.70301826 65.41436539 -49.72312607 69.44019254 -49.73822021 73.46643066 C-49.76129802 78.30750784 -49.81371142 83.14834706 -49.86116028 87.98923492 C-49.92981431 95.32621845 -49.96139184 102.66251994 -50 110 C-60.89 110 -71.78 110 -83 110 C-83.02254797 95.54466854 -83.04091331 81.08934867 -83.05181217 66.63400364 C-83.05697489 59.92258132 -83.06401713 53.21117068 -83.07543945 46.49975586 C-83.08626565 40.02886264 -83.09227626 33.55798158 -83.09487724 27.08708 C-83.09673198 24.61221055 -83.1003535 22.1373418 -83.10573006 19.66247749 C-83.11293693 16.20929627 -83.11399109 12.75616599 -83.11352539 9.30297852 C-83.11712067 8.26864182 -83.12071594 7.23430511 -83.12442017 6.16862488 C-83.1230455 5.23327911 -83.12167084 4.29793335 -83.12025452 3.33424377 C-83.12117631 2.5166134 -83.1220981 1.69898302 -83.12304783 0.85657597 C-83 -1 -83 -1 -82 -2 C-79.72052208 -2.1002093 -77.43792865 -2.13081303 -75.15625 -2.1328125 C-74.47195923 -2.13376923 -73.78766846 -2.13472595 -73.0826416 -2.13571167 C-71.63338123 -2.1363933 -70.18411782 -2.13454023 -68.73486328 -2.13037109 C-66.50937072 -2.12502252 -64.28407999 -2.1303166 -62.05859375 -2.13671875 C-60.65364539 -2.13605797 -59.24869715 -2.1347768 -57.84375 -2.1328125 C-56.55662109 -2.13168457 -55.26949219 -2.13055664 -53.94335938 -2.12939453 C-51 -2 -51 -2 -50 -1 C-49.92794489 0.68608966 -49.91613932 2.37500659 -49.9375 4.0625 C-49.94652344 4.98160156 -49.95554687 5.90070313 -49.96484375 6.84765625 C-49.97644531 7.55792969 -49.98804688 8.26820313 -50 9 C-49.52691406 8.54109375 -49.05382812 8.0821875 -48.56640625 7.609375 C-35.4214829 -4.58747396 -16.5432615 -6.34158357 0 0 Z " fill="#213051" transform="translate(1026,409)"/>
<path d="M0 0 C3.23975111 1.89903348 6.51548904 3.56720797 9.89453125 5.203125 C16.05236645 8.21963211 21.96407744 11.57584624 27.89453125 15.015625 C53.92845025 30.03421746 77.33207377 35.61782125 107.33203125 34.953125 C107.33203125 35.943125 107.33203125 36.933125 107.33203125 37.953125 C103.93714187 38.93558473 100.54096196 39.91350833 97.14453125 40.890625 C96.18482422 41.16841797 95.22511719 41.44621094 94.23632812 41.73242188 C93.30498047 41.99990234 92.37363281 42.26738281 91.4140625 42.54296875 C90.56046143 42.78909912 89.70686035 43.03522949 88.82739258 43.28881836 C71.29926234 47.95509782 50.59224406 46.11134952 33.33203125 40.953125 C32.35685547 40.66824219 31.38167969 40.38335937 30.37695312 40.08984375 C16.25147276 35.8807797 2.83822198 30.58572849 -10.51412964 24.41201782 C-29.22234551 15.76757927 -49.01095921 7.98518809 -69.76171875 13.85546875 C-78.35515035 17.10110622 -90.44792774 24.51304297 -94.66796875 32.953125 C-95.32796875 32.953125 -95.98796875 32.953125 -96.66796875 32.953125 C-96.99796875 34.273125 -97.32796875 35.593125 -97.66796875 36.953125 C-98.32796875 36.953125 -98.98796875 36.953125 -99.66796875 36.953125 C-99.78398437 37.51386719 -99.9 38.07460938 -100.01953125 38.65234375 C-100.74675364 41.23266898 -101.80716557 43.3876401 -103.04296875 45.765625 C-103.71392578 47.09207031 -103.71392578 47.09207031 -104.3984375 48.4453125 C-104.81738281 49.27289063 -105.23632812 50.10046875 -105.66796875 50.953125 C-108.22457501 56.16102664 -109.35466381 61.00605634 -110.23828125 66.6953125 C-110.66796875 68.953125 -110.66796875 68.953125 -111.66796875 69.953125 C-112.57155649 74.93653628 -112.80363294 79.80590079 -112.765625 84.85546875 C-112.76350258 85.93931602 -112.76350258 85.93931602 -112.76133728 87.0450592 C-112.755791 89.32695865 -112.74324895 91.60875579 -112.73046875 93.890625 C-112.72544679 95.44856628 -112.72088511 97.00650912 -112.71679688 98.56445312 C-112.70583925 102.36071581 -112.68861247 106.15690313 -112.66796875 109.953125 C-112.00796875 109.953125 -111.34796875 109.953125 -110.66796875 109.953125 C-110.54679687 110.82195312 -110.425625 111.69078125 -110.30078125 112.5859375 C-110.13320312 113.73835937 -109.965625 114.89078125 -109.79296875 116.078125 C-109.63054687 117.21507812 -109.468125 118.35203125 -109.30078125 119.5234375 C-108.69000353 122.83370195 -107.79669575 125.78687978 -106.66796875 128.953125 C-105.94951716 131.13732272 -105.24130652 133.32491354 -104.54296875 135.515625 C-104.18976563 136.61003906 -103.8365625 137.70445312 -103.47265625 138.83203125 C-102.73135918 141.70725631 -102.50332521 144.00600558 -102.66796875 146.953125 C-102.00796875 146.953125 -101.34796875 146.953125 -100.66796875 146.953125 C-100.48621094 147.51 -100.30445313 148.066875 -100.1171875 148.640625 C-98.86257807 152.44949055 -97.57941403 156.22314102 -96.10546875 159.953125 C-94.48373641 164.18669995 -93.54164992 168.51276892 -92.66796875 172.953125 C-92.00796875 172.953125 -91.34796875 172.953125 -90.66796875 172.953125 C-89.43603555 176.14738659 -88.20619883 179.34241417 -86.98046875 182.5390625 C-86.2165671 184.52611621 -85.44807821 186.51144082 -84.66796875 188.4921875 C-83.5097045 191.46580821 -82.66796875 193.7307741 -82.66796875 196.953125 C-82.00796875 196.953125 -81.34796875 196.953125 -80.66796875 196.953125 C-80.33796875 200.253125 -80.00796875 203.553125 -79.66796875 206.953125 C-81.44503084 204.28753187 -82.54345148 201.9250635 -83.66796875 198.953125 C-83.52359375 200.19449219 -83.37921875 201.43585938 -83.23046875 202.71484375 C-83.04282186 204.35675405 -82.85533001 205.99868208 -82.66796875 207.640625 C-82.57257813 208.45724609 -82.4771875 209.27386719 -82.37890625 210.11523438 C-81.92926353 214.08172552 -81.53762332 217.95314963 -81.66796875 221.953125 C-82.32796875 221.623125 -82.98796875 221.293125 -83.66796875 220.953125 C-84.11129517 218.63507837 -84.44937215 216.29638409 -84.73046875 213.953125 C-84.89202007 209.62552822 -84.89202007 209.62552822 -86.66796875 205.953125 C-86.94128091 204.12312184 -87.18618525 202.28885034 -87.41796875 200.453125 C-88.91224729 191.22568235 -93.57783046 184.83401501 -99.01953125 177.41015625 C-100.84349322 174.69150203 -102.22529564 171.89052643 -103.66796875 168.953125 C-104.86617629 166.88472601 -106.07530263 164.82262887 -107.29296875 162.765625 C-124.66796875 132.80971666 -124.66796875 132.80971666 -124.66796875 120.953125 C-125.32796875 120.953125 -125.98796875 120.953125 -126.66796875 120.953125 C-132.17764346 101.1508255 -132.17764346 101.1508255 -132.4296875 93.9609375 C-132.57750158 91.85843099 -132.57750158 91.85843099 -133.6640625 89.73754883 C-135.43588203 84.82324879 -135.00064919 79.70200586 -134.98364258 74.52758789 C-134.98052746 72.55284095 -135.0046514 70.57811122 -135.02929688 68.60351562 C-135.03758174 52.07521451 -130.8899158 35.81957983 -123.66796875 20.953125 C-123.00796875 20.953125 -122.34796875 20.953125 -121.66796875 20.953125 C-121.61382812 20.26476562 -121.5596875 19.57640625 -121.50390625 18.8671875 C-120.34787639 14.83728901 -118.0456589 12.41960778 -115.29296875 9.328125 C-114.79796875 8.75578125 -114.30296875 8.1834375 -113.79296875 7.59375 C-108.88920441 1.95573217 -108.88920441 1.95573217 -106.66796875 -0.046875 C-106.00796875 -0.046875 -105.34796875 -0.046875 -104.66796875 -0.046875 C-104.33796875 -1.036875 -104.00796875 -2.026875 -103.66796875 -3.046875 C-72.97588053 -26.78606298 -30.93345343 -18.52471954 0 0 Z " fill="#172B4F" transform="translate(355.66796875,256.046875)"/>
<path d="M0 0 C1.12712445 4.50849781 1.12712445 4.50849781 0.54711914 6.75097656 C-0.18456256 9.75867482 -0.22144101 12.64122149 -0.31640625 15.734375 C-0.37924805 17.67763672 -0.37924805 17.67763672 -0.44335938 19.66015625 C-0.48316671 21.02343476 -0.52287906 22.38671606 -0.5625 23.75 C-0.60572274 25.12891875 -0.64933821 26.50782526 -0.69335938 27.88671875 C-0.79943899 31.25769306 -0.90022365 34.62883323 -1 38 C8.24 38 17.48 38 27 38 C27.020625 42.434375 27.04125 46.86875 27.0625 51.4375 C27.071604 52.83798584 27.08070801 54.23847168 27.09008789 55.68139648 C27.09258545 56.77524658 27.09508301 57.86909668 27.09765625 58.99609375 C27.10289307 60.12200928 27.10812988 61.2479248 27.11352539 62.40795898 C27 65 27 65 26 66 C24.07521187 66.15806531 22.1450079 66.251135 20.21484375 66.31640625 C19.04501953 66.35830078 17.87519531 66.40019531 16.66992188 66.44335938 C15.43822266 66.48267578 14.20652344 66.52199219 12.9375 66.5625 C11.08415039 66.62727539 11.08415039 66.62727539 9.19335938 66.69335938 C6.12902665 66.79984198 3.06460927 66.90185424 0 67 C-0.07631846 73.28043803 -0.12871221 79.56075562 -0.16479492 85.84155273 C-0.17984362 87.97636382 -0.20028736 90.11114419 -0.22631836 92.24584961 C-0.26287386 95.32152914 -0.2797659 98.39679844 -0.29296875 101.47265625 C-0.30845261 102.42084732 -0.32393646 103.36903839 -0.33988953 104.34596252 C-0.34149005 110.70590635 0.18230293 116.08514096 4.8125 120.875 C10.06663095 123.57712449 14.26809933 122.94922817 19.75390625 121.47265625 C22 121 22 121 27 121 C27 129.58 27 138.16 27 147 C26.34 147 25.68 147 25 147 C25 147.66 25 148.32 25 149 C7.97695604 151.85844216 -7.22009391 153.02036159 -21.9375 143 C-24.14126229 140.86301839 -24.40102599 139.89504103 -25 137 C-25.99 136.67 -26.98 136.34 -28 136 C-29.1328125 133.56640625 -29.1328125 133.56640625 -30.125 130.5625 C-31.38669537 126.70795033 -31.38669537 126.70795033 -33 123 C-33.0909215 121.1820546 -33.11753467 119.36074055 -33.11352539 117.54052734 C-33.11344986 116.39949554 -33.11337433 115.25846375 -33.11329651 114.08285522 C-33.10813522 112.84637238 -33.10297394 111.60988953 -33.09765625 110.3359375 C-33.0962413 109.07359283 -33.09482635 107.81124817 -33.09336853 106.51065063 C-33.08871078 103.15361701 -33.07972408 99.796651 -33.06866455 96.43963623 C-33.0584377 93.01445094 -33.05386818 89.58925866 -33.04882812 86.1640625 C-33.03778238 79.44268957 -33.02103194 72.72134869 -33 66 C-33.59538574 66.03552979 -34.19077148 66.07105957 -34.80419922 66.10766602 C-37.49416774 66.26498794 -40.18453917 66.41384562 -42.875 66.5625 C-44.28072266 66.64661133 -44.28072266 66.64661133 -45.71484375 66.73242188 C-46.61074219 66.78076172 -47.50664063 66.82910156 -48.4296875 66.87890625 C-49.67081299 66.94960327 -49.67081299 66.94960327 -50.93701172 67.02172852 C-53 67 -53 67 -55 66 C-55.02886338 61.52084672 -55.04675187 57.04171709 -55.0625 52.5625 C-55.07087891 51.28310547 -55.07925781 50.00371094 -55.08789062 48.68554688 C-55.09111328 47.47060547 -55.09433594 46.25566406 -55.09765625 45.00390625 C-55.10289307 43.87799072 -55.10812988 42.7520752 -55.11352539 41.59204102 C-55 39 -55 39 -54 38 C-50.41827526 37.83033935 -46.84320218 37.70257676 -43.2578125 37.65820312 C-38.76883831 37.57710416 -38.76883831 37.57710416 -35.0625 35.3203125 C-31.14551153 26.76630092 -30.63729526 17.37825164 -30.40625 8.1171875 C-30 5 -30 5 -28.796875 3.14453125 C-21.13154369 -1.73795152 -8.7536083 -0.21525266 0 0 Z " fill="#1D2C4D" transform="translate(1122,369)"/>
<path d="M0 0 C3.28974442 11.59168638 -2.88804393 27.63854161 -6.0859375 38.78515625 C-6.86285789 41.51765832 -7.49221903 44.20720467 -8 47 C-8.66 47 -9.32 47 -10 47 C-10.07347656 48.01320313 -10.07347656 48.01320313 -10.1484375 49.046875 C-10.22320313 49.93890625 -10.29796875 50.8309375 -10.375 51.75 C-10.47941406 53.07257813 -10.47941406 53.07257813 -10.5859375 54.421875 C-11.00387733 57.02414187 -11.78392285 58.68945342 -13 61 C-13.33465367 62.36517448 -13.62490726 63.74183404 -13.875 65.125 C-14.58391768 68.54678379 -15.57511329 71.5956097 -16.9375 74.8125 C-18.90684802 79.50246583 -20.11098664 84.20482781 -21.2734375 89.1484375 C-22.23109331 92.9069791 -23.54872192 96.40635904 -25 100 C-25.66 100 -26.32 100 -27 100 C-27.061875 100.928125 -27.12375 101.85625 -27.1875 102.8125 C-27.9552464 108.29799242 -30.63420911 113.05468633 -33 118 C-33.474375 119.134375 -33.94875 120.26875 -34.4375 121.4375 C-36.75657794 126.72499771 -39.38805881 131.85219358 -42 137 C-42.66 137 -43.32 137 -44 137 C-44.33 138.65 -44.66 140.3 -45 142 C-45.66 142 -46.32 142 -47 142 C-47.20625 142.66 -47.4125 143.32 -47.625 144 C-49.49124252 148.07180186 -51.97561527 151.68796998 -55 155 C-55.66 155 -56.32 155 -57 155 C-57.37125 155.86818359 -57.37125 155.86818359 -57.75 156.75390625 C-61.87218664 164.16096036 -70.30043288 169.02980275 -78 172 C-85.49489673 173.74693082 -90.82205478 173.27236072 -97.62109375 169.62890625 C-101.30060997 167.10943455 -104.03655091 164.01469469 -106 160 C-106 158.68 -106 157.36 -106 156 C-106.66 156 -107.32 156 -108 156 C-108.12117188 155.01 -108.24234375 154.02 -108.3671875 153 C-108.53620565 151.66663461 -108.70549088 150.33330306 -108.875 149 C-109.03742188 147.700625 -109.19984375 146.40125 -109.3671875 145.0625 C-109.74060297 142.36493425 -110.27777964 140.00223634 -111.01586914 137.35107422 C-112.2055246 132.6653851 -112.33119642 128.13577873 -112.37890625 123.3203125 C-112.39590073 122.42633759 -112.4128952 121.53236267 -112.43040466 120.61129761 C-112.48312471 117.78260166 -112.52367833 114.95391806 -112.5625 112.125 C-112.60646492 109.27472759 -112.65310281 106.4245661 -112.70530701 103.57443237 C-112.73721565 101.80720444 -112.7641208 100.03987767 -112.78553772 98.27249146 C-112.73744261 94.00056145 -112.73744261 94.00056145 -114 90 C-114.21772478 88.61368175 -114.3896878 87.21996991 -114.53515625 85.82421875 C-114.62216797 84.99599609 -114.70917969 84.16777344 -114.79882812 83.31445312 C-114.88583984 82.44755859 -114.97285156 81.58066406 -115.0625 80.6875 C-115.15337891 79.83220703 -115.24425781 78.97691406 -115.33789062 78.09570312 C-115.75479036 74.04895462 -116.12601603 70.07451824 -116 66 C-116.66 66 -117.32 66 -118 66 C-118.391875 64.824375 -118.78375 63.64875 -119.1875 62.4375 C-120.34255112 59.3110876 -121.70386413 56.80178135 -123.6875 54.125 C-126 51 -126 51 -126 49 C-126.598125 48.731875 -127.19625 48.46375 -127.8125 48.1875 C-129.97224808 47.01506533 -131.35790256 45.80630718 -133 44 C-132.67 43.34 -132.34 42.68 -132 42 C-125.54744971 42.2633694 -122.4514478 44.42552224 -118 49 C-115.9375 51.3125 -115.9375 51.3125 -114 54 C-113.49210937 54.68191406 -112.98421875 55.36382812 -112.4609375 56.06640625 C-109.09358862 60.78229058 -107.24767512 64.17963469 -107 70 C-106.34 70 -105.68 70 -105 70 C-100.54368371 83.82136678 -96.70185424 97.39085758 -97 112 C-96.34 112 -95.68 112 -95 112 C-94.89042969 112.845625 -94.78085937 113.69125 -94.66796875 114.5625 C-93.39019149 126.42284184 -93.39019149 126.42284184 -87 136 C-83.10324586 137.01654456 -79.82773714 137.38223841 -76 136 C-75.31873476 134.67406641 -74.65404058 133.339572 -74 132 C-72.9892225 130.84716728 -71.94411381 129.72394955 -70.875 128.625 C-63.66018757 120.5552098 -58.95932024 110.21863545 -54.32421875 100.5234375 C-53.0597492 98.11385836 -51.79252146 96.0472229 -50 94 C-49.34 94 -48.68 94 -48 94 C-47.896875 93.319375 -47.79375 92.63875 -47.6875 91.9375 C-46.35095556 86.22681011 -43.78905913 81.56637388 -40.8125 76.5625 C-38.17121604 72.10190842 -35.72603959 67.58690595 -33.4375 62.9375 C-28.02856786 51.95593537 -22.35364545 41.11220013 -16.69677734 30.25683594 C-15.62022912 28.19048294 -14.5448886 26.12349992 -13.47119141 24.05566406 C-12.12998657 21.47284196 -10.78453805 18.89228354 -9.4375 16.3125 C-9.05674316 15.57797607 -8.67598633 14.84345215 -8.28369141 14.08666992 C-5.74387475 9.24207957 -2.95905772 4.59998272 0 0 Z " fill="#182D51" transform="translate(527,423)"/>
<path d="M0 0 C0 52.47 0 104.94 0 159 C-10.56 159 -21.12 159 -32 159 C-32 106.86 -32 54.72 -32 1 C-8 0 -8 0 0 0 Z " fill="#1E2D4F" transform="translate(1335,360)"/>
<path d="M0 0 C0 0.66 0 1.32 0 2 C0.721875 2.20625 1.44375 2.4125 2.1875 2.625 C5.97218384 4.47528988 7.52258653 6.60240438 10 10 C10 10.66 10 11.32 10 12 C10.66 12 11.32 12 12 12 C12.33 13.32 12.66 14.64 13 16 C13.66 16 14.32 16 15 16 C18.05109112 21.88510856 20.89843643 27.70724999 23 34 C23.268125 34.79277344 23.53625 35.58554687 23.8125 36.40234375 C25.39521754 41.34072684 26.40098206 46.01309413 26.7890625 51.1875 C26.90707367 53.0981644 26.90707367 53.0981644 28 55 C28.24398641 58.66102626 28.18521592 62.33176436 28.1875 66 C28.19974609 67.00417969 28.21199219 68.00835937 28.22460938 69.04296875 C28.23587318 74.84758388 27.78001866 80.2004513 26.47973633 85.86206055 C25.90717216 88.26322526 25.90717216 88.26322526 25.5 91.8125 C25.01834372 94.88305878 24.15938007 97.13491327 23 100 C22.35728641 102.03615987 21.7334651 104.07834468 21.125 106.125 C19.2922633 112.16751912 17.22580797 118.09213736 15 124 C14.34 124 13.68 124 13 124 C12.938125 124.78375 12.87625 125.5675 12.8125 126.375 C11.6967665 131.35288793 9.39693773 135.52453694 7 140 C6.34 140 5.68 140 5 140 C4.34 141.32 3.68 142.64 3 144 C3.93150981 139.1871993 4.90371995 134.39004746 5.98828125 129.609375 C6.16456055 128.83062012 6.34083984 128.05186523 6.52246094 127.24951172 C6.87525641 125.69829619 7.23123884 124.14780109 7.59082031 122.59814453 C9.65723447 113.50233885 10.15819153 104.87272367 10.125 95.5625 C10.12886719 94.48162109 10.13273438 93.40074219 10.13671875 92.28710938 C10.12646092 83.82952794 9.96089677 75.99553023 7 68 C6.72800781 67.01902344 6.45601562 66.03804688 6.17578125 65.02734375 C4.13498763 57.72296479 1.34408997 51.50358709 -2.51171875 44.97265625 C-4.04288526 41.91434203 -4.62205574 39.38134135 -5 36 C-5.66 36 -6.32 36 -7 36 C-8.19140625 34.1640625 -8.19140625 34.1640625 -9.5625 31.625 C-16.54540144 19.68812733 -25.55907331 11.7113605 -38.796875 7.54296875 C-55.21706821 3.49614808 -74.6833272 4.77296078 -91 9 C-91.7945459 9.20399414 -92.5890918 9.40798828 -93.40771484 9.61816406 C-103.82643143 12.36846504 -113.46996863 15.79574693 -123.03125 20.77734375 C-126 22 -126 22 -128.40625 21.69140625 C-128.9321875 21.46324219 -129.458125 21.23507812 -130 21 C-125.84701324 15.15958915 -120.90781888 12.18066012 -114.6875 8.75 C-113.68074219 8.18933838 -112.67398437 7.62867676 -111.63671875 7.05102539 C-78.97552134 -10.73730157 -32.82617357 -26.59589981 0 0 Z " fill="#134182" transform="translate(537,248)"/>
<path d="M0 0 C0 0.66 0 1.32 0 2 C0.721875 2.20625 1.44375 2.4125 2.1875 2.625 C5.97218384 4.47528988 7.52258653 6.60240438 10 10 C10 10.66 10 11.32 10 12 C10.66 12 11.32 12 12 12 C13.60355101 15.50776784 14.22036864 18.14354879 14 22 C14.66 22 15.32 22 16 22 C15.67 22.99 15.34 23.98 15 25 C9.85936358 23.6106388 5.55518407 21.17562975 0.9765625 18.53515625 C-5.84887546 15.01495006 -12.2159587 13.48430465 -19.8125 12.5625 C-26.46179465 11.67178452 -32.50648163 10.54402632 -38.7109375 7.8671875 C-53.8040028 2.14933683 -75.59685261 5.00962102 -91 9 C-91.7945459 9.20399414 -92.5890918 9.40798828 -93.40771484 9.61816406 C-103.82643143 12.36846504 -113.46996863 15.79574693 -123.03125 20.77734375 C-126 22 -126 22 -128.40625 21.69140625 C-128.9321875 21.46324219 -129.458125 21.23507812 -130 21 C-125.84701324 15.15958915 -120.90781888 12.18066012 -114.6875 8.75 C-113.68074219 8.18933838 -112.67398437 7.62867676 -111.63671875 7.05102539 C-78.97552134 -10.73730157 -32.82617357 -26.59589981 0 0 Z " fill="#1C3155" transform="translate(537,248)"/>
<path d="M0 0 C1.34090759 0.65129797 2.67592331 1.31513275 4 2 C4 3.32 4 4.64 4 6 C4.96711914 5.98428955 5.93423828 5.9685791 6.93066406 5.95239258 C10.57608453 5.89740761 14.22146973 5.86340525 17.8671875 5.83520508 C19.43430783 5.82027248 21.00138754 5.79991885 22.56835938 5.77368164 C41.23112961 5.46939734 41.23112961 5.46939734 50 9 C50.495 9.99 50.495 9.99 51 11 C50.30261719 10.7834375 49.60523438 10.566875 48.88671875 10.34375 C31.10876621 5.65505922 10.76010957 6.39902033 -7 11 C-7.7945459 11.20399414 -8.5890918 11.40798828 -9.40771484 11.61816406 C-19.82643143 14.36846504 -29.46996863 17.79574693 -39.03125 22.77734375 C-42 24 -42 24 -44.40625 23.69140625 C-44.9321875 23.46324219 -45.458125 23.23507812 -46 23 C-41.73036514 16.89128 -36.32260417 13.87934769 -29.875 10.3125 C-28.89273437 9.74466797 -27.91046875 9.17683594 -26.8984375 8.59179688 C-21.17092535 5.37760749 -15.78951101 3.09492723 -9.37939453 1.62963867 C-6.97298019 1.09098944 -6.97298019 1.09098944 -4.87451172 -0.1394043 C-3 -1 -3 -1 0 0 Z " fill="#3F4F6C" transform="translate(453,246)"/>
<path d="M0 0 C2.55859375 1.375 2.55859375 1.375 3.55859375 3.375 C5.5832263 4.02713292 5.5832263 4.02713292 7.55859375 4.375 C6.79417969 4.58253906 6.02976562 4.79007812 5.2421875 5.00390625 C-2.05946379 7.10389982 -8.67239892 9.68746509 -15.41430664 13.17602539 C-19.9374409 15.43728785 -19.9374409 15.43728785 -22.875 15.07421875 C-23.39191406 14.84347656 -23.90882813 14.61273438 -24.44140625 14.375 C-20.70511969 9.36415175 -16.93696912 6.41186522 -11.50390625 3.375 C-10.4684668 2.74658203 -10.4684668 2.74658203 -9.41210938 2.10546875 C-5.78540156 0.04976138 -4.2219655 -0.76675877 0 0 Z " fill="#4E5C76" transform="translate(431.44140625,254.625)"/>
<path d="M0 0 C2.29614015 2.15465783 4.00534558 4.36130544 5.69921875 7.01171875 C6.18583984 7.76904297 6.67246094 8.52636719 7.17382812 9.30664062 C7.67333984 10.09232422 8.17285156 10.87800781 8.6875 11.6875 C9.19861328 12.48478516 9.70972656 13.28207031 10.23632812 14.10351562 C11.49428624 16.06687081 12.74869816 18.0323985 14 20 C13.68289063 18.91589844 13.36578125 17.83179688 13.0390625 16.71484375 C12.13132757 13.46952076 11.48724945 10.32953791 11 7 C14.37478448 9.6919102 15.30155263 13.00447605 16.6875 17 C17.34298828 18.85625 17.34298828 18.85625 18.01171875 20.75 C19 24 19 24 19 27 C19.66 27 20.32 27 21 27 C21.33 30.3 21.66 33.6 22 37 C20.22293791 34.33440687 19.12451727 31.9719385 18 29 C18.144375 30.24136719 18.28875 31.48273438 18.4375 32.76171875 C18.62514689 34.40362905 18.81263874 36.04555708 19 37.6875 C19.09539062 38.50412109 19.19078125 39.32074219 19.2890625 40.16210938 C19.73870522 44.12860052 20.13034543 48.00002463 20 52 C19.34 51.67 18.68 51.34 18 51 C17.55667358 48.68195337 17.2185966 46.34325909 16.9375 44 C16.77594868 39.67240322 16.77594868 39.67240322 15 36 C14.72668784 34.16999684 14.4817835 32.33572534 14.25 30.5 C12.74195617 21.18755418 8.03512687 14.78586444 2.453125 7.359375 C0.91363208 4.85976821 0.38938228 2.88962643 0 0 Z " fill="#E5E7EB" transform="translate(254,426)"/>
<path d="M0 0 C1.3274855 3.98245651 -0.00092171 6.44789543 -1.4375 10.1875 C-1.68048828 10.84169922 -1.92347656 11.49589844 -2.17382812 12.16992188 C-2.7743293 13.78303286 -3.38609203 15.3919435 -4 17 C-4.66 17 -5.32 17 -6 17 C-6.061875 17.78375 -6.12375 18.5675 -6.1875 19.375 C-7.3032335 24.35288793 -9.60306227 28.52453694 -12 33 C-12.66 33 -13.32 33 -14 33 C-14.66 34.32 -15.32 35.64 -16 37 C-15.38879023 33.65443072 -14.69741954 30.32859324 -14 27 C-13.87109375 26.33613281 -13.7421875 25.67226563 -13.609375 24.98828125 C-13.18266246 22.81915919 -12.71916568 20.66029911 -12.25 18.5 C-12.11754883 17.79359375 -11.98509766 17.0871875 -11.84863281 16.359375 C-11.390625 14.34375 -11.390625 14.34375 -10 11 C-6.859375 9.53125 -6.859375 9.53125 -4 9 C-4 8.34 -4 7.68 -4 7 C-3.34 7 -2.68 7 -2 7 C-1.34 4.69 -0.68 2.38 0 0 Z " fill="#3E608E" transform="translate(556,355)"/>
<path d="M0 0 C2.44839588 3.67259383 4 6.54648201 4 11 C4.99 11.33 5.98 11.66 7 12 C7.6953125 13.92578125 7.6953125 13.92578125 8.125 16.3125 C8.34542969 17.48232422 8.34542969 17.48232422 8.5703125 18.67578125 C8.71210938 19.44277344 8.85390625 20.20976562 9 21 C9.3231499 22.33583795 9.65307929 23.67013726 10 25 C9.34 24.34 8.68 23.68 8 23 C7.67 23.66 7.34 24.32 7 25 C6.01 25 5.02 25 4 25 C4.09611572 25.55461914 4.19223145 26.10923828 4.29125977 26.68066406 C4.7234173 29.20241798 5.14307091 31.72609919 5.5625 34.25 C5.71396484 35.12269531 5.86542969 35.99539063 6.02148438 36.89453125 C6.2293457 38.16103516 6.2293457 38.16103516 6.44140625 39.453125 C6.63778687 40.61569824 6.63778687 40.61569824 6.83813477 41.80175781 C7.00822774 44.11173847 6.68559092 45.80085213 6 48 C3.87617569 41.60094493 3.16613804 35.18502589 2.4375 28.5 C2.30819092 27.34902832 2.17888184 26.19805664 2.0456543 25.01220703 C1.13063978 16.68399431 0.40050125 8.36909502 0 0 Z " fill="#808BA0" transform="translate(271,452)"/>
<path d="M0 0 C2.91155074 1.45577537 3.22300287 3.7238456 4.26953125 6.65625 C5.43149534 10.38447701 6.24659014 14.17090517 7 18 C7.66 18 8.32 18 9 18 C9.10957031 18.60585938 9.21914063 19.21171875 9.33203125 19.8359375 C10.50441057 26.03143795 12.08338447 31.99460467 14 38 C11.07880661 35.33764653 8.96945955 32.25733632 6.75 29 C6.02296875 27.948125 5.2959375 26.89625 4.546875 25.8125 C4.03640625 24.884375 3.5259375 23.95625 3 23 C3.33 22.01 3.66 21.02 4 20 C4.4017339 14.85056722 4.4017339 14.85056722 3 10 C2.01 9.67 1.02 9.34 0 9 C0 6.03 0 3.06 0 0 Z " fill="#56657F" transform="translate(256,411)"/>
<path d="M0 0 C0.33 0 0.66 0 1 0 C0.18330786 13.48950116 0.18330786 13.48950116 -3 19 C-6.1875 20.5625 -6.1875 20.5625 -9 21 C-8.11795127 12.70154157 -5.02831745 6.62880947 0 0 Z " fill="#132649" transform="translate(497,302)"/>
<path d="M0 0 C1.93166016 0.01740234 1.93166016 0.01740234 3.90234375 0.03515625 C5.19269531 0.04417969 6.48304687 0.05320312 7.8125 0.0625 C8.81152344 0.07410156 9.81054688 0.08570313 10.83984375 0.09765625 C10.83984375 0.42765625 10.83984375 0.75765625 10.83984375 1.09765625 C4.40484375 1.59265625 4.40484375 1.59265625 -2.16015625 2.09765625 C-2.16015625 10.34765625 -2.16015625 18.59765625 -2.16015625 27.09765625 C1.46984375 26.76765625 5.09984375 26.43765625 8.83984375 26.09765625 C8.50984375 26.75765625 8.17984375 27.41765625 7.83984375 28.09765625 C5.625 28.546875 5.625 28.546875 2.90234375 28.78515625 C1.55849609 28.91470703 1.55849609 28.91470703 0.1875 29.046875 C-2.16015625 29.09765625 -2.16015625 29.09765625 -4.16015625 28.09765625 C-4.18901963 23.61850297 -4.20690812 19.13937334 -4.22265625 14.66015625 C-4.23103516 13.38076172 -4.23941406 12.10136719 -4.24804688 10.78320312 C-4.25126953 9.56826172 -4.25449219 8.35332031 -4.2578125 7.1015625 C-4.26304932 5.97564697 -4.26828613 4.84973145 -4.27368164 3.68969727 C-4.10676181 -0.12145946 -3.88868243 0.12016942 0 0 Z " fill="#7F8798" transform="translate(1071.16015625,406.90234375)"/>
<path d="M0 0 C0.24106752 6.54791502 -0.44938978 11.92552782 -2.3125 18.1875 C-2.52583984 18.95513672 -2.73917969 19.72277344 -2.95898438 20.51367188 C-4.23095377 24.94468168 -5.78645907 28.92994088 -8 33 C-8.33 33 -8.66 33 -9 33 C-9.33 31.02 -9.66 29.04 -10 27 C-8.68 26.67 -7.36 26.34 -6 26 C-5.814375 24.5459375 -5.814375 24.5459375 -5.625 23.0625 C-5.11021769 19.38441767 -4.29346895 15.81446569 -3.40234375 12.2109375 C-2.85080133 9.55467299 -2.85080133 9.55467299 -3 5 C-5.64 9.29 -8.28 13.58 -11 18 C-11.33 17.34 -11.66 16.68 -12 16 C-10.80583901 13.40233129 -9.55975898 10.93821561 -8.1875 8.4375 C-7.63352539 7.39045898 -7.63352539 7.39045898 -7.06835938 6.32226562 C-3.65274157 0 -3.65274157 0 0 0 Z " fill="#A0A9B9" transform="translate(500,298)"/>
<path d="M0 0 C6.44277019 0.26297021 9.56323017 2.41939474 14 7 C16.25 9.625 16.25 9.625 18 12 C18.8971875 13.051875 18.8971875 13.051875 19.8125 14.125 C20.204375 14.74375 20.59625 15.3625 21 16 C20.67 16.99 20.34 17.98 20 19 C19.5875 18.43152344 19.175 17.86304688 18.75 17.27734375 C14.71972495 11.8886501 10.50893725 6.93857353 5 3 C4.34 3 3.68 3 3 3 C3.47050781 3.36351562 3.94101562 3.72703125 4.42578125 4.1015625 C8.43083437 7.33545632 11.19145327 10.02649649 13 15 C12.67 15.66 12.34 16.32 12 17 C10.99421411 15.71283353 9.99553202 14.42011342 9 13.125 C8.443125 12.40570313 7.88625 11.68640625 7.3125 10.9453125 C6 9 6 9 6 7 C5.401875 6.731875 4.80375 6.46375 4.1875 6.1875 C2.02775192 5.01506533 0.64209744 3.80630718 -1 2 C-0.67 1.34 -0.34 0.68 0 0 Z " fill="#EBECF0" transform="translate(395,465)"/>
<path d="M0 0 C2.52107096 2.52107096 2.25678155 3.38815358 2.265625 6.875 C2.26820313 7.86113281 2.27078125 8.84726562 2.2734375 9.86328125 C2.26570312 10.89839844 2.25796875 11.93351562 2.25 13 C2.25773438 14.00417969 2.26546875 15.00835937 2.2734375 16.04296875 C2.2584604 21.83161802 1.77474721 27.1926722 0.47753906 32.83764648 C0.01877983 34.9149627 -0.26205867 36.95010382 -0.5 39.0625 C-0.665 40.031875 -0.83 41.00125 -1 42 C-1.99 42.495 -1.99 42.495 -3 43 C-2.78537109 41.05480469 -2.78537109 41.05480469 -2.56640625 39.0703125 C-1.79486803 31.3549303 -1.38917153 23.61413803 -0.9375 15.875 C-0.84588732 14.33071823 -0.75409184 12.78644729 -0.66210938 11.2421875 C-0.43929999 7.49491315 -0.21896014 3.74750116 0 0 Z " fill="#E1E7EF" transform="translate(563,301)"/>
<path d="M0 0 C2 0.3125 2 0.3125 4 1 C5.60725635 4.21451269 5.05748185 7.43612536 5 11 C3.68 11 2.36 11 1 11 C-1.26737767 8.26350971 -2.07500461 6.82505075 -1.75 3.25 C-1 1 -1 1 0 0 Z " fill="#11274A" transform="translate(256,420)"/>
<path d="M0 0 C1.39722278 3.90429627 0.74871997 7.32937118 0.1875 11.375 C0.01605469 12.66148437 -0.15539062 13.94796875 -0.33203125 15.2734375 C-0.94303172 18.68217699 -1.80937009 21.75465435 -3 25 C-3.33 25 -3.66 25 -4 25 C-3.67 20.38 -3.34 15.76 -3 11 C-3.99 11.33 -4.98 11.66 -6 12 C-4.68139111 7.38486888 -2.78644563 3.90102388 0 0 Z " fill="#445A80" transform="translate(527,423)"/>
<path d="M0 0 C0.66 0.33 1.32 0.66 2 1 C-1.1272355 7.72650655 -5.73883339 12.104163 -12 16 C-13.79394446 17.62351109 -13.79394446 17.62351109 -15 19 C-13.7580393 15.56072421 -12.44259716 12.74792181 -10 10 C-9.34 10 -8.68 10 -8 10 C-7.67 9.01 -7.34 8.02 -7 7 C-6.34 7 -5.68 7 -5 7 C-4.731875 6.401875 -4.46375 5.80375 -4.1875 5.1875 C-3.01506533 3.02775192 -1.80630718 1.64209744 0 0 Z " fill="#748298" transform="translate(349,419)"/>
<path d="M0 0 C0.8125 1.625 0.8125 1.625 1 4 C-0.20148574 5.52621162 -1.41433824 7.04803516 -2.73046875 8.4765625 C-4.20045396 10.08097102 -4.20045396 10.08097102 -5.125 12.8125 C-5.41375 13.534375 -5.7025 14.25625 -6 15 C-6.99 15.33 -7.98 15.66 -9 16 C-9 16.66 -9 17.32 -9 18 C-8.34 18.33 -7.68 18.66 -7 19 C-8.98 19.99 -8.98 19.99 -11 21 C-10.45612822 16.55728836 -9.36052924 13.28095129 -7.1875 9.375 C-6.68605469 8.45460938 -6.18460938 7.53421875 -5.66796875 6.5859375 C-4.01112825 4.0172527 -2.23864719 2.06868482 0 0 Z " fill="#46536E" transform="translate(1175,424)"/>
<path d="M0 0 C1 3 1 3 -0.21484375 5.91796875 C-0.78332031 6.99691406 -1.35179687 8.07585937 -1.9375 9.1875 C-2.50339844 10.27417969 -3.06929687 11.36085938 -3.65234375 12.48046875 C-4.09707031 13.31191406 -4.54179688 14.14335937 -5 15 C-5.66 15 -6.32 15 -7 15 C-7.66 16.32 -8.32 17.64 -9 19 C-6.7199559 6.72657111 -6.7199559 6.72657111 -5 3 C-2.9375 2.25 -2.9375 2.25 -1 2 C-0.67 1.34 -0.34 0.68 0 0 Z " fill="#6681A9" transform="translate(549,373)"/>
<path d="M0 0 C1.9009762 2.8514643 2.96265899 5.29710476 4.125 8.5 C4.47820312 9.4590625 4.83140625 10.418125 5.1953125 11.40625 C6 14 6 14 6 17 C5.34 17.33 4.68 17.66 4 18 C3.34 18.99 2.68 19.98 2 21 C1.66034526 18.81347261 1.32857523 16.62571975 1 14.4375 C0.814375 13.21933594 0.62875 12.00117188 0.4375 10.74609375 C0.01444923 7.12372152 -0.07501425 3.64287954 0 0 Z " fill="#394A69" transform="translate(271,452)"/>
<path d="M0 0 C-1.32 0.99 -2.64 1.98 -4 3 C-3.38511719 2.77183594 -2.77023437 2.54367187 -2.13671875 2.30859375 C-1.32847656 2.02113281 -0.52023437 1.73367188 0.3125 1.4375 C1.51326172 1.00244141 1.51326172 1.00244141 2.73828125 0.55859375 C5 0 5 0 8 1 C5.58967749 2.20216334 3.17316521 3.38674978 0.75 4.5625 C-0.27287109 5.07586914 -0.27287109 5.07586914 -1.31640625 5.59960938 C-5.02168909 7.38030356 -7.07871478 8.3058334 -11 7 C-3.96875 -1.984375 -3.96875 -1.984375 0 0 Z " fill="#BCC1CC" transform="translate(418,262)"/>
<path d="M0 0 C2.93797442 0.30847234 5.87532282 0.62160223 8.8125 0.9375 C10.06256836 1.06801758 10.06256836 1.06801758 11.33789062 1.20117188 C12.14033203 1.28818359 12.94277344 1.37519531 13.76953125 1.46484375 C14.50792236 1.543396 15.24631348 1.62194824 16.00708008 1.70288086 C18 2 18 2 21 3 C21 3.66 21 4.32 21 5 C17.7 4.67 14.4 4.34 11 4 C10.34 5.32 9.68 6.64 9 8 C7.49712782 6.85793642 5.99776716 5.71125043 4.5 4.5625 C3.6646875 3.92441406 2.829375 3.28632813 1.96875 2.62890625 C1.3190625 2.09136719 0.669375 1.55382812 0 1 C0 0.67 0 0.34 0 0 Z " fill="#2C5994" transform="translate(509,259)"/>
<path d="M0 0 C3.37478448 2.6919102 4.30155263 6.00447605 5.6875 10 C6.12449219 11.2375 6.56148438 12.475 7.01171875 13.75 C8 17 8 17 8 20 C8.66 20 9.32 20 10 20 C10.33 23.3 10.66 26.6 11 30 C9.06191287 27.09286931 8.21897846 24.86762034 7.1875 21.5625 C5.41213181 16.05550886 3.28650692 10.78837262 0.953125 5.49609375 C0 3 0 3 0 0 Z " fill="#F1F2F5" transform="translate(265,433)"/>
<path d="M0 0 C1.23104155 3.68400584 0.90767252 6.91474976 0.5625 10.75 C0.46066406 11.92046875 0.35882813 13.0909375 0.25390625 14.296875 C0.17011719 15.18890625 0.08632813 16.0809375 0 17 C-0.66 17 -1.32 17 -2 17 C-1.67 17.99 -1.34 18.98 -1 20 C-1.45375 20.4125 -1.9075 20.825 -2.375 21.25 C-4.06440219 23.0693562 -4.9412494 24.77202047 -6 27 C-5.88437394 25.60335892 -5.757008 24.20768801 -5.625 22.8125 C-5.55539062 22.03519531 -5.48578125 21.25789063 -5.4140625 20.45703125 C-4.95761406 17.74848341 -4.02958899 15.54369044 -3 13 C-2.42194376 10.73815611 -1.88143329 8.46644979 -1.375 6.1875 C-0.98441406 4.44533203 -0.98441406 4.44533203 -0.5859375 2.66796875 C-0.39257812 1.78753906 -0.19921875 0.90710938 0 0 Z " fill="#9DCAF9" transform="translate(484,484)"/>
<path d="M0 0 C1.37400775 3.12274488 0.92162365 4.20900359 -0.3125 7.5 C-1.18375133 9.3070398 -2.0631126 11.11275172 -3.04296875 12.86328125 C-4.584515 16.3050192 -4.88746449 19.92889008 -5.4375 23.63671875 C-5.623125 24.41660156 -5.80875 25.19648438 -6 26 C-6.66 26.33 -7.32 26.66 -8 27 C-8.49801793 21.02378489 -7.92048423 17.14452702 -4.95703125 11.9296875 C-3.49563639 8.98303827 -3.27143003 6.25716036 -3 3 C-2.01 3 -1.02 3 0 3 C0 2.01 0 1.02 0 0 Z " fill="#9BC8F6" transform="translate(535,404)"/>
<path d="M0 0 C0.66 0 1.32 0 2 0 C1.34 8.25 0.68 16.5 0 25 C-0.33 25 -0.66 25 -1 25 C-1.95010014 20.97917621 -2.16509228 17.19000253 -2.1875 13.0625 C-2.20167969 11.87785156 -2.21585938 10.69320313 -2.23046875 9.47265625 C-1.99882699 5.98232534 -1.25530126 3.2498906 0 0 Z " fill="#4FA4F9" transform="translate(1573,425)"/>
<path d="M0 0 C0.33 0.99 0.66 1.98 1 3 C-1.97 2.505 -1.97 2.505 -5 2 C-5 3.65 -5 5.3 -5 7 C-4.34 7.33 -3.68 7.66 -3 8 C-3 8.66 -3 9.32 -3 10 C-8.66153846 8.52307692 -8.66153846 8.52307692 -10.375 5.875 C-10.58125 5.25625 -10.7875 4.6375 -11 4 C-7.25407744 1.67145354 -4.50822542 0 0 0 Z " fill="#86BEFA" transform="translate(427,435)"/>
<path d="M0 0 C0.66 0.33 1.32 0.66 2 1 C2 4 2 4 -0.3125 6.625 C-3 9 -3 9 -6 10 C-6.99 11.485 -6.99 11.485 -8 13 C-8.66 12.67 -9.32 12.34 -10 12 C-10 11.34 -10 10.68 -10 10 C-8.34614767 8.65080468 -6.678298 7.31866272 -5 6 C-4.34 5.01 -3.68 4.02 -3 3 C-2.34 3 -1.68 3 -1 3 C-0.67 2.01 -0.34 1.02 0 0 Z " fill="#54637D" transform="translate(476,329)"/>
<path d="M0 0 C0.66 0 1.32 0 2 0 C2.75 1.6875 2.75 1.6875 3 4 C2.38125 4.763125 1.7625 5.52625 1.125 6.3125 C-1.44732465 9.56573412 -1.68042429 11.92540965 -2 16 C-2.928125 16.12375 -2.928125 16.12375 -3.875 16.25 C-6.18437567 16.81258459 -6.18437567 16.81258459 -7.25 19.0625 C-7.4975 19.701875 -7.745 20.34125 -8 21 C-7.38632609 16.83468831 -5.95369774 13.65234354 -4 9.9375 C-1.48735429 5.15600671 -1.48735429 5.15600671 0 0 Z " fill="#80B7F9" transform="translate(526,334)"/>
<path d="M0 0 C0.33 1.32 0.66 2.64 1 4 C0.5153125 4.3403125 0.030625 4.680625 -0.46875 5.03125 C-5.82582354 8.90482625 -10.44007381 13.22177947 -15 18 C-15.66 17.67 -16.32 17.34 -17 17 C-11.33333333 11.33333333 -5.66666667 5.66666667 0 0 Z " fill="#80BBF7" transform="translate(498,382)"/>
<path d="M0 0 C0 0.99 0 1.98 0 3 C-1.98 3.33 -3.96 3.66 -6 4 C-6 3.67 -6 3.34 -6 3 C-11.94 2.67 -17.88 2.34 -24 2 C-24 1.67 -24 1.34 -24 1 C-15.98866917 0.40891367 -8.03770278 -0.14101233 0 0 Z " fill="#80899F" transform="translate(463,291)"/>
<path d="M0 0 C0.33 0 0.66 0 1 0 C1.125 7.75 1.125 7.75 0 10 C-0.15344209 11.88472859 -0.24959571 13.77427874 -0.31640625 15.6640625 C-0.35830078 16.78554688 -0.40019531 17.90703125 -0.44335938 19.0625 C-0.48267578 20.238125 -0.52199219 21.41375 -0.5625 22.625 C-0.60568359 23.80835938 -0.64886719 24.99171875 -0.69335938 26.2109375 C-0.79967426 29.14050328 -0.90170642 32.07015588 -1 35 C-1.66 34.67 -2.32 34.34 -3 34 C-2.88952802 29.64533833 -2.75903781 25.29149501 -2.625 20.9375 C-2.5940625 19.70837891 -2.563125 18.47925781 -2.53125 17.21289062 C-2.33533859 11.15596296 -2.08876869 5.71439565 0 0 Z " fill="#B9BBC0" transform="translate(308,494)"/>
<path d="M0 0 C2.93378127 1.03763211 3.85257537 1.71311965 5.30078125 4.53125 C5.63464844 5.5109375 5.96851563 6.490625 6.3125 7.5 C6.65925781 8.4796875 7.00601562 9.459375 7.36328125 10.46875 C8 13 8 13 7 15 C5.63292504 13.07053972 4.28155046 11.13289523 2.9375 9.1875 C2.18339844 8.10855469 1.42929687 7.02960938 0.65234375 5.91796875 C0.10707031 4.95503906 -0.43820312 3.99210937 -1 3 C-0.67 2.01 -0.34 1.02 0 0 Z " fill="#132447" transform="translate(262,434)"/>
<path d="M0 0 C5.22926405 1.47073052 9.41637993 5.00733149 13 9 C13 9.99 13 10.98 13 12 C12.34 12.66 11.68 13.32 11 14 C10.70867187 13.48050781 10.41734375 12.96101563 10.1171875 12.42578125 C7.26332915 7.5706323 4.45754585 4.42090728 0 1 C0 0.67 0 0.34 0 0 Z " fill="#2B3B5F" transform="translate(396,466)"/>
<path d="M0 0 C0 4.31618166 -2.13270348 5.92789659 -5 9 C-5.66 9 -6.32 9 -7 9 C-7 9.66 -7 10.32 -7 11 C-11.00200378 12.60080151 -14.04556236 11.29279692 -18 10 C-17.67 9.34 -17.34 8.68 -17 8 C-16.113125 8.185625 -15.22625 8.37125 -14.3125 8.5625 C-11.08076429 8.98933302 -9.0536905 9.10272157 -6 8 C-4.87483915 6.16715557 -4.87483915 6.16715557 -4 4 C-2.70529025 2.62913085 -1.37849103 1.28659163 0 0 Z " fill="#717B91" transform="translate(457,551)"/>
<path d="M0 0 C0.66 0 1.32 0 2 0 C1.29666462 2.97722547 0.41751463 5.85256543 -0.5625 8.75 C-0.96662109 9.94882812 -0.96662109 9.94882812 -1.37890625 11.171875 C-1.58386719 11.77515625 -1.78882813 12.3784375 -2 13 C-2.66 13 -3.32 13 -4 13 C-4.33 13.99 -4.66 14.98 -5 16 C-6.32095328 12.03714015 -5.27105135 10.64909563 -3.625 6.875 C-3.16351563 5.79992187 -2.70203125 4.72484375 -2.2265625 3.6171875 C-1 1 -1 1 0 0 Z " fill="#3F8BDA" transform="translate(481,504)"/>
<path d="M0 0 C3.51547883 0.29295657 4.72523271 0.69290714 7.125 3.375 C7.74375 4.24125 8.3625 5.1075 9 6 C9.515625 6.515625 10.03125 7.03125 10.5625 7.5625 C12.2806276 9.2806276 13.70997766 10.93596425 15 13 C14.67 13.99 14.34 14.98 14 16 C13.57589844 15.41992188 13.15179688 14.83984375 12.71484375 14.2421875 C8.86573113 9.11567707 4.95948418 5.04855852 0 1 C0 0.67 0 0.34 0 0 Z " fill="#DCDEE4" transform="translate(401,468)"/>
<path d="M0 0 C0.33 0 0.66 0 1 0 C1.28875 1.19625 1.5775 2.3925 1.875 3.625 C2.76354876 7.14790811 3.67707148 10.60999567 5 14 C5.66 14.33 6.32 14.66 7 15 C6.67 15.66 6.34 16.32 6 17 C4.35 16.67 2.7 16.34 1 16 C1.020625 15.05125 1.04125 14.1025 1.0625 13.125 C1.22551826 10.09333717 1.22551826 10.09333717 0 8 C-0.13415472 5.3276379 -0.04318541 2.67749512 0 0 Z " fill="#6E7B92" transform="translate(432,542)"/>
<path d="M0 0 C0.78375 0.00451172 1.5675 0.00902344 2.375 0.01367188 C4.29170014 0.02535907 6.20836048 0.04329092 8.125 0.0625 C8.125 0.3925 8.125 0.7225 8.125 1.0625 C6.58779297 1.15337891 6.58779297 1.15337891 5.01953125 1.24609375 C3.65884305 1.33055026 2.29816657 1.41519567 0.9375 1.5 C0.26396484 1.53931641 -0.40957031 1.57863281 -1.10351562 1.61914062 C-8.12759611 1.74754707 -8.12759611 1.74754707 -13.875 5.0625 C-13.875 4.4025 -13.875 3.7425 -13.875 3.0625 C-15.525 3.0625 -17.175 3.0625 -18.875 3.0625 C-12.98339502 -0.33650287 -6.59499684 -0.07265674 0 0 Z " fill="#5D6981" transform="translate(1217.875,405.9375)"/>
<path d="M0 0 C0.33 0 0.66 0 1 0 C1.3125 2.3125 1.3125 2.3125 1 5 C-1.3832946 6.81883009 -2.95818337 8 -6 8 C-5.67 5.69 -5.34 3.38 -5 1 C-3.35 1.33 -1.7 1.66 0 2 C0 1.34 0 0.68 0 0 Z " fill="#061738" transform="translate(494,315)"/>
<path d="M0 0 C0.66 0.33 1.32 0.66 2 1 C1.3503125 1.5878125 1.3503125 1.5878125 0.6875 2.1875 C-1.1428456 3.97682728 -1.1428456 3.97682728 -2.25 6.5625 C-4.65872153 9.917505 -7.05868466 10.18199116 -11 11 C-7.81316569 6.66590534 -4.13621084 3.3810038 0 0 Z " fill="#599FF1" transform="translate(479,400)"/>
<path d="M0 0 C5.94 0.66 11.88 1.32 18 2 C18 2.33 18 2.66 18 3 C11.1809916 4.65309295 6.14180621 4.59520364 0 1 C0 0.67 0 0.34 0 0 Z " fill="#B4BBC8" transform="translate(431,592)"/>
<path d="M0 0 C0.99 0.33 1.98 0.66 3 1 C4.1875 3.5625 4.1875 3.5625 5 6 C3.02 6.99 3.02 6.99 1 8 C-1 5 -1 5 -0.625 2.3125 C-0.41875 1.549375 -0.2125 0.78625 0 0 Z " fill="#112446" transform="translate(409,477)"/>
<path d="M0 0 C1.32 0.33 2.64 0.66 4 1 C3.34 2.98 2.68 4.96 2 7 C1.01 7 0.02 7 -1 7 C-1 7.66 -1 8.32 -1 9 C-1.66 9 -2.32 9 -3 9 C-2.01 6.03 -1.02 3.06 0 0 Z " fill="#5B6881" transform="translate(755,459)"/>
<path d="M0 0 C2.5625 2.25 2.5625 2.25 5 5 C5.0625 7.1875 5.0625 7.1875 4 9 C1.9375 10.25 1.9375 10.25 0 11 C0 7.33333333 0 3.66666667 0 0 Z " fill="#489CF8" transform="translate(1530,390)"/>
<path d="M0 0 C0 0.66 0 1.32 0 2 C-0.804375 2.474375 -1.60875 2.94875 -2.4375 3.4375 C-5.2918076 4.79983672 -5.2918076 4.79983672 -6 8 C-7.98 8.33 -9.96 8.66 -12 9 C-11.0919838 7.86800647 -10.17316174 6.74467637 -9.25 5.625 C-8.73953125 4.99851562 -8.2290625 4.37203125 -7.703125 3.7265625 C-5.40193949 1.3937093 -3.32507703 0 0 0 Z " fill="#55617C" transform="translate(425,257)"/>
<path d="M0 0 C2.99362643 1.49681321 3.24853063 3.80743435 4.3359375 6.85546875 C5.1679387 9.54234321 5.65144314 12.21154508 6 15 C4 12 4 12 3 10 C2.01 9.67 1.02 9.34 0 9 C0 6.03 0 3.06 0 0 Z " fill="#8E97A8" transform="translate(256,411)"/>
<path d="M0 0 C0.66 0.33 1.32 0.66 2 1 C1.0936096 2.92154764 0.17443196 4.83706654 -0.75 6.75 C-1.26046875 7.81734375 -1.7709375 8.8846875 -2.296875 9.984375 C-3.92485639 12.86694755 -5.54844908 14.80426309 -8 17 C-6.51095825 13.10391502 -4.75621287 9.40902982 -2.875 5.6875 C-2.06675781 4.08455078 -2.06675781 4.08455078 -1.2421875 2.44921875 C-0.62730469 1.23685547 -0.62730469 1.23685547 0 0 Z " fill="#DEE2E8" transform="translate(496,299)"/>
<path d="M0 0 C0 0.66 0 1.32 0 2 C-1.45264038 2.8638129 -2.9123163 3.71580454 -4.375 4.5625 C-5.59316406 5.27599609 -5.59316406 5.27599609 -6.8359375 6.00390625 C-7.55007813 6.33261719 -8.26421875 6.66132813 -9 7 C-9.66 6.67 -10.32 6.34 -11 6 C-5.2 0 -5.2 0 0 0 Z " fill="#657188" transform="translate(761,504)"/>
<path d="M0 0 C2.375 0.375 2.375 0.375 5 2 C6.08008783 5.27825654 6.57730231 8.58056494 7 12 C3.94990528 9.96660352 3.3269396 9.15653311 1.8125 6 C1.46832031 5.29875 1.12414062 4.5975 0.76953125 3.875 C0 2 0 2 0 0 Z " fill="#8F9BAE" transform="translate(247,414)"/>
<path d="M0 0 C0.33 0 0.66 0 1 0 C1.05399736 1.45792884 1.09279177 2.91642712 1.125 4.375 C1.14820313 5.18710937 1.17140625 5.99921875 1.1953125 6.8359375 C1 9 1 9 -1 11 C-1.69748583 12.31747324 -2.36959957 13.64914193 -3 15 C-2.22095672 4.44191344 -2.22095672 4.44191344 0 0 Z " fill="#9FA7B6" transform="translate(227,289)"/>
<path d="M0 0 C1.32 0.33 2.64 0.66 4 1 C3.34 1 2.68 1 2 1 C1.67 2.32 1.34 3.64 1 5 C-1.31 5.66 -3.62 6.32 -6 7 C-5.67 6.01 -5.34 5.02 -5 4 C-2.4375 2.8125 -2.4375 2.8125 0 2 C0 1.34 0 0.68 0 0 Z " fill="#0A1E42" transform="translate(425,257)"/>
<path d="M0 0 C0.99 0 1.98 0 3 0 C3.33 1.98 3.66 3.96 4 6 C3.01 6.495 3.01 6.495 2 7 C1.34 7.99 0.68 8.98 0 10 C0 6.7 0 3.4 0 0 Z " fill="#1C3156" transform="translate(273,463)"/>
<path d="M0 0 C2.625 0.375 2.625 0.375 5 1 C5 1.66 5 2.32 5 3 C7.64 3.66 10.28 4.32 13 5 C8.53672476 6.11581881 7.39238394 5.68986512 3.25 4.0625 C1.77273438 3.49208984 1.77273438 3.49208984 0.265625 2.91015625 C-0.48203125 2.60980469 -1.2296875 2.30945313 -2 2 C-1.34 1.34 -0.68 0.68 0 0 Z " fill="#78839B" transform="translate(373,289)"/>
<path d="M0 0 C0.433125 0.639375 0.86625 1.27875 1.3125 1.9375 C2.91239177 4.26746003 2.91239177 4.26746003 6 5 C6 7.31 6 9.62 6 12 C3.02404533 9.44918171 1.55997434 6.56565563 0 3 C0 2.01 0 1.02 0 0 Z " fill="#939DB0" transform="translate(241,402)"/>
<path d="M0 0 C0.66 0.33 1.32 0.66 2 1 C0.68 2.65 -0.64 4.3 -2 6 C-4.97 5.505 -4.97 5.505 -8 5 C-5.31158141 2.74754119 -3.35358125 1.11786042 0 0 Z " fill="#566480" transform="translate(438,249)"/>
<path d="M0 0 C0.98120464 3.05263664 0.98120464 4.94736336 0 8 C-0.66 8 -1.32 8 -2 8 C-2.66 9.32 -3.32 10.64 -4 12 C-3.71788123 10.3733152 -3.42397625 8.74867104 -3.125 7.125 C-2.96257813 6.22007812 -2.80015625 5.31515625 -2.6328125 4.3828125 C-2 2 -2 2 0 0 Z " fill="#243B63" transform="translate(544,380)"/>
<path d="M0 0 C0.66 0.33 1.32 0.66 2 1 C2.4140625 3.06640625 2.4140625 3.06640625 2.625 5.5625 C2.69976563 6.38878906 2.77453125 7.21507812 2.8515625 8.06640625 C2.90054688 8.70449219 2.94953125 9.34257812 3 10 C0.67527795 7.14693203 -0.7508258 4.45925163 -2 1 C-1.34 0.67 -0.68 0.34 0 0 Z " fill="#678BB9" transform="translate(528,274)"/>
<path d="M0 0 C0.33 0 0.66 0 1 0 C1.19294408 4.82360189 0.75747614 8.49646738 -1 13 C-2.53617912 8.90352234 -1.69045256 5.21176063 -1 1 C-0.67 0.67 -0.34 0.34 0 0 Z " fill="#7D94B3" transform="translate(529,418)"/>
<path d="M0 0 C0.66 0.33 1.32 0.66 2 1 C1.67 1.99 1.34 2.98 1 4 C-1.5625 5.1875 -1.5625 5.1875 -4 6 C-4 6.66 -4 7.32 -4 8 C-5.98 8.99 -5.98 8.99 -8 10 C-7.67 9.01 -7.34 8.02 -7 7 C-6.34 7 -5.68 7 -5 7 C-4.34 5.68 -3.68 4.36 -3 3 C-2.34 3 -1.68 3 -1 3 C-0.67 2.01 -0.34 1.02 0 0 Z " fill="#6BABF6" transform="translate(1567,380)"/>
<path d="M0 0 C0.8125 1.6875 0.8125 1.6875 1 4 C-1.4375 6.75 -1.4375 6.75 -4 9 C-4.66 8.67 -5.32 8.34 -6 8 C-4.55746343 4.63408134 -2.66735273 2.48952921 0 0 Z " fill="#69748A" transform="translate(770,493)"/>
<path d="M0 0 C5.75 1.75 5.75 1.75 8 4 C4 4 0 4 -4 4 C-2.68 2.68 -1.36 1.36 0 0 Z " fill="#81889D" transform="translate(894,483)"/>
<path d="M0 0 C1.670625 0.37125 1.670625 0.37125 3.375 0.75 C3.705 1.41 4.035 2.07 4.375 2.75 C0.37299622 4.35080151 -2.67056236 3.04279692 -6.625 1.75 C-3.625 -0.25 -3.625 -0.25 0 0 Z " fill="#2C86EF" transform="translate(1632.625,393.25)"/>
<path d="M0 0 C-3.85477249 2.56984833 -7.52040582 3.85814266 -12 5 C-9.04307137 0.33116532 -5.46817975 -2.02525176 0 0 Z " fill="#465673" transform="translate(897,487)"/>
<path d="M0 0 C0.33 0 0.66 0 1 0 C1 2.64 1 5.28 1 8 C0.01 8.33 -0.98 8.66 -2 9 C-2.33 9.66 -2.66 10.32 -3 11 C-2.44894091 7.0507432 -1.61064629 3.65079826 0 0 Z " fill="#69A8F9" transform="translate(1546,410)"/>
<path d="M0 0 C0.33 0.66 0.66 1.32 1 2 C0.00390625 4.3828125 0.00390625 4.3828125 -1.4375 7.125 C-1.91058594 8.03507812 -2.38367187 8.94515625 -2.87109375 9.8828125 C-3.24363281 10.58148438 -3.61617187 11.28015625 -4 12 C-5.60031344 8.79937313 -4.03173691 6.27728194 -3 3 C-2.34 3 -1.68 3 -1 3 C-0.67 2.01 -0.34 1.02 0 0 Z " fill="#7BBEFA" transform="translate(1689,470)"/>
<path d="M0 0 C1.258125 -0.04125 2.51625 -0.0825 3.8125 -0.125 C4.52019531 -0.14820313 5.22789063 -0.17140625 5.95703125 -0.1953125 C8 0 8 0 11 2 C5.62694301 2.96891192 5.62694301 2.96891192 3 3 C1 1.5625 1 1.5625 0 0 Z " fill="#519DF3" transform="translate(1482,364)"/>
<path d="M0 0 C0.66 0 1.32 0 2 0 C2 2.97 2 5.94 2 9 C1.34 9 0.68 9 0 9 C-1.125 2.25 -1.125 2.25 0 0 Z " fill="#979EAE" transform="translate(498,298)"/>
<path d="M0 0 C0.99 0.33 1.98 0.66 3 1 C1.35 2.98 -0.3 4.96 -2 7 C-2.66 6.67 -3.32 6.34 -4 6 C-3.34 4.68 -2.68 3.36 -2 2 C-1.34 2 -0.68 2 0 2 C0 1.34 0 0.68 0 0 Z " fill="#6F7B92" transform="translate(464,581)"/>
<path d="M0 0 C2.95183101 2.95183101 3.08663988 5.95511947 4 10 C1.9754262 8.06745228 0.57894208 6.36841312 -1 4 C-0.625 1.8125 -0.625 1.8125 0 0 Z " fill="#374564" transform="translate(266,439)"/>
<path d="M0 0 C0.66 0.33 1.32 0.66 2 1 C1.3125 2.9375 1.3125 2.9375 0 5 C-2.625 5.75 -2.625 5.75 -5 6 C-3.86695008 2.60085025 -2.87481525 1.94745549 0 0 Z " fill="#6C7890" transform="translate(356,413)"/>
<path d="M0 0 C0.66 0.33 1.32 0.66 2 1 C1.67 2.98 1.34 4.96 1 7 C-0.65 7.33 -2.3 7.66 -4 8 C-2.66666667 5.33333333 -1.33333333 2.66666667 0 0 Z " fill="#8490A5" transform="translate(486,316)"/>
<path d="M0 0 C0.598125 0.20625 1.19625 0.4125 1.8125 0.625 C1.8125 1.285 1.8125 1.945 1.8125 2.625 C2.4725 2.625 3.1325 2.625 3.8125 2.625 C3.8125 3.285 3.8125 3.945 3.8125 4.625 C0.8425 3.635 -2.1275 2.645 -5.1875 1.625 C-2.1875 -0.375 -2.1875 -0.375 0 0 Z " fill="#6D7890" transform="translate(340.1875,274.375)"/>
<path d="M0 0 C0.66 0 1.32 0 2 0 C5.22265625 5.17578125 5.22265625 5.17578125 6 7 C5.67 7.99 5.34 8.98 5 10 C1.32769295 6.92000054 0.43197635 4.7517398 0 0 Z " fill="#B7C0D1" transform="translate(550,264)"/>
<path d="M0 0 C-3.06117568 2.62386487 -3.73173127 3 -8 3 C-8 2.34 -8 1.68 -8 1 C-3.375 -1.125 -3.375 -1.125 0 0 Z " fill="#3B4963" transform="translate(1240,515)"/>
<path d="M0 0 C1 2 1 2 0.25 5.0625 C-0.1625 6.031875 -0.575 7.00125 -1 8 C-1.99 8.33 -2.98 8.66 -4 9 C-2.80100302 5.9168649 -1.52299523 2.93720508 0 0 Z " fill="#68A8F5" transform="translate(1551,400)"/>
<path d="M0 0 C1.32 0 2.64 0 4 0 C4 0.66 4 1.32 4 2 C4.66 2 5.32 2 6 2 C6 3.65 6 5.3 6 7 C1.125 2.25 1.125 2.25 0 0 Z " fill="#4B9BF8" transform="translate(1501,404)"/>
<path d="M0 0 C0.33 0 0.66 0 1 0 C1.042721 1.66611905 1.04063832 3.33382885 1 5 C0.67 5.33 0.34 5.66 0 6 C-0.36760731 8.32817964 -0.70241581 10.6618385 -1 13 C-1.33 13 -1.66 13 -2 13 C-2.05447047 11.58376784 -2.09300508 10.16691809 -2.125 8.75 C-2.14820313 7.96109375 -2.17140625 7.1721875 -2.1953125 6.359375 C-1.9828378 3.79268059 -1.28654105 2.2083933 0 0 Z " fill="#828EA0" transform="translate(244,320)"/>
<path d="M0 0 C0.33 0 0.66 0 1 0 C1 1.98 1 3.96 1 6 C-0.98 6.99 -0.98 6.99 -3 8 C-1.125 1.125 -1.125 1.125 0 0 Z " fill="#7A879C" transform="translate(474,521)"/>
<path d="M0 0 C0.66 0.99 1.32 1.98 2 3 C1.01 3.99 0.02 4.98 -1 6 C-1.99 5.67 -2.98 5.34 -4 5 C-2.68 3.35 -1.36 1.7 0 0 Z " fill="#59647F" transform="translate(913,500)"/>
<path d="M0 0 C0.99 0.33 1.98 0.66 3 1 C1.02 3.97 1.02 3.97 -1 7 C-1.5534764 4.92446352 -2 3.15634036 -2 1 C-1.34 0.67 -0.68 0.34 0 0 Z " fill="#5AA6FA" transform="translate(1678,487)"/>
<path d="M0 0 C0.66 0.33 1.32 0.66 2 1 C0.92598892 3.91517292 0.22189824 5.77810176 -2 8 C-1.125 1.125 -1.125 1.125 0 0 Z " fill="#4D5F79" transform="translate(361,452)"/>
<path d="M0 0 C1.32 0 2.64 0 4 0 C3.42655063 2.86724686 3.1385485 3.8614515 1 6 C0.67 4.02 0.34 2.04 0 0 Z " fill="#0F213D" transform="translate(252,418)"/>
<path d="M0 0 C0 3.20395416 -0.74335022 5.09399739 -2 8 C-2.99 8 -3.98 8 -5 8 C-4.67 7.01 -4.34 6.02 -4 5 C-3.34 5 -2.68 5 -2 5 C-1.7834375 4.0409375 -1.7834375 4.0409375 -1.5625 3.0625 C-1 1 -1 1 0 0 Z " fill="#8CBDF9" transform="translate(510,366)"/>
<path d="M0 0 C0.99 0 1.98 0 3 0 C1.70700306 2.88437779 0.34058637 4.87219421 -2 7 C-2.66 6.67 -3.32 6.34 -4 6 C-3.67 5.01 -3.34 4.02 -3 3 C-2.01 3 -1.02 3 0 3 C0 2.01 0 1.02 0 0 Z " fill="#727E94" transform="translate(464,364)"/>
<path d="M0 0 C0.33 0.99 0.66 1.98 1 3 C0.34 3 -0.32 3 -1 3 C-1 3.66 -1 4.32 -1 5 C-1.66 5 -2.32 5 -3 5 C-2.67 4.01 -2.34 3.02 -2 2 C-1.34 2 -0.68 2 0 2 C0 1.34 0 0.68 0 0 Z M-6 3 C-5.67 3.66 -5.34 4.32 -5 5 C-4.34 5.33 -3.68 5.66 -3 6 C-4.32 6.33 -5.64 6.66 -7 7 C-6.67 5.68 -6.34 4.36 -6 3 Z " fill="#0A3670" transform="translate(553,359)"/>
<path d="M0 0 C0.66 0.33 1.32 0.66 2 1 C1.67 2.32 1.34 3.64 1 5 C0.01 4.67 -0.98 4.34 -2 4 C-2.33 3.01 -2.66 2.02 -3 1 C-2.01 0.67 -1.02 0.34 0 0 Z " fill="#465778" transform="translate(454,242)"/>
</svg>
